<?xml version="1.0" standalone="no"?>
<!DOCTYPE svg PUBLIC "-//W3C//DTD SVG 1.0//EN" "http://www.w3.org/TR/2001/REC-SVG-20010904/DTD/svg10.dtd">
<svg xmlns="http://www.w3.org/2000/svg" xmlns:xlink="http://www.w3.org/1999/xlink" id="body_1" width="68" height="68">

<g transform="matrix(0.17 0 0 0.17 0 0)">
	<g>
	</g>
    <path d="M200 200.001L200 400.11L210.857 399.886C 216.829 399.762 221.824 399.507 221.957 399.317C 222.219 398.947 222.667 398.899 227.1 398.768C 228.695 398.721 230 398.529 230 398.341C 230 398.154 231.091 398 232.424 398C 233.937 398 234.754 397.85 234.6 397.6C 234.389 397.258 236.574 396.957 237.742 397.167C 237.93 397.2 238.29 397.074 238.542 396.885C 238.794 396.696 239.54 396.505 240.2 396.461C 240.86 396.417 241.67 396.318 242 396.241C 242.33 396.165 243.185 395.967 243.9 395.801C 244.615 395.635 245.2 395.342 245.2 395.15C 245.2 394.957 245.47 394.8 245.8 394.8C 246.13 394.8 246.403 395.025 246.406 395.3C 246.411 395.695 246.478 395.696 246.726 395.306C 246.899 395.034 247.705 394.764 248.519 394.706C 249.333 394.648 249.999 394.465 249.999 394.3C 250 394.135 250.551 394 251.224 394C 251.897 394 252.364 393.865 252.263 393.7C 252.161 393.535 252.555 393.356 253.139 393.302C 255.23 393.108 257.2 392.415 257.2 391.873C 257.2 391.575 257.341 391.581 257.654 391.894C 257.993 392.233 258.25 392.207 258.666 391.791C 258.972 391.485 259.488 391.336 259.812 391.46C 260.135 391.584 260.4 391.486 260.4 391.243C 260.4 390.999 260.85 390.8 261.4 390.8C 261.95 390.8 262.4 390.62 262.4 390.4C 262.4 390.18 262.591 390 262.824 390C 263.057 390 263.122 390.203 262.968 390.452C 262.792 390.737 262.894 390.811 263.244 390.652C 263.55 390.514 264.115 390.289 264.5 390.154C 264.885 390.018 265.2 389.728 265.2 389.511C 265.2 389.293 265.457 389.213 265.771 389.333C 266.085 389.454 266.546 389.306 266.797 389.004C 267.047 388.703 267.636 388.53 268.106 388.62C 268.575 388.711 269.565 388.428 270.304 387.992C 271.043 387.556 271.518 387.424 271.36 387.699C 271.201 387.975 271.55 387.764 272.135 387.23C 272.873 386.558 273.202 386.435 273.206 386.83C 273.21 387.17 273.331 387.238 273.506 387C 273.668 386.78 274.234 386.539 274.765 386.464C 275.295 386.389 275.983 386.074 276.293 385.764C 276.603 385.454 277.024 385.178 277.229 385.15C 277.433 385.123 277.78 385.055 278 385C 278.22 384.945 278.591 384.878 278.824 384.85C 279.057 384.822 279.148 384.639 279.026 384.442C 278.904 384.245 279.083 383.977 279.423 383.846C 279.763 383.716 279.942 383.77 279.82 383.967C 279.699 384.164 280.034 384.12 280.565 383.869C 281.097 383.618 281.448 383.277 281.345 383.111C 281.242 382.945 281.456 382.923 281.82 383.063C 282.183 383.202 282.608 383.111 282.763 382.86C 282.918 382.609 283.517 382.365 284.094 382.317C 284.67 382.269 285.055 382.088 284.948 381.915C 284.782 381.648 285.333 381.524 286.23 381.626C 286.357 381.641 286.783 381.281 287.177 380.826C 287.588 380.352 288.386 379.997 289.047 379.994C 289.938 379.989 290.064 379.9 289.6 379.6C 289.09 379.27 289.107 379.211 289.714 379.206C 290.107 379.203 290.872 378.909 291.414 378.554C 291.956 378.199 292.4 378.026 292.4 378.17C 292.4 378.314 292.651 378.199 292.958 377.916C 293.265 377.632 293.41 377.22 293.281 377C 293.152 376.78 293.327 376.827 293.67 377.105C 294.326 377.636 295.511 376.844 294.93 376.263C 294.785 376.118 294.973 376 295.347 376C 295.722 376 296.494 375.695 297.063 375.322C 297.632 374.949 298.443 374.619 298.865 374.588C 299.287 374.557 299.906 374.142 300.239 373.666C 300.573 373.19 301.206 372.8 301.646 372.8C 302.112 372.8 302.337 372.621 302.183 372.373C 302.038 372.139 302.163 371.994 302.46 372.052C 303.379 372.231 304.8 371.576 304.8 370.973C 304.8 370.658 304.935 370.429 305.1 370.465C 305.722 370.599 307.63 369.588 307.853 369.006C 307.981 368.673 308.314 368.4 308.594 368.4C 308.873 368.4 309.323 368.134 309.593 367.808C 310.176 367.107 312.298 366 313.061 366C 313.358 366 313.6 365.809 313.6 365.576C 313.6 365.343 313.392 365.281 313.138 365.438C 312.867 365.606 312.784 365.549 312.939 365.299C 313.083 365.066 313.571 364.972 314.024 365.09C 314.611 365.244 314.905 365.083 315.05 364.531C 315.161 364.104 315.736 363.547 316.326 363.292C 317.751 362.678 318.845 361.954 319.641 361.1C 320 360.715 320.453 360.392 320.647 360.383C 320.841 360.374 321.442 359.834 321.981 359.183C 322.521 358.532 323.156 358 323.392 358C 323.629 358 324.126 357.685 324.497 357.3C 326.074 355.665 326.849 355.04 327.402 354.959C 328.112 354.854 330.4 352.63 330.4 352.043C 330.4 351.813 330.7 351.74 331.066 351.881C 331.445 352.026 331.63 351.971 331.494 351.753C 331.364 351.542 331.74 351.156 332.329 350.895C 332.919 350.634 333.588 350.011 333.815 349.51C 334.043 349.01 334.457 348.648 334.736 348.707C 335.327 348.832 336.4 347.863 336.4 347.205C 336.4 346.956 336.611 346.883 336.868 347.042C 337.185 347.238 337.251 347.111 337.073 346.645C 336.921 346.25 336.972 346.059 337.191 346.195C 337.402 346.325 337.803 346.064 338.083 345.616C 338.363 345.167 338.83 344.8 339.12 344.8C 339.41 344.8 339.546 344.636 339.423 344.436C 339.299 344.237 339.728 343.627 340.377 343.081C 341.025 342.535 341.446 341.979 341.311 341.844C 341.177 341.71 341.285 341.6 341.552 341.6C 342.088 341.6 343.999 339.821 344.003 339.318C 344.004 339.143 344.556 338.687 345.228 338.304C 345.901 337.921 346.341 337.428 346.205 337.208C 346.062 336.977 346.221 336.91 346.584 337.049C 347.052 337.229 347.142 337.114 346.941 336.59C 346.751 336.095 346.837 335.947 347.236 336.083C 347.546 336.188 348.115 335.915 348.5 335.476C 349.324 334.536 349.394 334.242 348.7 334.637C 348.425 334.794 349.055 334.088 350.1 333.068C 351.145 332.048 352 331.073 352 330.902C 352 330.73 352.45 330.252 353 329.839C 353.55 329.426 354.003 328.708 354.006 328.244C 354.011 327.552 354.082 327.508 354.4 328C 354.67 328.418 354.805 328.448 354.844 328.1C 354.875 327.825 354.923 327.405 354.95 327.168C 354.978 326.93 355.312 326.507 355.694 326.228C 356.075 325.949 356.27 325.604 356.127 325.46C 355.984 325.317 356.146 325.2 356.488 325.2C 356.829 325.2 357.389 324.615 357.732 323.9C 358.075 323.185 358.816 322.26 359.378 321.844C 359.94 321.428 360.4 320.833 360.4 320.52C 360.4 320.208 360.58 320.064 360.8 320.2C 361.02 320.336 361.2 320.182 361.2 319.857C 361.2 319.532 361.425 319.176 361.7 319.065C 362.047 318.925 362.02 318.854 361.611 318.832C 361.205 318.81 361.299 318.606 361.911 318.177C 362.4 317.835 362.8 317.26 362.8 316.901C 362.8 316.541 363.492 315.602 364.337 314.814C 365.182 314.025 365.828 313.07 365.772 312.69C 365.716 312.311 365.925 312 366.235 312C 366.546 312 366.8 311.719 366.8 311.376C 366.8 311.033 366.978 310.863 367.195 310.997C 367.422 311.137 367.489 310.977 367.354 310.624C 367.215 310.261 367.38 309.906 367.756 309.761C 368.108 309.627 368.296 309.355 368.174 309.158C 368.052 308.961 368.233 308.8 368.576 308.8C 368.919 308.8 369.2 308.564 369.2 308.275C 369.2 307.987 369.569 307.355 370.02 306.87C 370.472 306.386 370.743 305.831 370.623 305.637C 370.503 305.443 370.685 305.176 371.028 305.045C 371.37 304.913 371.539 304.624 371.402 304.403C 371.265 304.181 371.388 303.997 371.676 303.994C 372.057 303.989 372.036 303.882 371.6 303.6C 371.087 303.269 371.102 303.211 371.7 303.206C 372.085 303.203 372.4 302.93 372.4 302.6C 372.4 302.27 372.599 302 372.843 302C 373.086 302 373.182 301.73 373.055 301.4C 372.911 301.023 373.059 300.8 373.455 300.8C 373.887 300.8 374.002 300.583 373.822 300.112C 373.676 299.734 373.684 299.551 373.839 299.706C 374.251 300.117 375.172 298.748 375.187 297.703C 375.194 297.21 375.56 296.582 376 296.307C 376.44 296.032 376.8 295.66 376.8 295.48C 376.8 295.3 376.62 295.264 376.4 295.4C 376.18 295.536 376 295.457 376 295.224C 376 294.991 376.3 294.8 376.667 294.8C 377.033 294.8 377.224 294.691 377.091 294.557C 376.957 294.424 377.197 293.94 377.624 293.482C 378.051 293.024 378.4 292.323 378.4 291.925C 378.4 291.526 378.58 291.2 378.8 291.2C 379.02 291.2 379.2 290.75 379.2 290.2C 379.2 289.65 379.38 289.2 379.6 289.2C 379.82 289.2 380 288.93 380 288.6C 380 288.27 380.191 288 380.424 288C 380.657 288 380.735 287.819 380.598 287.597C 380.461 287.376 380.63 287.087 380.972 286.955C 381.315 286.824 381.506 286.571 381.396 286.394C 381.118 285.944 381.617 284.764 381.989 284.993C 382.157 285.097 382.293 284.871 382.292 284.491C 382.288 283.131 382.405 282.756 382.765 282.978C 382.966 283.102 383.081 282.758 383.021 282.213C 382.955 281.614 383.075 281.323 383.324 281.477C 383.575 281.632 383.636 281.471 383.481 281.066C 383.34 280.7 383.41 280.4 383.636 280.4C 383.862 280.4 383.951 280.244 383.833 280.053C 383.715 279.863 383.962 279.396 384.382 279.016C 384.82 278.62 385.043 278.057 384.905 277.697C 384.733 277.248 384.816 277.162 385.194 277.396C 385.556 277.62 385.628 277.57 385.423 277.237C 385.253 276.961 385.443 276.383 385.861 275.906C 386.324 275.378 386.378 275.193 386.007 275.412C 385.681 275.604 385.822 275.244 386.319 274.612C 386.928 273.838 387.078 273.372 386.778 273.187C 386.484 273.005 386.556 272.826 386.992 272.658C 387.354 272.519 387.539 272.224 387.402 272.003C 387.265 271.781 387.298 271.6 387.476 271.6C 387.654 271.6 387.827 271.126 387.861 270.547C 387.894 269.969 388.092 269.384 388.299 269.248C 388.93 268.834 389.329 266.683 388.716 267.001C 388.432 267.149 388.65 266.878 389.2 266.4C 389.75 265.922 389.975 265.647 389.7 265.789C 389.403 265.942 389.2 265.794 389.2 265.424C 389.2 265.081 389.481 264.8 389.824 264.8C 390.167 264.8 390.344 264.632 390.217 264.428C 390.091 264.223 390.17 263.942 390.393 263.804C 390.617 263.666 390.8 263.373 390.8 263.153C 390.8 262.933 390.62 262.864 390.4 263C 390.18 263.136 390 263.057 390 262.824C 390 262.591 390.281 262.4 390.624 262.4C 390.967 262.4 391.131 262.212 390.989 261.982C 390.847 261.753 390.972 261.274 391.266 260.917C 391.685 260.409 391.693 260.234 391.3 260.102C 391.025 260.009 390.8 259.738 390.8 259.5C 390.8 259.262 390.923 259.19 391.073 259.34C 391.401 259.668 392.4 257.42 392.4 256.354C 392.4 255.939 392.58 255.6 392.8 255.6C 393.02 255.6 393.2 255.071 393.2 254.424C 393.2 253.777 393.38 253.136 393.6 253C 393.82 252.864 394 252.133 394 251.376C 394 250.619 394.192 250 394.427 250C 394.662 250 394.754 249.685 394.632 249.3C 394.51 248.915 394.641 248.15 394.922 247.6C 395.204 247.05 395.48 245.88 395.535 245C 395.59 244.12 395.807 243.34 396.018 243.267C 396.57 243.074 396.488 242.102 395.9 241.865C 395.5 241.704 395.5 241.657 395.9 241.632C 396.175 241.614 396.4 241.251 396.4 240.824C 396.4 240.397 396.581 239.935 396.802 239.799C 397.024 239.662 397.209 238.796 397.215 237.875C 397.231 235.241 397.347 234.444 397.686 234.653C 397.859 234.76 398 233.746 398 232.4C 398 231.054 398.157 230.05 398.35 230.169C 398.542 230.288 398.711 229.353 398.727 228.092C 398.755 225.696 398.85 225.121 399.431 223.8C 400.229 221.988 399.85 177.605 399.037 177.594C 398.75 177.59 398.762 177.485 399.071 177.288C 399.597 176.954 399.588 175.537 399.058 175.15C 398.869 175.013 398.706 173.971 398.694 172.835C 398.683 171.698 398.522 170.675 398.337 170.561C 398.151 170.446 397.997 169.148 397.994 167.676C 397.99 165.801 397.872 165.18 397.6 165.6C 397.367 165.961 397.21 166.01 397.206 165.724C 397.203 165.462 397.399 165.124 397.643 164.974C 397.963 164.776 397.957 164.621 397.623 164.414C 397.368 164.257 397.131 163.739 397.095 163.264C 397.059 162.789 396.888 162.4 396.715 162.4C 396.542 162.4 396.4 162.029 396.4 161.576C 396.4 161.123 396.58 160.864 396.8 161C 397.02 161.136 397.2 161.072 397.2 160.857C 397.2 160.642 397.029 160.407 396.82 160.333C 396.611 160.26 396.396 159.435 396.342 158.5C 396.288 157.565 396.099 156.8 395.922 156.8C 395.745 156.8 395.6 156.249 395.6 155.576C 395.6 154.863 395.433 154.456 395.2 154.6C 394.98 154.736 394.8 154.672 394.8 154.457C 394.8 154.242 395.025 153.962 395.3 153.833C 395.7 153.647 395.7 153.553 395.3 153.367C 395.025 153.238 394.8 152.524 394.8 151.779C 394.8 151.034 394.44 149.783 394 149C 393.56 148.217 393.2 146.851 393.2 145.964C 393.2 144.992 393.041 144.451 392.8 144.6C 392.568 144.743 392.4 144.353 392.4 143.669C 392.4 143.021 392.139 141.989 391.82 141.374C 391.502 140.76 391.332 140.109 391.444 139.929C 391.556 139.748 391.481 139.6 391.278 139.6C 391.076 139.6 390.907 139.195 390.903 138.7C 390.889 136.707 390.829 136.543 390.356 137.2C 390 137.695 389.967 137.669 390.169 137.049C 390.304 136.636 390.242 136.092 390.033 135.839C 389.823 135.587 389.573 134.935 389.478 134.39C 389.085 132.151 388.683 130.8 388.411 130.8C 388.252 130.8 388.105 130.219 388.085 129.508C 388.065 128.797 387.857 128.152 387.624 128.075C 387.391 127.997 387.2 127.52 387.2 127.016C 387.2 126.511 386.936 125.879 386.613 125.611C 386.29 125.343 386.049 125.006 386.077 124.862C 386.106 124.718 385.891 124.06 385.6 123.4C 385.309 122.74 385.1 122.065 385.135 121.9C 385.171 121.735 384.908 121.6 384.551 121.6C 384.038 121.6 384 121.482 384.37 121.036C 384.691 120.65 384.706 120.389 384.419 120.212C 384.189 120.069 384 119.593 384 119.153C 384 118.713 383.82 118.464 383.6 118.6C 383.373 118.74 383.2 118.404 383.2 117.824C 383.2 117.261 383.02 116.8 382.8 116.8C 382.58 116.8 382.4 116.497 382.4 116.126C 382.4 115.755 381.995 115.006 381.5 114.461C 381.005 113.917 380.838 113.609 381.13 113.777C 381.568 114.031 381.569 113.939 381.133 113.242C 380.844 112.779 380.471 112.4 380.304 112.4C 380.137 112.4 380 111.903 380 111.296C 380 110.626 379.686 109.996 379.2 109.693C 378.748 109.41 378.4 108.76 378.4 108.197C 378.4 107.648 378.22 107.2 378 107.2C 377.78 107.2 377.6 106.834 377.6 106.387C 377.6 105.941 377.341 105.476 377.024 105.354C 376.708 105.233 376.337 104.623 376.2 104C 376.063 103.377 375.681 102.763 375.35 102.636C 375.02 102.509 374.861 102.224 374.998 102.003C 375.135 101.781 375.093 101.6 374.904 101.6C 374.715 101.6 374.332 100.967 374.052 100.194C 373.773 99.42 373.364 98.898 373.145 99.034C 372.926 99.169 372.78 99.037 372.821 98.74C 372.964 97.693 372.796 97.156 372.4 97.4C 372.18 97.536 372 97.366 372 97.022C 372 96.149 370.568 93.566 370.256 93.877C 370.115 94.018 370 93.833 370 93.467C 370 93.1 369.809 92.8 369.576 92.8C 369.343 92.8 369.264 92.62 369.4 92.4C 369.536 92.18 369.446 92 369.2 92C 368.954 92 368.864 91.82 369 91.6C 369.136 91.38 369.008 91.2 368.715 91.2C 368.078 91.2 366.547 88.495 366.727 87.688C 366.798 87.368 366.667 87.235 366.427 87.383C 366.192 87.529 366 87.476 366 87.266C 366 87.056 365.478 86.326 364.84 85.642C 364.201 84.959 363.855 84.4 364.07 84.4C 364.285 84.4 363.908 83.934 363.231 83.364C 362.554 82.795 362 82.09 362 81.798C 362 81.507 361.46 80.758 360.8 80.135C 360.14 79.512 359.6 78.766 359.6 78.478C 359.6 78.183 359.398 78.078 359.138 78.238C 358.856 78.412 358.785 78.348 358.955 78.073C 359.108 77.826 358.775 77.226 358.216 76.739C 357.657 76.253 357.2 75.618 357.2 75.328C 357.2 75.038 356.974 74.8 356.698 74.8C 356.421 74.8 355.956 74.26 355.664 73.6C 355.372 72.94 354.833 72.386 354.466 72.368C 354.035 72.348 353.98 72.265 354.31 72.132C 354.646 71.997 354.28 71.401 353.244 70.396C 352.377 69.555 351.756 68.778 351.864 68.67C 351.972 68.561 351.703 68.36 351.267 68.221C 350.53 67.987 349.929 67.146 349.825 66.2C 349.801 65.98 349.484 65.823 349.122 65.85C 348.717 65.881 348.545 65.689 348.674 65.35C 348.802 65.019 348.62 64.8 348.219 64.8C 347.853 64.8 347.665 64.618 347.802 64.397C 347.939 64.175 347.635 63.826 347.126 63.622C 346.617 63.418 346.431 63.239 346.714 63.225C 346.997 63.211 346.553 62.615 345.728 61.9C 344.036 60.433 341.171 57.796 340.665 57.24C 340.48 57.037 339.914 56.416 339.407 55.86C 338.9 55.304 338.586 54.748 338.709 54.624C 338.832 54.501 338.704 54.4 338.424 54.4C 338.144 54.4 337.57 53.961 337.147 53.424C 336.725 52.887 336.024 52.335 335.59 52.197C 335.155 52.059 334.8 51.671 334.8 51.336C 334.8 51 334.44 50.631 334 50.516C 333.56 50.401 333.2 50.177 333.2 50.018C 333.2 49.859 332.727 49.513 332.148 49.249C 331.57 48.986 331.201 48.665 331.329 48.537C 331.687 48.179 330.547 47.204 329.729 47.168C 329.262 47.148 329.19 47.061 329.528 46.926C 329.913 46.772 329.831 46.557 329.227 46.134C 328.772 45.815 328.219 45.665 327.999 45.8C 327.78 45.936 327.6 45.77 327.6 45.431C 327.6 45.092 327.113 44.693 326.518 44.544C 325.322 44.244 323.916 43.002 323.477 41.857C 323.307 41.413 322.955 41.208 322.597 41.346C 322.268 41.472 322 41.376 322 41.134C 322 40.609 319.977 38.801 319.388 38.8C 319.162 38.8 318.724 38.45 318.415 38.021C 318.107 37.593 317.707 37.334 317.527 37.445C 317.347 37.556 317.2 37.469 317.2 37.251C 317.2 37.032 316.837 36.739 316.394 36.598C 315.951 36.457 315.692 36.175 315.818 35.971C 316.025 35.636 315.476 35.43 314.7 35.553C 314.535 35.579 314.4 35.405 314.4 35.167C 314.4 34.928 314.182 34.806 313.915 34.895C 313.648 34.984 313.063 34.674 312.615 34.207C 311.443 32.984 309.37 31.6 308.71 31.6C 308.399 31.6 307.753 31.15 307.275 30.6C 306.797 30.05 306.087 29.6 305.699 29.6C 305.31 29.6 304.781 29.262 304.523 28.849C 304.043 28.08 300.464 26.133 299.87 26.317C 299.689 26.374 299.655 26.235 299.794 26.01C 299.933 25.784 299.767 25.6 299.424 25.6C 299.081 25.6 298.8 25.459 298.8 25.287C 298.8 25.115 298.305 24.934 297.7 24.884C 297.095 24.834 296.54 24.615 296.467 24.397C 296.393 24.178 295.988 24 295.567 24C 295.145 24 294.845 23.798 294.9 23.552C 295.015 23.037 292.919 21.673 291.946 21.629C 290.862 21.581 289.072 20.514 289.672 20.274C 289.962 20.158 289.649 20.049 288.975 20.032C 288.302 20.014 287.378 19.653 286.923 19.228C 286.467 18.804 285.758 18.399 285.347 18.328C 284.936 18.258 284.51 18.11 284.4 18C 284.112 17.712 281.074 16.241 280.6 16.16C 280.38 16.123 279.964 16.072 279.676 16.046C 279.387 16.021 279.28 15.794 279.438 15.538C 279.619 15.246 279.548 15.185 279.244 15.373C 278.981 15.536 278.482 15.434 278.136 15.147C 277.39 14.527 274.89 13.541 273.9 13.475C 273.515 13.449 273.2 13.277 273.2 13.091C 273.2 12.905 273.035 12.855 272.832 12.98C 272.63 13.105 272.18 12.923 271.832 12.575C 271.46 12.203 271.2 12.131 271.2 12.4C 271.2 12.661 270.918 12.575 270.542 12.199C 270.063 11.72 269.805 11.669 269.593 12.011C 269.394 12.333 269.097 12.189 268.651 11.552C 268.293 11.04 268 10.757 268 10.921C 268 11.086 267.469 10.946 266.82 10.61C 265.427 9.89 265.055 9.842 265.418 10.43C 265.718 10.915 263.937 9.988 263.55 9.457C 263.413 9.269 263.165 9.333 263 9.6C 262.791 9.938 262.619 9.954 262.433 9.653C 262.286 9.415 261.813 9.165 261.383 9.099C 260.952 9.032 260.42 8.875 260.2 8.75C 259.98 8.625 258.94 8.291 257.89 8.007C 256.839 7.723 255.883 7.335 255.766 7.145C 255.649 6.955 254.854 6.8 254 6.8C 253.146 6.8 252.351 6.644 252.233 6.454C 252.116 6.264 251.321 6.014 250.466 5.9C 249.612 5.785 248.303 5.416 247.557 5.079C 246.237 4.484 245.073 4.217 241.822 3.764C 240.954 3.643 239.897 3.359 239.473 3.132C 238.923 2.838 238.781 2.846 238.975 3.16C 239.13 3.411 238.969 3.6 238.6 3.6C 238.244 3.6 238.064 3.42 238.2 3.2C 238.349 2.958 237.804 2.8 236.824 2.8C 235.931 2.8 235.2 2.665 235.199 2.5C 235.199 2.335 234.09 2.164 232.735 2.12C 231.38 2.076 230.165 1.877 230.036 1.679C 229.906 1.481 228.732 1.286 227.426 1.247C 226.12 1.207 224.833 0.993 224.565 0.771C 224.228 0.491 224.014 0.526 223.87 0.883C 223.712 1.279 223.656 1.283 223.632 0.9C 223.614 0.625 223.409 0.4 223.176 0.4C 222.943 0.4 222.864 0.579 222.999 0.799C 223.162 1.062 222.9 1.066 222.227 0.81C 221.667 0.597 216.436 0.303 210.604 0.157L210.604 0.157L200 -0.108L200 200.001zM249.888 117.54C 252.244 118.056 254.971 119.747 256.286 121.509C 256.899 122.329 257.535 123.06 257.7 123.133C 257.865 123.207 258 123.601 258 124.01C 258 124.418 258.16 124.852 258.356 124.973C 259.233 125.515 259.336 131.876 259.467 193.3L259.467 193.3L259.605 258.4L278.179 258.4C 290.13 258.4 296.841 258.543 297 258.8C 297.136 259.02 297.591 259.2 298.011 259.2C 299.164 259.2 301.598 260.698 303.111 262.339C 309.66 269.438 306.031 280.087 296.154 282.755C 293.859 283.375 247.341 283.375 245.046 282.755C 242.344 282.025 239.971 280.708 238.316 279.019C 236.869 277.543 236.49 276.907 235.256 273.881C 234.652 272.4 234.597 126.973 235.2 126.6C 235.42 126.464 235.6 126.031 235.6 125.638C 235.6 121.913 243.666 116.128 247.6 117.032C 247.93 117.108 248.959 117.337 249.888 117.54M136.6 117.569C 135.236 117.703 137.048 117.803 140.8 117.802C 144.839 117.801 146.546 117.699 145.2 117.54C 142.619 117.234 139.931 117.243 136.6 117.569M131.4 118.4L130.6 118.744L131.4 118.732C 131.84 118.726 132.65 118.576 133.2 118.4L133.2 118.4L134.2 118.08L133.2 118.068C 132.65 118.062 131.84 118.211 131.4 118.4M149.2 118.4C 149.75 118.576 150.56 118.72 151 118.72C 151.633 118.72 151.592 118.654 150.8 118.4C 150.25 118.224 149.44 118.08 149 118.08C 148.367 118.08 148.408 118.146 149.2 118.4M128.2 119.192C 127.54 119.363 126.55 119.71 126 119.963L126 119.963L125 120.423L126 120.184C 128.684 119.545 129.683 119.25 129.898 119.035C 130.185 118.748 129.768 118.787 128.2 119.192M154.4 119.59C 155.61 120.023 156.78 120.375 157 120.373C 157.724 120.365 154.954 119.296 153.562 119.047C 152.683 118.889 152.98 119.082 154.4 119.59M122.5 121.189C 121.565 121.614 120.8 122.05 120.8 122.158C 120.8 122.34 124.39 120.883 124.767 120.548C 125.199 120.164 124.033 120.493 122.5 121.189M160.35 121.782C 161.972 122.56 163.952 123.573 164.75 124.032C 165.621 124.535 165.881 124.603 165.4 124.202C 164.402 123.37 159.743 120.997 158.4 120.637C 157.85 120.489 158.727 121.005 160.35 121.782M118.1 123.426C 115.771 124.822 115.942 125.096 118.3 123.746C 120.572 122.445 120.635 122.399 120.167 122.404C 119.965 122.406 119.035 122.866 118.1 123.426M114.629 125.409C 114.205 125.729 113.938 126.071 114.035 126.169C 114.132 126.266 114.659 126.002 115.206 125.582C 115.753 125.161 116.02 124.82 115.8 124.822C 115.58 124.824 115.053 125.088 114.629 125.409M112.2 127.304C 110.655 128.435 109.866 129.2 110.053 129.386C 110.134 129.468 111.011 128.834 112 127.979C 113.978 126.27 114.079 125.928 112.2 127.304M170.4 127.843C 171.39 128.683 173.63 130.817 175.378 132.585C 177.126 134.353 178.122 135.26 177.592 134.6C 176.055 132.687 171.388 128.183 169.933 127.208C 169.07 126.63 169.234 126.854 170.4 127.843M106.949 132.1C 104.622 134.546 102.243 137.6 102.666 137.6C 102.865 137.6 103.326 137.105 103.691 136.5C 104.328 135.445 105.091 134.54 107.743 131.7C 108.411 130.985 108.869 130.4 108.762 130.4C 108.654 130.4 107.839 131.165 106.949 132.1M179.697 137.8C 180.455 138.9 181.496 140.563 182.009 141.496C 182.522 142.428 183.008 143.126 183.088 143.045C 183.324 142.809 180.45 138.095 179.34 136.9C 178.628 136.133 178.736 136.406 179.697 137.8M101.508 138.9C 101.187 139.395 100.707 140.25 100.44 140.8C 99.76 142.203 100.994 140.706 101.841 139.1C 102.539 137.774 102.323 137.644 101.508 138.9M139.7 141.491C 140.525 141.578 141.875 141.578 142.7 141.491C 143.525 141.405 142.85 141.334 141.2 141.334C 139.55 141.334 138.875 141.405 139.7 141.491M135 142L134.2 142.344L135 142.366C 135.44 142.378 136.07 142.213 136.4 142C 137.195 141.486 136.196 141.486 135 142M146 142C 146.33 142.213 146.96 142.378 147.4 142.366L147.4 142.366L148.2 142.344L147.4 142C 146.204 141.486 145.205 141.486 146 142M128.06 145.203C 127.147 145.864 126.4 146.503 126.4 146.623C 126.4 146.811 128.654 145.277 129.78 144.322C 130.727 143.519 129.556 144.118 128.06 145.203M152.4 144.124C 152.4 144.217 153.165 144.799 154.1 145.418C 155.035 146.036 156.493 147.241 157.341 148.097C 158.188 148.952 158.96 149.574 159.055 149.479C 159.303 149.23 155.148 145.534 153.658 144.677C 152.966 144.28 152.4 144.031 152.4 144.124M124.193 148.407C 123.337 149.283 122.767 150 122.926 150C 123.297 150 126.078 147.145 125.89 146.957C 125.812 146.879 125.048 147.531 124.193 148.407M160.713 152.349C 161.531 153.642 162.272 154.634 162.361 154.555C 162.541 154.394 159.694 150 159.409 150C 159.308 150 159.895 151.057 160.713 152.349M186.012 150.8C 186.012 151.13 186.187 151.67 186.4 152C 186.745 152.533 186.788 152.533 186.788 152C 186.788 151.67 186.613 151.13 186.4 150.8C 186.055 150.267 186.012 150.267 186.012 150.8M95.473 152.153C 95.323 152.545 95.211 153.166 95.225 153.533C 95.242 153.975 95.381 153.874 95.637 153.234C 95.849 152.703 95.961 152.082 95.885 151.854C 95.809 151.627 95.624 151.761 95.473 152.153M120.181 154.037C 119.829 154.718 119.612 155.345 119.699 155.432C 119.786 155.519 120.156 154.962 120.522 154.195C 121.344 152.47 121.059 152.338 120.181 154.037M186.834 153.6C 186.846 153.93 187.011 154.56 187.2 155L187.2 155L187.544 155.8L187.566 155C 187.578 154.56 187.413 153.93 187.2 153.6C 186.855 153.067 186.815 153.067 186.834 153.6M94.649 155.415C 94.512 155.773 94.418 156.546 94.44 157.133C 94.473 157.991 94.552 157.895 94.846 156.64C 95.222 155.039 95.095 154.253 94.649 155.415M187.857 159.4C 187.991 160.72 188.168 161.875 188.25 161.967C 188.569 162.321 188.324 158.556 187.979 157.8C 187.738 157.272 187.696 157.816 187.857 159.4M118.249 159.015C 118.112 159.373 118.016 160.056 118.036 160.533C 118.062 161.147 118.185 161.008 118.459 160.056C 118.857 158.672 118.694 157.858 118.249 159.015M93.85 161.25C 93.518 162.908 93.605 237.935 93.94 239.124C 94.083 239.632 94.2 222.037 94.2 200.024C 94.2 178.011 94.178 160 94.15 160C 94.123 160 93.988 160.563 93.85 161.25M164.308 168C 164.376 172.51 164.488 176.65 164.556 177.2C 164.624 177.75 164.686 174.6 164.693 170.2C 164.7 165.8 164.588 161.66 164.444 161C 164.301 160.34 164.239 163.49 164.308 168M117.792 200C 117.792 220.57 117.84 228.985 117.9 218.7C 117.959 208.415 117.959 191.585 117.9 181.3C 117.84 171.015 117.792 179.43 117.792 200M188.054 178.067C 188.025 178.434 187.884 179.064 187.741 179.467C 187.541 180.033 187.595 180.096 187.975 179.746C 188.246 179.497 188.387 178.867 188.288 178.346C 188.19 177.826 188.084 177.7 188.054 178.067M164.8 179.553C 164.8 180.096 165.925 182.4 166.19 182.4C 166.361 182.4 165.249 179.54 164.958 179.233C 164.871 179.142 164.8 179.286 164.8 179.553M186.126 182.942C 185.45 183.901 184.201 185.196 183.349 185.82C 181.102 187.468 180.834 187.775 182.281 187.045C 183.803 186.278 186.251 183.842 187.05 182.3C 187.875 180.708 187.532 180.947 186.126 182.942M166.728 183.4C 167.129 184.204 168.469 185.511 169.619 186.219C 169.959 186.429 169.779 186.2 169.219 185.712C 168.659 185.223 167.779 184.323 167.264 183.712C 166.711 183.054 166.492 182.927 166.728 183.4M173.2 187.982C 173.53 188.205 174.145 188.391 174.567 188.394C 175.59 188.402 175.271 188.173 173.8 187.844C 172.924 187.648 172.762 187.685 173.2 187.982M178.4 188L177.4 188.32L178.476 188.36C 179.068 188.382 179.664 188.22 179.8 188C 180.081 187.545 179.82 187.545 178.4 188M173.338 211.906C 173.083 212.068 174.461 212.2 176.399 212.2C 178.337 212.2 179.839 212.065 179.738 211.9C 179.5 211.514 173.947 211.519 173.338 211.906M169.44 213.902C 168.361 214.726 167.191 215.846 166.84 216.391C 166.478 216.951 166.931 216.656 167.879 215.713C 168.802 214.794 170.107 213.758 170.779 213.411C 171.957 212.802 172.326 212.398 171.7 212.402C 171.535 212.403 170.518 213.078 169.44 213.902M183.766 214.476C 184.618 215.178 185.829 216.563 186.457 217.555C 187.086 218.546 187.599 219.186 187.599 218.978C 187.594 217.852 183.586 213.2 182.621 213.2C 182.399 213.2 182.914 213.774 183.766 214.476M165.356 219.043C 165.024 219.837 164.826 220.559 164.914 220.648C 165.003 220.736 165.359 220.087 165.705 219.204C 166.489 217.209 166.182 217.068 165.356 219.043M187.84 221.066C 188.208 222.599 188.4 222.744 188.4 221.49C 188.4 220.917 188.213 220.332 187.984 220.19C 187.711 220.021 187.662 220.323 187.84 221.066M164.486 229.4C 164.434 233.58 164.306 237.72 164.202 238.6L164.202 238.6L164.012 240.2L164.415 238.63C 164.638 237.756 164.765 233.671 164.699 229.43L164.699 229.43L164.582 221.8L164.486 229.4zM188.07 239.05C 188.031 239.738 187.905 240.907 187.789 241.65C 187.596 242.886 187.615 242.917 188.008 242.014C 188.244 241.472 188.371 240.302 188.289 239.414C 188.168 238.102 188.127 238.033 188.07 239.05M118.046 239.6C 118.027 240.15 118.187 240.87 118.4 241.2C 118.894 241.964 118.894 241.142 118.4 239.6L118.4 239.6L118.08 238.6L118.046 239.6zM94.406 243.033C 94.409 243.675 94.596 244.47 94.821 244.8C 95.114 245.23 95.154 244.946 94.962 243.8C 94.63 241.816 94.398 241.496 94.406 243.033M119.6 244.553C 119.6 244.982 120.79 247.2 121.021 247.2C 121.131 247.2 120.923 246.615 120.559 245.9C 119.817 244.44 119.6 244.136 119.6 244.553M187 245.6C 186.848 246.291 186.814 246.947 186.924 247.057C 187.034 247.167 187.248 246.691 187.4 246C 187.552 245.309 187.586 244.653 187.476 244.543C 187.366 244.433 187.152 244.909 187 245.6M160.434 248.148C 158.638 250.904 156.729 252.842 154.083 254.593C 152.087 255.914 151.861 256.345 153.7 255.323C 155.575 254.281 160.441 249.291 161.526 247.3C 162.886 244.802 162.335 245.229 160.434 248.148M95.234 246.6C 95.222 247.04 95.387 247.67 95.6 248C 96.114 248.795 96.114 247.796 95.6 246.6L95.6 246.6L95.256 245.8L95.234 246.6zM186.229 248.629C 186.081 249.215 186.038 249.772 186.132 249.866C 186.227 249.96 186.424 249.558 186.571 248.971C 186.719 248.385 186.762 247.828 186.668 247.734C 186.573 247.64 186.376 248.042 186.229 248.629M124.2 251.552C 126.345 253.866 132.318 257.885 131.397 256.395C 131.263 256.178 130.971 256 130.748 256C 130.141 256 126.861 253.669 124.6 251.63L124.6 251.63L122.6 249.827L124.2 251.552zM134.8 258C 136.168 258.438 137.219 258.438 136.2 258C 135.76 257.811 135.04 257.662 134.6 257.668C 133.957 257.677 133.996 257.743 134.8 258M146 258C 145.236 258.494 146.058 258.494 147.6 258L147.6 258L148.6 257.68L147.6 257.646C 147.05 257.627 146.33 257.787 146 258M100.6 259.6C 100.941 260.26 101.311 260.8 101.421 260.8C 101.531 260.8 101.341 260.26 101 259.6C 100.659 258.94 100.289 258.4 100.179 258.4C 100.069 258.4 100.259 258.94 100.6 259.6M139.5 258.693C 140.435 258.777 141.965 258.777 142.9 258.693C 143.835 258.609 143.07 258.54 141.2 258.54C 139.33 258.54 138.565 258.609 139.5 258.693M180.338 261.2C 179.32 262.74 178.603 263.998 178.744 263.995C 178.997 263.99 180.224 262.215 181.71 259.7C 183.055 257.425 182.256 258.3 180.338 261.2M103.468 263.9C 104.077 264.725 105.915 266.75 107.55 268.4L107.55 268.4L110.525 271.4L107.47 268.075C 105.791 266.247 104.104 264.222 103.722 263.575C 103.34 262.929 102.877 262.4 102.693 262.4C 102.51 262.4 102.858 263.075 103.468 263.9M172.8 270.069C 170.951 271.816 170.567 272.284 171.8 271.289C 173.713 269.745 176.342 267.181 175.975 267.217C 175.879 267.227 174.45 268.51 172.8 270.069M110.8 271.5C 110.8 271.669 111.16 272.032 111.6 272.307C 112.04 272.582 112.4 272.669 112.4 272.5C 112.4 272.331 112.04 271.968 111.6 271.693C 111.16 271.418 110.8 271.331 110.8 271.5M114 273.885C 114 274.234 115.599 275.338 115.8 275.128C 115.867 275.057 115.489 274.677 114.961 274.281C 114.432 273.886 114 273.708 114 273.885M167.194 274.418C 166.647 274.839 166.38 275.18 166.6 275.178C 167.129 275.173 168.591 274.058 168.365 273.831C 168.268 273.734 167.741 273.998 167.194 274.418M117.782 276.371C 118.148 276.963 123.229 279.259 123.726 279.056C 124.067 278.917 124.057 278.854 123.689 278.832C 123.408 278.814 121.916 278.176 120.374 277.414C 118.832 276.652 117.666 276.183 117.782 276.371M163.4 276.692C 162.74 277.054 160.85 277.945 159.2 278.671C 156.204 279.988 155.752 280.444 158.4 279.477C 160.161 278.833 164.8 276.454 164.8 276.194C 164.8 275.929 164.764 275.942 163.4 276.692M153.6 280.587C 152.61 280.879 151.107 281.239 150.259 281.385C 149.412 281.532 148.819 281.753 148.943 281.876C 149.224 282.157 155.263 280.799 155.78 280.339C 156.291 279.883 155.793 279.94 153.6 280.587M128 280.8C 129.368 281.238 130.419 281.238 129.4 280.8C 128.96 280.611 128.24 280.462 127.8 280.468C 127.157 280.477 127.196 280.543 128 280.8M131.2 281.6C 131.75 281.776 132.56 281.92 133 281.92C 133.633 281.92 133.592 281.854 132.8 281.6C 132.25 281.424 131.44 281.28 131 281.28C 130.367 281.28 130.408 281.346 131.2 281.6M136.4 282.394C 139.18 282.728 144.243 282.899 143.967 282.649C 143.875 282.566 141.55 282.405 138.8 282.29C 135.404 282.148 134.634 282.181 136.4 282.394M145.3 282.287C 145.905 282.378 146.895 282.378 147.5 282.287C 148.105 282.195 147.61 282.12 146.4 282.12C 145.19 282.12 144.695 282.195 145.3 282.287" stroke="none" fill="#ECECF4" fill-rule="nonzero" />
	<g>
	</g>
    <path d="M245.9 117.889C 246.615 117.978 247.785 117.978 248.5 117.889C 249.215 117.801 248.63 117.728 247.2 117.728C 245.77 117.728 245.185 117.801 245.9 117.889M134.4 118.44C 125.745 120.144 121.566 121.806 115 126.156C 105.504 132.448 98.947 141.954 95.678 154.17L95.678 154.17L94.6 158.2L94.6 199.8L94.6 241.4L95.523 245.2C 106.092 288.706 163.642 295.435 183.283 255.46C 188.45 244.942 189.942 223.181 185.906 217.192C 181.976 211.359 173.533 210.493 168.609 215.418C 165.632 218.394 165.453 219.127 165.146 229.6C 164.772 242.352 163.59 246.308 158.636 251.391C 144.362 266.036 121.047 258.765 117.62 238.6C 116.774 233.621 117.214 161.657 118.108 158.668C 123.581 140.387 145.376 134.889 158.461 148.49C 163.579 153.81 164.778 157.745 165.137 170.4L165.137 170.4L165.404 179.8L166.594 181.952C 171.097 190.096 182.528 189.714 186.841 181.277C 188.489 178.053 188.253 160.151 186.474 153.4C 185.221 148.647 181.384 140.019 179.713 138.2C 179.309 137.76 178.544 136.77 178.013 136C 169.686 123.917 148.961 115.573 134.4 118.44M242.8 118.4C 242.267 118.745 242.267 118.788 242.8 118.788C 243.13 118.788 243.67 118.613 244 118.4C 244.533 118.055 244.533 118.012 244 118.012C 243.67 118.012 243.13 118.187 242.8 118.4M251.6 118.851C 254.003 119.911 256.285 122.156 257.444 124.6L257.444 124.6L258.392 126.6L258.396 192.42C 258.399 243.076 258.511 258.351 258.88 258.72C 259.239 259.079 263.954 259.2 277.634 259.2C 300.42 259.2 301.238 259.398 304.373 265.672C 305.048 267.023 305.6 267.846 305.6 267.502C 305.6 265.518 302.611 261.849 299.489 260L299.489 260L297.8 259L279.2 258.899C 268.97 258.844 260.195 258.705 259.7 258.591L259.7 258.591L258.8 258.385L258.77 192.492C 258.737 121.456 258.868 125.563 256.523 122.248C 255.275 120.482 251.642 117.981 250.4 118.032C 250.07 118.045 250.61 118.414 251.6 118.851M239.449 120.441C 238.423 121.343 237.382 122.468 237.135 122.941C 236.888 123.413 237.477 122.981 238.443 121.981C 239.409 120.981 240.65 119.865 241.2 119.502C 241.75 119.139 242 118.833 241.756 118.821C 241.512 118.809 240.474 119.538 239.449 120.441M235.911 125.045C 235.334 126.349 234.928 271.994 235.497 273.533C 235.664 273.983 235.8 241.018 235.8 200.276C 235.8 139.345 235.894 126.034 236.332 125.266C 236.625 124.752 236.765 124.232 236.644 124.11C 236.522 123.989 236.192 124.409 235.911 125.045M305.675 270.6C 305.67 272.422 305.746 272.743 305.991 271.934C 306.168 271.347 306.171 270.267 305.997 269.534C 305.729 268.4 305.681 268.56 305.675 270.6M305.246 273.467C 305.221 273.724 305.084 274.264 304.941 274.667C 304.74 275.236 304.794 275.297 305.179 274.942C 305.452 274.691 305.589 274.151 305.484 273.742C 305.379 273.334 305.272 273.21 305.246 273.467M237.114 277.029C 238.15 278.987 242.167 282.02 243.684 281.99C 243.968 281.984 243.3 281.53 242.2 280.98C 241.1 280.431 239.407 279.13 238.437 278.09C 237.468 277.051 236.872 276.573 237.114 277.029M302.378 278.65C 301.62 279.448 300.1 280.518 299 281.027C 297.9 281.537 297.27 281.963 297.6 281.973C 298.635 282.006 302.289 279.68 303.191 278.413C 304.339 276.8 304.059 276.882 302.378 278.65M245.8 282.423C 247.887 282.855 293.313 282.855 295.4 282.423C 296.306 282.236 285.55 282.092 270.6 282.092C 255.65 282.092 244.894 282.236 245.8 282.423" stroke="none" fill="#DCDCEC" fill-rule="nonzero" />
	<g>
	</g>
    <path d="M181.543 0.19C 181.439 0.294 179.924 0.405 178.177 0.435C 176.43 0.465 174.805 0.647 174.567 0.839C 174.328 1.031 172.929 1.214 171.458 1.245C 169.987 1.277 168.686 1.46 168.568 1.652C 168.45 1.843 167.384 2 166.2 2C 165.016 2 163.936 2.18 163.8 2.4C 163.664 2.62 162.944 2.8 162.2 2.8C 161.456 2.8 160.736 2.98 160.6 3.2C 160.464 3.42 159.373 3.6 158.176 3.6C 156.979 3.6 156 3.78 156 4C 156 4.22 155.28 4.4 154.4 4.4C 153.52 4.4 152.8 4.58 152.8 4.8C 152.8 5.02 152.08 5.2 151.2 5.2C 150.32 5.2 149.6 5.38 149.6 5.6C 149.6 5.82 148.88 6 148 6C 147.12 6 146.4 6.18 146.4 6.4C 146.4 6.62 145.77 6.8 145 6.8C 144.23 6.8 143.6 6.98 143.6 7.2C 143.6 7.42 143.049 7.6 142.376 7.6C 141.703 7.6 141.25 7.757 141.369 7.949C 141.487 8.141 140.508 8.42 139.192 8.569C 137.876 8.718 136.8 9.011 136.8 9.22C 136.8 9.429 136.26 9.6 135.6 9.6C 134.94 9.6 134.4 9.78 134.4 10C 134.4 10.22 133.882 10.4 133.249 10.4C 132.616 10.4 131.872 10.672 131.596 11.005C 131.319 11.338 130.887 11.563 130.634 11.505C 130.213 11.409 127.583 12.374 125.905 13.241C 125.523 13.438 124.938 13.6 124.605 13.6C 124.272 13.6 124 13.78 124 14C 124 14.22 123.64 14.4 123.2 14.4C 122.76 14.4 122.4 14.58 122.4 14.8C 122.4 15.02 122.265 15.179 122.1 15.153C 121.011 14.981 120 15.286 120 15.787C 120 16.13 119.764 16.284 119.432 16.157C 119.12 16.037 118.4 16.244 117.832 16.616C 117.265 16.988 116.8 17.15 116.8 16.976C 116.8 16.803 116.321 17.097 115.735 17.63C 115.15 18.164 114.801 18.375 114.959 18.1C 115.463 17.226 114.616 17.563 114.056 18.459C 113.623 19.152 113.452 19.21 113.166 18.759C 112.913 18.36 112.81 18.343 112.806 18.7C 112.803 18.975 112.44 19.2 112 19.2C 111.56 19.2 111.2 19.368 111.2 19.574C 111.2 19.78 110.57 20.176 109.8 20.454C 109.03 20.733 108.4 21.105 108.4 21.28C 108.4 21.456 108.029 21.6 107.576 21.6C 107.123 21.6 106.864 21.78 107 22C 107.141 22.228 106.796 22.4 106.2 22.4C 105.604 22.4 105.259 22.572 105.4 22.8C 105.54 23.027 105.204 23.2 104.624 23.2C 104.061 23.2 103.6 23.358 103.6 23.55C 103.6 23.743 102.537 24.417 101.237 25.048C 99.937 25.679 98.975 26.36 99.099 26.56C 99.222 26.76 99.132 26.805 98.898 26.661C 98.271 26.273 97.2 26.793 97.2 27.486C 97.2 27.849 96.968 27.997 96.613 27.86C 96.29 27.736 95.902 27.835 95.751 28.079C 95.573 28.367 95.661 28.41 96 28.2C 96.339 27.99 96.427 28.033 96.249 28.321C 96.098 28.565 95.705 28.662 95.375 28.535C 95.037 28.405 94.456 28.674 94.041 29.153C 93.637 29.619 93.056 30 92.749 30C 92.443 30 91.968 30.36 91.693 30.8C 91.418 31.24 90.854 31.6 90.439 31.6C 90.025 31.6 89.582 31.87 89.455 32.2C 89.329 32.53 88.968 32.8 88.655 32.8C 88.341 32.8 87.507 33.339 86.802 33.998C 86.096 34.658 85.329 35.08 85.098 34.937C 84.851 34.784 84.795 34.868 84.962 35.138C 85.131 35.412 84.993 35.6 84.624 35.6C 84.281 35.6 84 35.78 84 36C 84 36.22 83.717 36.4 83.371 36.4C 82.733 36.4 81.269 37.587 81.871 37.616C 82.052 37.625 81.66 37.933 81 38.3C 80.34 38.667 79.665 38.93 79.5 38.884C 79.335 38.838 79.2 39.081 79.2 39.424C 79.2 39.767 79.053 39.956 78.873 39.845C 78.693 39.734 78.293 39.993 77.985 40.421C 77.676 40.85 77.187 41.2 76.899 41.2C 76.611 41.2 76.271 41.47 76.145 41.8C 76.018 42.13 75.729 42.4 75.503 42.4C 75.277 42.4 74.711 42.811 74.246 43.313C 73.781 43.815 73.22 44.273 73 44.332C 72.215 44.54 70.851 45.76 71.048 46.077C 71.157 46.255 70.967 46.4 70.624 46.4C 70.281 46.4 70 46.538 70 46.706C 70 46.874 69.278 47.458 68.395 48.003C 67.512 48.549 66.874 49.216 66.977 49.485C 67.081 49.754 66.993 50.081 66.783 50.211C 66.572 50.341 66.4 50.249 66.4 50.008C 66.4 49.725 66.201 49.752 65.842 50.084C 65.535 50.368 65.366 50.735 65.466 50.9C 65.565 51.065 65.367 51.2 65.024 51.2C 64.653 51.2 64.387 51.565 64.368 52.1C 64.351 52.595 64.251 52.791 64.147 52.536C 64.024 52.234 63.641 52.374 63.053 52.936C 62.555 53.411 62.216 53.935 62.298 54.1C 62.38 54.265 62.156 54.4 61.8 54.4C 61.444 54.4 61.264 54.58 61.4 54.8C 61.536 55.02 61.439 55.2 61.184 55.2C 60.929 55.2 60.199 55.785 59.562 56.5C 58.135 58.1 58.1 58.135 56.5 59.562C 55.785 60.199 55.2 60.929 55.2 61.184C 55.2 61.439 55.02 61.536 54.8 61.4C 54.58 61.264 54.4 61.444 54.4 61.8C 54.4 62.156 54.22 62.336 54 62.2C 53.78 62.064 53.6 62.233 53.6 62.576C 53.6 62.919 53.448 63.2 53.261 63.2C 52.74 63.2 51.375 64.517 51.085 65.3C 50.942 65.685 50.627 66 50.384 66C 49.841 66 49.259 66.587 48.006 68.4C 47.473 69.17 46.718 70.088 46.326 70.441C 45.935 70.793 45.731 71.198 45.874 71.341C 46.017 71.483 45.853 71.6 45.509 71.6C 44.965 71.6 44.479 72.186 44.513 72.8C 44.519 72.91 43.776 73.802 42.862 74.782C 41.948 75.763 41.2 76.725 41.2 76.922C 41.2 77.118 40.705 77.756 40.1 78.34C 39.495 78.923 38.745 79.895 38.432 80.5C 38.12 81.105 37.705 81.6 37.509 81.6C 37.313 81.6 37.264 81.78 37.4 82C 37.536 82.22 37.367 82.4 37.024 82.4C 36.681 82.4 36.4 82.72 36.4 83.112C 36.4 83.503 36.04 84.083 35.6 84.4C 35.16 84.717 34.8 85.215 34.8 85.506C 34.8 85.798 34.35 86.486 33.8 87.036C 33.25 87.586 32.8 88.304 32.8 88.631C 32.8 88.958 32.53 89.329 32.2 89.455C 31.87 89.582 31.6 89.902 31.6 90.167C 31.6 90.432 31.284 90.998 30.897 91.425C 30.511 91.851 29.974 92.695 29.706 93.3C 29.437 93.905 29.023 94.4 28.785 94.4C 28.547 94.4 28.476 94.6 28.628 94.845C 28.779 95.089 28.656 95.442 28.355 95.628C 28.053 95.814 27.805 96.242 27.803 96.579C 27.802 96.916 27.65 97.148 27.468 97.096C 27.051 96.976 26.003 98.882 26.259 99.295C 26.362 99.463 26.246 99.6 26 99.6C 25.754 99.6 25.664 99.78 25.8 100C 25.936 100.22 25.899 100.4 25.718 100.4C 25.393 100.4 24.679 101.552 24.171 102.9C 24.026 103.285 23.748 103.6 23.553 103.6C 23.359 103.6 23.2 104.061 23.2 104.624C 23.2 105.204 23.027 105.54 22.8 105.4C 22.58 105.264 22.4 105.398 22.4 105.697C 22.4 106.451 21.465 108.393 21.1 108.397C 20.935 108.399 20.8 108.67 20.8 109C 20.8 109.33 20.601 109.6 20.357 109.6C 20.114 109.6 20.021 109.877 20.15 110.215C 20.285 110.565 20.131 110.928 19.796 111.057C 19.471 111.182 19.295 111.43 19.406 111.61C 19.517 111.789 19.336 112.207 19.004 112.539C 18.672 112.871 18.4 113.526 18.4 113.995C 18.4 114.464 18.22 114.736 18 114.6C 17.78 114.464 17.6 114.636 17.6 114.982C 17.6 115.328 17.392 116.013 17.138 116.505C 16.167 118.382 16 118.807 16 119.395C 16 119.728 15.82 120 15.6 120C 15.38 120 15.221 120.135 15.247 120.3C 15.39 121.204 15.148 122.015 14.8 121.8C 14.574 121.66 14.4 121.988 14.4 122.553C 14.4 123.103 14.22 123.664 14 123.8C 13.78 123.936 13.6 124.497 13.6 125.047C 13.6 125.612 13.426 125.94 13.2 125.8C 12.973 125.66 12.8 125.996 12.8 126.576C 12.8 127.139 12.62 127.6 12.4 127.6C 12.18 127.6 12 127.949 12 128.376C 12 128.803 11.82 129.264 11.6 129.4C 11.38 129.536 11.2 130.076 11.2 130.6C 11.2 131.124 11.02 131.664 10.8 131.8C 10.58 131.936 10.4 132.476 10.4 133C 10.4 133.524 10.242 134.05 10.05 134.169C 9.857 134.288 9.7 134.876 9.7 135.476C 9.7 136.076 9.505 136.632 9.267 136.711C 9.028 136.791 8.713 137.92 8.566 139.22C 8.419 140.52 8.141 141.487 7.949 141.369C 7.757 141.25 7.6 141.703 7.6 142.376C 7.6 143.049 7.42 143.6 7.2 143.6C 6.98 143.6 6.8 143.791 6.8 144.024C 6.8 144.257 7.025 144.32 7.3 144.165C 7.7 143.939 7.7 143.99 7.3 144.421C 7.025 144.718 6.8 145.284 6.8 145.68C 6.8 146.076 6.575 146.403 6.3 146.406C 5.932 146.411 5.943 146.503 6.343 146.756C 6.721 146.996 6.751 147.183 6.443 147.374C 6.199 147.524 6 148.087 6 148.624C 6 149.161 5.838 149.6 5.64 149.6C 5.442 149.6 5.181 150.365 5.059 151.3C 4.647 154.458 4.314 156 4.043 156C 3.895 156 3.733 156.945 3.683 158.1C 3.633 159.255 3.414 160.26 3.196 160.333C 2.978 160.407 2.8 161.161 2.8 162.01C 2.8 162.858 2.62 163.664 2.4 163.8C 2.18 163.936 2 165.016 2 166.2C 2 167.384 1.843 168.45 1.652 168.568C 1.46 168.686 1.277 169.987 1.245 171.458C 1.214 172.929 0.965 174.401 0.694 174.728C 0.1 175.443 -0.03 221.692 0.555 224C 0.75 224.77 0.989 226.66 1.086 228.2C 1.183 229.74 1.428 231.171 1.631 231.38C 1.834 231.589 2 232.429 2 233.247C 2 234.064 2.225 234.825 2.5 234.936C 2.889 235.094 2.879 235.224 2.457 235.52C 2.078 235.785 2.048 235.982 2.357 236.174C 2.601 236.324 2.8 237.031 2.8 237.744C 2.8 238.457 2.982 239.222 3.206 239.446C 3.429 239.669 3.632 240.785 3.658 241.926C 3.683 243.066 3.841 244 4.008 244C 4.295 244 4.529 245.003 5.058 248.503C 5.182 249.329 5.445 250.105 5.642 250.226C 5.839 250.348 6 250.977 6 251.624C 6 252.295 6.215 252.803 6.5 252.806C 6.833 252.81 6.8 252.942 6.4 253.2C 6 253.458 5.967 253.59 6.3 253.594C 6.604 253.598 6.8 254.15 6.8 255C 6.8 255.77 6.98 256.4 7.2 256.4C 7.42 256.4 7.6 256.94 7.6 257.6C 7.6 258.26 7.759 258.8 7.954 258.8C 8.149 258.8 8.431 259.787 8.582 260.994C 8.733 262.2 9.023 263.291 9.228 263.417C 9.433 263.544 9.6 264.067 9.6 264.581C 9.6 265.094 9.848 265.609 10.151 265.726C 10.499 265.86 10.629 266.313 10.505 266.963C 10.375 267.645 10.511 268.068 10.91 268.221C 11.292 268.367 11.432 268.757 11.293 269.288C 11.172 269.749 11.237 270.024 11.437 269.902C 11.637 269.779 11.841 270.244 11.892 270.936C 11.942 271.628 12.167 272.256 12.392 272.331C 12.616 272.405 12.8 272.932 12.8 273.5C 12.8 274.068 12.923 274.41 13.073 274.26C 13.396 273.937 14.4 276.172 14.4 277.213C 14.4 277.609 14.588 277.996 14.818 278.073C 15.048 278.149 15.266 278.614 15.303 279.106C 15.34 279.598 15.483 280 15.621 280C 15.759 280 16.112 280.765 16.406 281.7C 16.699 282.635 17.088 283.571 17.27 283.78C 17.451 283.989 17.6 284.444 17.6 284.792C 17.6 285.139 17.956 285.68 18.391 285.994C 18.973 286.413 19.052 286.646 18.691 286.876C 18.306 287.121 18.308 287.189 18.7 287.194C 18.975 287.197 19.2 287.56 19.2 288C 19.2 288.44 19.346 288.8 19.525 288.8C 19.704 288.8 20.095 289.423 20.393 290.183C 20.692 290.944 21.173 291.657 21.461 291.768C 21.773 291.888 21.882 292.26 21.73 292.685C 21.588 293.078 21.618 293.268 21.797 293.106C 22.187 292.752 23.2 294.585 23.2 295.646C 23.2 296.061 23.361 296.4 23.557 296.4C 23.754 296.4 24.502 297.653 25.221 299.184C 25.944 300.727 26.707 301.857 26.931 301.719C 27.17 301.571 27.236 301.728 27.093 302.101C 26.951 302.472 27.099 302.829 27.451 302.964C 27.781 303.091 27.939 303.376 27.802 303.597C 27.665 303.819 27.743 304 27.976 304C 28.209 304 28.4 304.36 28.4 304.8C 28.4 305.28 28.667 305.6 29.067 305.6C 29.433 305.6 29.613 305.72 29.466 305.868C 29.319 306.015 29.497 306.465 29.861 306.868C 30.226 307.27 30.366 307.6 30.173 307.6C 29.98 307.6 30.222 307.88 30.711 308.223C 31.2 308.565 31.6 309.176 31.6 309.58C 31.6 309.984 31.87 310.418 32.2 310.545C 32.53 310.671 32.8 311.019 32.8 311.318C 32.8 311.616 33.25 312.283 33.8 312.8C 34.35 313.317 34.8 314.028 34.8 314.381C 34.8 314.735 35.16 315.283 35.6 315.6C 36.04 315.917 36.4 316.497 36.4 316.888C 36.4 317.28 36.674 317.6 37.01 317.6C 37.345 317.6 37.777 318.012 37.968 318.516C 38.16 319.02 38.605 319.673 38.958 319.965C 39.311 320.258 39.6 320.706 39.6 320.961C 39.6 321.215 39.96 321.683 40.4 322C 40.84 322.317 41.2 322.801 41.2 323.074C 41.2 323.348 41.575 323.773 42.034 324.018C 42.493 324.264 42.766 324.567 42.642 324.692C 42.517 324.817 42.728 325.207 43.11 325.559C 43.493 325.912 44.061 326.698 44.374 327.308C 44.783 328.102 45.034 328.272 45.266 327.908C 45.484 327.564 45.59 327.69 45.594 328.3C 45.597 328.795 45.735 329.155 45.9 329.1C 46.065 329.045 46.282 329.18 46.382 329.4C 46.482 329.62 46.963 330.199 47.451 330.687C 47.939 331.175 48.44 331.897 48.565 332.291C 48.69 332.685 49.199 333.192 49.696 333.418C 50.193 333.644 50.551 334.061 50.49 334.344C 50.43 334.628 50.556 334.751 50.77 334.619C 50.984 334.486 51.372 334.774 51.631 335.258C 52.139 336.207 54 338.196 54 337.79C 54 337.654 54.27 337.813 54.6 338.143C 54.93 338.473 55.2 338.863 55.2 339.011C 55.2 339.158 55.785 339.801 56.5 340.438C 57.215 341.076 57.932 341.733 58.094 341.899C 58.255 342.064 59.428 343.28 60.699 344.6C 61.971 345.92 63.144 347.045 63.306 347.1C 63.468 347.155 63.626 347.335 63.659 347.5C 63.691 347.665 64.231 348.112 64.859 348.494C 65.486 348.876 66 349.395 66 349.647C 66 350.224 67.558 351.6 68.21 351.6C 68.479 351.6 69.275 352.275 69.979 353.1C 70.684 353.925 71.382 354.573 71.53 354.54C 71.679 354.507 71.764 354.616 71.719 354.783C 71.675 354.949 72.12 355.336 72.71 355.643C 73.299 355.949 74.408 356.785 75.174 357.5C 75.94 358.215 76.799 358.8 77.083 358.8C 77.368 358.8 77.6 358.98 77.6 359.2C 77.6 359.42 77.881 359.6 78.224 359.6C 78.567 359.6 78.765 359.735 78.666 359.9C 78.452 360.253 79.199 360.949 79.977 361.121C 80.64 361.267 82.308 362.4 81.86 362.4C 81.686 362.4 81.813 362.67 82.143 363C 82.473 363.33 82.986 363.6 83.283 363.6C 83.58 363.6 84.076 363.95 84.385 364.379C 84.693 364.807 85.072 365.079 85.225 364.984C 85.379 364.889 86.111 365.347 86.852 366.002C 87.594 366.657 88.515 367.296 88.9 367.423C 89.285 367.55 89.6 367.822 89.6 368.027C 89.6 368.232 89.95 368.4 90.377 368.4C 90.805 368.4 91.406 368.759 91.713 369.197C 92.02 369.636 92.362 369.904 92.473 369.793C 92.584 369.683 93.133 370.017 93.694 370.536C 94.716 371.484 95.69 372.019 96.789 372.238C 97.113 372.303 97.606 372.667 97.885 373.048C 98.164 373.43 98.51 373.623 98.655 373.478C 98.8 373.333 99.243 373.588 99.638 374.044C 100.034 374.5 100.547 374.756 100.779 374.613C 101.01 374.47 101.2 374.543 101.2 374.776C 101.2 375.009 101.436 375.2 101.725 375.2C 102.013 375.2 102.655 375.578 103.151 376.04C 103.647 376.502 104.161 376.772 104.294 376.639C 104.427 376.507 104.896 376.714 105.336 377.099C 105.929 377.618 106.06 377.644 105.838 377.2C 105.674 376.87 105.868 376.96 106.27 377.4C 106.671 377.84 107.36 378.261 107.8 378.335C 108.24 378.409 108.972 378.814 109.426 379.235C 109.88 379.656 110.45 380 110.692 380C 110.935 380 111.224 380.225 111.335 380.5C 111.481 380.862 111.546 380.845 111.568 380.439C 111.592 380.025 111.784 380.077 112.3 380.639C 112.685 381.057 113.268 381.459 113.596 381.532C 113.924 381.605 114.326 381.875 114.49 382.132C 114.709 382.475 114.789 382.463 114.794 382.084C 114.798 381.753 115.113 381.86 115.675 382.384C 116.157 382.833 116.866 383.2 117.252 383.2C 117.637 383.2 118.064 383.38 118.2 383.6C 118.336 383.82 118.797 384 119.224 384C 119.651 384 120 384.191 120 384.424C 120 384.657 120.165 384.745 120.368 384.62C 120.57 384.495 121.006 384.663 121.336 384.993C 121.79 385.447 121.984 385.472 122.136 385.096C 122.295 384.704 122.343 384.704 122.368 385.1C 122.386 385.375 122.76 385.6 123.2 385.6C 123.64 385.6 124 385.799 124 386.043C 124 386.286 124.277 386.379 124.615 386.25C 124.965 386.115 125.328 386.269 125.458 386.607C 125.583 386.933 126.074 387.2 126.549 387.2C 127.023 387.2 128.07 387.552 128.873 387.983C 129.677 388.414 130.714 388.694 131.178 388.604C 131.643 388.515 131.916 388.612 131.787 388.821C 131.658 389.029 131.788 389.227 132.076 389.261C 132.364 389.294 132.78 389.344 133 389.371C 133.22 389.399 133.67 389.592 134 389.8C 134.33 390.009 135.047 390.241 135.593 390.316C 136.138 390.391 136.705 390.647 136.852 390.884C 136.999 391.122 137.402 391.208 137.747 391.076C 138.092 390.943 138.481 391.007 138.611 391.217C 138.741 391.428 139.377 391.6 140.024 391.6C 140.671 391.6 141.2 391.78 141.2 392C 141.2 392.22 141.729 392.4 142.376 392.4C 143.023 392.4 143.664 392.58 143.8 392.8C 143.936 393.02 144.577 393.2 145.224 393.2C 145.871 393.2 146.4 393.375 146.4 393.588C 146.4 393.801 147.065 393.951 147.877 393.92C 148.696 393.889 149.424 394.073 149.511 394.332C 149.603 394.608 150.517 394.803 151.733 394.806C 153.215 394.811 153.63 394.922 153.2 395.2C 152.761 395.484 153.055 395.589 154.3 395.594C 155.235 395.597 156 395.78 156 396C 156 396.22 156.9 396.4 158 396.4C 159.1 396.4 160 396.58 160 396.8C 160 397.02 160.9 397.2 162 397.2C 163.1 397.2 164 397.38 164 397.6C 164 397.822 165.059 398 166.376 398C 167.683 398 168.848 398.154 168.964 398.342C 169.08 398.53 170.389 398.717 171.874 398.758C 173.358 398.798 174.669 398.96 174.786 399.116C 175.126 399.568 175.95 399.614 188.3 399.872L188.3 399.872L200 400.116L200 200.058L200 0L190.867 0C 185.843 0 181.648 0.085 181.543 0.19M216.305 0.283C 216.802 0.379 217.522 0.375 217.905 0.275C 218.287 0.175 217.88 0.096 217 0.101C 216.12 0.105 215.807 0.187 216.305 0.283M230 1.685C 230 1.858 230.36 2 230.8 2C 231.24 2 231.6 1.831 231.6 1.625C 231.6 1.419 231.24 1.277 230.8 1.31C 230.36 1.343 230 1.512 230 1.685M249 5.6C 250.093 6.069 250.4 6.069 250.4 5.6C 250.4 5.38 249.905 5.213 249.3 5.228C 248.325 5.253 248.291 5.295 249 5.6M262.084 9.358C 262.616 9.934 263.2 9.839 263.2 9.176C 263.2 8.969 262.833 8.8 262.384 8.8C 261.707 8.8 261.656 8.894 262.084 9.358M278 14.761C 278 14.991 278.535 15.456 279.189 15.794C 280.239 16.337 280.351 16.339 280.147 15.807C 280.02 15.476 279.77 15.295 279.59 15.406C 279.411 15.517 278.98 15.323 278.632 14.975C 278.285 14.627 278 14.531 278 14.761M281.6 16.327C 281.6 16.516 282.058 16.88 282.619 17.136C 283.885 17.713 284 17.713 284 17.133C 284 16.877 283.879 16.787 283.732 16.935C 283.584 17.082 283.044 16.928 282.532 16.592C 282.019 16.256 281.6 16.137 281.6 16.327M296.4 24.353C 296.4 24.548 296.834 24.79 297.363 24.891C 298.054 25.023 298.268 24.923 298.121 24.538C 297.894 23.947 296.4 23.787 296.4 24.353M304.281 28.587C 304.699 29.161 305.409 29.58 305.976 29.587C 306.915 29.6 306.923 29.578 306.181 29.035C 305.756 28.725 305.271 28.556 305.102 28.661C 304.933 28.765 304.686 28.569 304.554 28.225C 304.422 27.881 304.145 27.6 303.939 27.6C 303.732 27.6 303.886 28.044 304.281 28.587M307.29 30.471C 307.377 30.731 307.707 31.063 308.024 31.209C 308.341 31.356 309.005 31.685 309.5 31.941C 310.047 32.224 310.4 32.251 310.4 32.011C 310.4 31.793 309.963 31.506 309.429 31.372C 308.895 31.237 308.361 30.874 308.241 30.564C 307.981 29.886 307.066 29.797 307.29 30.471M312.04 33.719C 312.788 34.445 313.625 34.966 313.9 34.877C 314.175 34.787 314.4 34.924 314.4 35.181C 314.4 35.437 314.607 35.519 314.86 35.363C 315.146 35.186 314.796 34.81 313.931 34.367C 313.168 33.975 312.309 33.372 312.023 33.027C 311.736 32.682 311.317 32.4 311.091 32.4C 310.864 32.4 311.291 32.994 312.04 33.719M322.959 41.666C 322.785 41.948 322.854 42.014 323.138 41.838C 323.392 41.681 323.6 41.752 323.6 41.995C 323.6 42.718 325.355 44.252 326.518 44.544C 327.157 44.704 327.6 45.09 327.6 45.488C 327.6 46.004 327.71 46.05 328.071 45.689C 328.656 45.104 326.953 43.456 326.103 43.782C 325.803 43.897 325.668 43.813 325.803 43.595C 325.937 43.378 325.756 43.2 325.4 43.2C 325.044 43.2 324.852 43.04 324.973 42.844C 325.094 42.648 324.754 42.2 324.217 41.848C 323.514 41.387 323.163 41.337 322.959 41.666M331.478 48.256C 331.158 48.575 331.519 49.2 332.024 49.2C 332.231 49.2 332.4 48.93 332.4 48.6C 332.4 47.981 331.928 47.805 331.478 48.256M334.8 51.557C 334.8 51.754 335.085 52.024 335.433 52.157C 336.411 52.533 336.508 52.451 335.857 51.8C 335.177 51.12 334.8 51.033 334.8 51.557M350.088 67.192C 350.563 67.953 351.564 68.57 351.853 68.28C 352.07 68.063 350.414 66.4 349.981 66.4C 349.767 66.4 349.814 66.754 350.088 67.192M354.365 72.03C 353.902 72.323 353.92 72.389 354.466 72.394C 354.833 72.397 355.366 72.927 355.651 73.571C 355.936 74.215 356.312 74.654 356.486 74.547C 356.823 74.339 356.186 72.929 355.402 72.145C 355.105 71.848 354.72 71.806 354.365 72.03M359.6 78.72C 359.6 79.134 360.466 80 360.88 80C 361.056 80 361.2 79.82 361.2 79.6C 361.2 79.38 360.975 79.245 360.7 79.3C 360.425 79.355 360.245 79.175 360.3 78.9C 360.355 78.625 360.22 78.4 360 78.4C 359.78 78.4 359.6 78.544 359.6 78.72M362 81.938C 362 82.124 362.33 82.575 362.733 82.94C 363.335 83.484 363.467 83.499 363.467 83.024C 363.467 82.705 363.272 82.479 363.033 82.522C 362.795 82.565 362.645 82.375 362.7 82.1C 362.755 81.825 362.62 81.6 362.4 81.6C 362.18 81.6 362 81.752 362 81.938M364.108 84.837C 364.498 85.064 364.697 85.463 364.55 85.725C 364.38 86.027 364.485 86.012 364.838 85.683C 365.412 85.149 364.801 84.403 363.8 84.418C 363.58 84.422 363.719 84.61 364.108 84.837M367.288 89.597C 367.79 90.475 368.335 91.195 368.5 91.197C 368.95 91.202 368.861 90.485 368.375 90.185C 368.142 90.04 367.786 89.49 367.585 88.961C 367.384 88.433 367.03 88 366.798 88C 366.566 88 366.786 88.719 367.288 89.597M372.908 98.429C 372.875 98.863 373.002 99.122 373.19 99.006C 373.378 98.89 373.623 99.021 373.734 99.298C 373.864 99.62 373.948 99.567 373.968 99.149C 374.017 98.144 372.982 97.441 372.908 98.429M374.284 100.8C 374.399 101.24 374.635 101.6 374.809 101.6C 374.983 101.6 375.031 101.24 374.916 100.8C 374.801 100.36 374.565 100 374.391 100C 374.217 100 374.169 100.36 374.284 100.8M378.4 108.681C 378.4 109.143 379.535 110.209 379.758 109.957C 379.834 109.871 379.56 109.454 379.148 109.03C 378.737 108.607 378.4 108.449 378.4 108.681M145.61 117.608C 153.76 118.589 164.769 122.474 167.2 125.226C 167.31 125.351 168.3 126.064 169.4 126.811C 177.959 132.623 185.255 144.19 187.685 155.8C 188.238 158.442 188.555 178.732 188.06 179.791C 187.851 180.236 187.466 181.172 187.204 181.871C 186.575 183.548 183.567 186.565 181.914 187.179C 181.191 187.447 180.287 187.832 179.905 188.033C 176.099 190.043 168.879 187.026 166.039 182.24L166.039 182.24L164.643 179.886L164.375 169.517C 164.199 162.65 163.955 158.995 163.654 158.694C 163.404 158.444 163.2 157.95 163.2 157.595C 163.2 156.733 161.777 153.82 160.271 151.6C 157.206 147.08 152.063 143.423 147 142.161C 145.444 141.774 136.956 141.774 135.4 142.161C 127.469 144.137 120.55 151.239 118.6 159.405C 117.751 162.962 117.751 237.038 118.6 240.595C 120.64 249.141 127.251 255.744 136.016 257.991C 137.865 258.465 144.741 258.361 147 257.825C 150.233 257.057 154.219 254.854 157.149 252.215C 158.735 250.787 162.4 245.5 162.4 244.642C 162.4 244.315 162.58 243.936 162.8 243.8C 163.02 243.664 163.2 243.149 163.2 242.656C 163.2 242.163 163.411 241.549 163.669 241.291C 163.987 240.973 164.223 237.579 164.405 230.711C 164.682 220.296 164.778 219.687 166.601 216.798C 169.079 212.872 176.508 210.174 179.905 211.966C 180.287 212.168 181.238 212.609 182.017 212.946C 183.81 213.721 186.602 216.518 187.213 218.151C 187.47 218.838 187.851 219.764 188.06 220.209C 188.548 221.253 188.248 241.454 187.701 244.4C 186.549 250.596 182.304 259.805 178.418 264.534C 176.296 267.118 172.807 270.602 170.863 272.079C 169.619 273.024 168.51 273.913 168.4 274.053C 167.883 274.711 160.035 278.923 158.2 279.526C 157.32 279.816 156.24 280.209 155.8 280.401C 152.435 281.864 143.791 282.953 138.4 282.594C 133.534 282.269 125.753 280.543 124.62 279.537C 124.411 279.352 124.004 279.2 123.716 279.2C 122.939 279.2 119.64 277.617 117.728 276.328C 116.808 275.707 115.897 275.2 115.703 275.2C 115.509 275.2 115.002 274.88 114.575 274.489C 114.149 274.098 113.17 273.348 112.4 272.822C 106.954 269.102 96.829 255.386 96.803 251.695C 96.802 251.417 96.638 250.877 96.439 250.495C 96.104 249.851 95.656 248.304 94.787 244.8C 93.929 241.341 93.822 236.345 93.822 200C 93.822 163.328 93.926 158.627 94.82 155.1C 95.86 150.997 96.106 150.147 96.439 149.505C 96.638 149.123 96.802 148.583 96.803 148.305C 96.829 144.626 106.923 130.968 112.4 127.201C 113.17 126.672 113.89 126.116 114 125.966C 114.549 125.217 122.102 121.267 124.8 120.318C 132.293 117.683 138.989 116.811 145.61 117.608M388.806 131.9C 388.824 132.777 389.588 133.359 389.594 132.5C 389.597 132.005 389.42 131.6 389.2 131.6C 388.98 131.6 388.803 131.735 388.806 131.9M389.508 134.632C 389.609 135.159 389.851 135.492 390.046 135.372C 390.583 135.04 390.469 134.112 389.862 133.879C 389.478 133.732 389.377 133.946 389.508 134.632M390.184 136.827C 390.039 137.061 390.028 137.361 390.16 137.493C 390.292 137.625 390.403 137.478 390.406 137.167C 390.411 136.7 390.481 136.706 390.8 137.2C 391.131 137.713 391.189 137.698 391.194 137.1C 391.201 136.325 390.595 136.161 390.184 136.827M393.2 147.176C 393.2 147.603 393.379 148.063 393.597 148.198C 393.828 148.341 393.959 148.014 393.91 147.422C 393.812 146.235 393.2 146.024 393.2 147.176M396.4 161.533C 396.4 162.01 396.564 162.4 396.765 162.4C 397.171 162.4 397.111 161.377 396.678 160.945C 396.525 160.792 396.4 161.057 396.4 161.533M398 169.31C 398 169.883 398.188 170.469 398.418 170.611C 398.679 170.772 398.785 170.485 398.7 169.85C 398.511 168.434 398 168.04 398 169.31M398 230.8C 398 231.547 398.107 231.653 398.48 231.28C 398.853 230.907 398.853 230.693 398.48 230.32C 398.107 229.947 398 230.053 398 230.8M397.342 235.436C 397.311 235.963 397.446 236.295 397.642 236.174C 398.077 235.905 398.115 234.918 397.7 234.662C 397.535 234.56 397.374 234.908 397.342 235.436M390 262.824C 390 263.057 390.165 263.145 390.366 263.021C 390.567 262.897 390.823 263.021 390.934 263.298C 391.056 263.601 391.149 263.522 391.168 263.1C 391.186 262.715 390.93 262.4 390.6 262.4C 390.27 262.4 390 262.591 390 262.824M389.2 265.333C 389.2 265.627 389.47 265.867 389.8 265.867C 390.13 265.867 390.4 265.627 390.4 265.333C 390.4 265.04 390.13 264.8 389.8 264.8C 389.47 264.8 389.2 265.04 389.2 265.333M388.135 269.774C 388.256 270.09 388.181 270.436 387.968 270.544C 387.754 270.652 387.81 270.694 388.09 270.637C 388.744 270.505 389.013 269.2 388.387 269.2C 388.127 269.2 388.014 269.458 388.135 269.774M385.195 276.809C 384.832 277.488 384.838 277.789 385.222 278.143C 385.599 278.491 385.647 278.476 385.424 278.082C 385.263 277.798 385.352 277.298 385.623 276.973C 385.893 276.647 386.013 276.28 385.889 276.156C 385.766 276.033 385.454 276.326 385.195 276.809M384 279.4C 383.592 279.891 383.62 280 384.151 280C 384.508 280 384.8 279.73 384.8 279.4C 384.8 279.07 384.732 278.8 384.649 278.8C 384.566 278.8 384.274 279.07 384 279.4M383.481 281.066C 383.666 281.549 383.591 281.642 383.206 281.404C 382.851 281.184 382.772 281.231 382.966 281.545C 383.125 281.802 383.423 281.909 383.628 281.783C 384.119 281.479 384.108 280.4 383.613 280.4C 383.399 280.4 383.34 280.7 383.481 281.066M382.4 283.2C 382.062 283.832 382.096 284 382.561 284C 382.904 284 383.125 283.665 383.09 283.2C 383.057 282.76 382.984 282.4 382.929 282.4C 382.874 282.4 382.635 282.76 382.4 283.2M379.2 289.8C 379.2 290.13 379.38 290.4 379.6 290.4C 379.82 290.4 380 290.13 380 289.8C 380 289.47 379.82 289.2 379.6 289.2C 379.38 289.2 379.2 289.47 379.2 289.8M368.1 309.033C 368.228 309.162 367.988 309.612 367.567 310.033C 367.145 310.455 366.8 311.07 366.8 311.4C 366.8 311.73 366.56 312 366.267 312C 365.973 312 365.733 312.27 365.733 312.6C 365.733 312.93 365.786 313.2 365.851 313.2C 366.19 313.2 367.546 311.437 367.396 311.193C 367.298 311.036 367.575 310.585 368.009 310.191C 368.897 309.388 369.034 308.8 368.333 308.8C 368.077 308.8 367.972 308.905 368.1 309.033M363.28 315.68C 362.698 316.262 362.658 317.065 363.195 317.397C 363.425 317.539 363.488 317.373 363.345 317.002C 363.199 316.62 363.403 316.132 363.85 315.794C 364.262 315.481 364.411 315.22 364.18 315.213C 363.949 315.206 363.544 315.416 363.28 315.68M357.829 323.661C 357.056 325.212 357.042 325.429 357.756 324.837C 358.228 324.445 358.915 322.4 358.574 322.4C 358.51 322.4 358.175 322.968 357.829 323.661M355.149 326.677C 354.847 327.049 354.81 327.228 355.066 327.074C 355.322 326.921 355.623 327.021 355.734 327.298C 355.846 327.574 355.951 327.395 355.968 326.9C 356.006 325.822 355.872 325.786 355.149 326.677M350.83 332.164C 350.572 332.475 350.514 332.823 350.701 332.939C 350.887 333.054 351.257 332.8 351.523 332.374C 352.079 331.484 351.531 331.319 350.83 332.164M348.749 334.265C 348.247 334.874 348.285 334.887 349.2 334.411C 350.541 333.714 350.642 333.6 349.916 333.6C 349.576 333.6 349.051 333.899 348.749 334.265M344.412 338.784C 344.088 338.989 343.944 339.278 344.093 339.426C 344.241 339.574 344.653 339.404 345.01 339.048C 345.713 338.344 345.357 338.187 344.412 338.784M334.011 348.987C 333.743 349.309 333.617 349.804 333.731 350.087C 333.857 350.4 333.949 350.319 333.968 349.876C 333.986 349.478 334.15 349.245 334.333 349.359C 334.517 349.472 334.667 349.303 334.667 348.982C 334.667 348.259 334.615 348.259 334.011 348.987M326.4 355.4C 325.981 355.905 326.052 355.995 326.851 355.968C 327.373 355.951 327.574 355.846 327.298 355.734C 327.021 355.623 326.897 355.367 327.021 355.166C 327.384 354.579 326.944 354.745 326.4 355.4M324.507 357.2C 324.13 357.64 323.603 358 323.335 358C 323.067 358 322.746 358.163 322.623 358.363C 322.5 358.562 322.804 358.628 323.299 358.51C 324.259 358.281 326.32 356.4 325.612 356.4C 325.381 356.4 324.884 356.76 324.507 357.2M311.303 366.575C 310.809 366.848 310.075 367.37 309.671 367.736C 309.267 368.101 308.769 368.4 308.565 368.4C 308.36 368.4 307.972 368.753 307.702 369.185C 307.292 369.842 307.309 369.933 307.806 369.742C 308.133 369.617 308.4 369.354 308.4 369.157C 308.4 368.961 308.642 368.8 308.938 368.8C 309.234 368.8 309.798 368.444 310.191 368.009C 310.585 367.575 311.064 367.316 311.256 367.435C 311.448 367.554 311.713 367.37 311.845 367.028C 311.976 366.685 312.245 366.504 312.442 366.626C 312.639 366.748 312.8 366.657 312.8 366.424C 312.8 365.901 312.459 365.935 311.303 366.575M305.796 370.407C 305.658 370.63 305.377 370.709 305.172 370.583C 304.968 370.456 304.8 370.633 304.8 370.976C 304.8 371.319 304.935 371.594 305.1 371.587C 305.519 371.57 306.8 370.566 306.8 370.256C 306.8 369.85 306.073 369.959 305.796 370.407M302.2 372.4C 302.336 372.62 302.113 372.8 301.704 372.8C 300.883 372.8 299.993 373.526 300.013 374.18C 300.02 374.411 300.29 374.251 300.613 373.824C 300.936 373.396 301.2 373.266 301.2 373.533C 301.2 373.869 301.507 373.817 302.197 373.365C 303.139 372.748 303.225 372 302.353 372C 302.133 372 302.064 372.18 302.2 372.4M297.189 375.222C 296.538 375.722 296.405 375.981 296.8 375.978C 297.587 375.973 298.944 374.936 298.513 374.67C 298.328 374.556 297.733 374.804 297.189 375.222M282.8 382.8C 282.8 383.02 283.07 383.2 283.4 383.2C 283.73 383.2 284 383.02 284 382.8C 284 382.58 283.73 382.4 283.4 382.4C 283.07 382.4 282.8 382.58 282.8 382.8M276.8 385.442C 276.133 385.851 276.066 385.964 276.6 385.78C 277.04 385.629 277.617 385.496 277.882 385.486C 278.148 385.475 278.272 385.317 278.159 385.133C 277.907 384.725 278.005 384.703 276.8 385.442M270.2 388.027C 269.44 388.514 269.239 388.797 269.651 388.798C 270.009 388.799 270.524 388.532 270.796 388.204C 271.068 387.877 271.478 387.725 271.707 387.866C 271.949 388.016 272.004 387.93 271.838 387.662C 271.681 387.408 271.518 387.213 271.476 387.229C 271.434 387.245 270.86 387.604 270.2 388.027M266.78 389.024C 266.441 389.432 266.433 389.6 266.751 389.6C 266.998 389.6 267.2 389.398 267.2 389.151C 267.2 388.841 267.385 388.856 267.8 389.2C 268.146 389.487 268.4 389.526 268.4 389.292C 268.4 388.601 267.284 388.416 266.78 389.024M264.884 389.815C 264.453 390.304 264.492 390.4 265.118 390.4C 265.53 390.4 265.867 390.13 265.867 389.8C 265.867 389.053 265.552 389.058 264.884 389.815M262.084 390.615C 261.646 391.112 261.736 391.195 262.684 391.168C 263.298 391.151 263.574 391.046 263.298 390.934C 263.021 390.823 262.897 390.567 263.021 390.366C 263.384 389.779 262.649 389.974 262.084 390.615M245.2 395.2C 245.2 395.42 245.47 395.6 245.8 395.6C 246.13 395.6 246.4 395.42 246.4 395.2C 246.4 394.98 246.13 394.8 245.8 394.8C 245.47 394.8 245.2 394.98 245.2 395.2M234.578 397.564C 234.826 397.966 235.818 397.915 236.255 397.478C 236.408 397.325 236.043 397.2 235.443 397.2C 234.843 397.2 234.454 397.364 234.578 397.564M222 399.28C 222 399.69 223.646 399.685 224.294 399.274C 224.588 399.088 224.222 398.96 223.394 398.96C 222.627 398.96 222 399.104 222 399.28" stroke="none" fill="#F3F3FC" fill-rule="nonzero" />
	<g>
	</g>
    <path d="M243.397 118.548C 241.335 119.323 239.277 120.786 238.087 122.323C 235.635 125.488 235.8 119.876 235.8 200.228L235.8 200.228L235.8 273.856L236.745 275.693C 237.95 278.037 239.662 279.676 242.258 280.972L242.258 280.972L244.316 282L270.525 282C 296.09 282 296.781 281.98 298.667 281.177C 306.377 277.892 307.964 267.34 301.571 261.868C 298.524 259.26 297.986 259.2 277.634 259.2C 263.954 259.2 259.239 259.079 258.88 258.72C 258.511 258.351 258.399 243.076 258.396 192.42L258.396 192.42L258.392 126.6L257.444 124.6C 254.98 119.404 248.521 116.621 243.397 118.548" stroke="none" fill="#CCCCE4" fill-rule="nonzero" />
	<g>
	</g>
    <path d="M245.2 117.271C 240.82 118.161 235.57 122.588 235.606 125.361C 235.609 125.603 236.014 125.012 236.506 124.049C 238.458 120.226 242.858 117.6 247.313 117.6C 248.424 117.6 249.258 117.535 249.167 117.456C 248.681 117.037 246.787 116.949 245.2 117.271M139.9 117.889C 140.615 117.978 141.785 117.978 142.5 117.889C 143.215 117.801 142.63 117.728 141.2 117.728C 139.77 117.728 139.185 117.801 139.9 117.889M250.403 117.974C 251.938 118.441 253.764 119.456 255.252 120.671C 256.365 121.58 256.461 121.61 255.8 120.84C 254.753 119.619 251.219 117.599 250.2 117.638C 249.551 117.663 249.59 117.726 250.403 117.974M133.2 118.4C 131.856 118.831 133.308 118.831 135 118.4C 136.078 118.126 136.098 118.094 135.2 118.087C 134.65 118.083 133.75 118.224 133.2 118.4M146.033 118.149C 146.125 118.231 147.1 118.401 148.2 118.528C 149.549 118.684 149.874 118.649 149.2 118.42C 148.201 118.08 145.718 117.868 146.033 118.149M151.8 119.2C 152.24 119.389 152.87 119.544 153.2 119.544C 153.578 119.544 153.504 119.417 153 119.2C 152.56 119.011 151.93 118.856 151.6 118.856C 151.222 118.856 151.296 118.983 151.8 119.2M114.895 125.811C 113.743 126.586 112.8 127.308 112.8 127.415C 112.8 127.521 113.79 126.951 115 126.147C 116.922 124.871 117.487 124.4 117.095 124.4C 117.037 124.4 116.047 125.035 114.895 125.811M165.2 124.521C 165.2 124.612 166.235 125.351 167.5 126.163C 168.765 126.975 169.308 127.221 168.706 126.71C 167.518 125.7 165.2 124.253 165.2 124.521M235.067 126.667C 234.7 127.033 234.74 272.886 235.106 273.462C 235.268 273.716 235.4 240.731 235.4 200.162C 235.4 159.593 235.385 126.4 235.367 126.4C 235.348 126.4 235.213 126.52 235.067 126.667M171.087 128.809C 171.795 129.551 172.442 130.078 172.525 129.979C 172.608 129.881 172.029 129.273 171.238 128.629L171.238 128.629L169.8 127.458L171.087 128.809zM258.806 192.892L258.8 258.385L259.7 258.595C 261.136 258.931 297.144 259.032 296.938 258.7C 296.836 258.535 288.393 258.4 278.176 258.4L278.176 258.4L259.6 258.4L259.594 193.5C 259.59 152.29 259.446 128.381 259.2 128C 258.949 127.611 258.81 150.462 258.806 192.892M107.983 131.5L106.2 133.4L108.193 131.6C 109.288 130.61 110.263 129.755 110.359 129.7C 110.455 129.645 110.361 129.6 110.15 129.6C 109.939 129.6 108.964 130.455 107.983 131.5M174.034 131.447C 174.565 132.133 175.08 132.623 175.179 132.535C 175.277 132.447 174.843 131.886 174.213 131.288L174.213 131.288L173.069 130.2L174.034 131.447zM104.826 134.922L103.851 136.2L105.126 135.025C 106.451 133.803 106.603 133.585 106.1 133.622C 105.935 133.634 105.362 134.219 104.826 134.922M178.037 136C 179.196 137.796 179.2 137.801 179.198 137.367C 179.197 137.165 178.732 136.46 178.165 135.8L178.165 135.8L177.134 134.6L178.037 136zM102.073 138.6C 101.822 139.15 101.683 139.6 101.763 139.6C 101.843 139.6 102.203 139.15 102.563 138.6C 102.924 138.05 103.063 137.6 102.873 137.6C 102.684 137.6 102.323 138.05 102.073 138.6M140.305 141.083C 140.802 141.179 141.522 141.175 141.905 141.075C 142.287 140.975 141.88 140.896 141 140.901C 140.12 140.905 139.807 140.987 140.305 141.083M99.38 143.24C 98.811 144.362 98.413 145.347 98.495 145.429C 98.577 145.511 99.127 144.593 99.718 143.389C 100.308 142.185 100.706 141.2 100.602 141.2C 100.498 141.2 99.948 142.118 99.38 143.24M136.5 141.476C 136.885 141.576 137.515 141.576 137.9 141.476C 138.285 141.375 137.97 141.293 137.2 141.293C 136.43 141.293 136.115 141.375 136.5 141.476M144.5 141.476C 144.885 141.576 145.515 141.576 145.9 141.476C 146.285 141.375 145.97 141.293 145.2 141.293C 144.43 141.293 144.115 141.375 144.5 141.476M182.678 143.395C 183.044 144.162 183.414 144.719 183.501 144.632C 183.684 144.449 182.47 142 182.196 142C 182.095 142 182.312 142.628 182.678 143.395M124.919 147.437L122.6 149.674L125.1 147.548C 126.475 146.379 127.6 145.372 127.6 145.311C 127.6 144.954 126.993 145.435 124.919 147.437M159.2 149.349C 159.2 149.516 159.685 150.316 160.278 151.127C 161.689 153.056 162.198 153.592 161.678 152.6C 161.072 151.446 159.2 148.99 159.2 149.349M96.249 150.615C 96.112 150.973 96.015 151.566 96.034 151.933C 96.053 152.3 96.227 152.069 96.421 151.42C 96.798 150.158 96.665 149.533 96.249 150.615M121.693 151.1C 120.657 152.596 120.321 153.2 120.523 153.2C 120.617 153.2 121.17 152.48 121.753 151.6C 122.936 149.812 122.884 149.379 121.693 151.1M186.244 152.6C 186.573 154.071 186.802 154.39 186.794 153.367C 186.791 152.945 186.605 152.33 186.382 152C 186.085 151.562 186.048 151.724 186.244 152.6M162.446 154.6C 162.453 154.82 162.806 155.72 163.229 156.6C 163.652 157.48 163.886 157.75 163.749 157.2C 163.467 156.067 162.425 153.988 162.446 154.6M187.062 155.8C 187.196 156.68 187.372 157.475 187.453 157.567C 187.756 157.91 187.529 155.768 187.181 155C 186.929 154.442 186.893 154.685 187.062 155.8M94.52 160C 94.52 161.21 94.595 161.705 94.687 161.1C 94.778 160.495 94.778 159.505 94.687 158.9C 94.595 158.295 94.52 158.79 94.52 160M117.457 161.9C 117.132 163.865 117.218 237.045 117.547 238.577C 117.686 239.225 117.8 221.9 117.8 200.077C 117.8 178.255 117.779 160.4 117.752 160.4C 117.726 160.4 117.593 161.075 117.457 161.9M188.168 169.8C 188.168 174.2 188.226 176.055 188.298 173.921C 188.37 171.788 188.37 168.188 188.299 165.921C 188.227 163.655 188.168 165.4 188.168 169.8M94.192 200C 94.192 220.79 94.241 229.295 94.3 218.9C 94.359 208.505 94.359 191.495 94.3 181.1C 94.241 170.705 94.192 179.21 94.192 200M164.88 171.4C 164.843 175.58 164.944 179.209 165.106 179.464C 165.268 179.719 165.352 177.199 165.294 173.864C 165.124 164.197 164.954 163.182 164.88 171.4M186.686 181.51L185.973 183L186.777 182C 187.22 181.45 187.586 180.775 187.591 180.5C 187.605 179.733 187.46 179.895 186.686 181.51M165.604 180.622C 165.592 181.977 169.844 186.8 171.052 186.8C 171.22 186.8 170.593 186.238 169.659 185.551C 168.724 184.863 167.43 183.378 166.784 182.251C 166.137 181.123 165.606 180.39 165.604 180.622M184.378 184.7L183 186.2L184.5 184.822C 185.325 184.063 186 183.388 186 183.322C 186 183.016 185.662 183.304 184.378 184.7M181.206 186.823C 180.44 187.25 180.08 187.596 180.406 187.591C 180.733 187.586 181.45 187.23 182 186.8C 183.256 185.817 182.996 185.825 181.206 186.823M175.7 188.276C 176.085 188.376 176.715 188.376 177.1 188.276C 177.485 188.175 177.17 188.093 176.4 188.093C 175.63 188.093 175.315 188.175 175.7 188.276M181.055 213.169C 181.965 213.582 183.495 214.608 184.455 215.449C 185.664 216.508 185.893 216.626 185.2 215.832C 183.995 214.453 180.885 212.397 180.022 212.409C 179.68 212.414 180.145 212.756 181.055 213.169M167.471 216.1C 166.174 217.837 165.483 219.217 165.768 219.501C 165.895 219.629 166 219.544 166 219.312C 166 219.08 166.633 217.97 167.407 216.845C 168.959 214.588 169.006 214.043 167.471 216.1M186.73 218.782C 187.098 219.651 187.456 220.204 187.524 220.009C 187.65 219.649 186.513 217.2 186.219 217.2C 186.131 217.2 186.361 217.912 186.73 218.782M165.049 220.615C 164.912 220.973 164.838 224.626 164.883 228.733L164.883 228.733L164.967 236.2L165.183 228.2C 165.417 219.565 165.419 219.653 165.049 220.615M188.168 230.2C 188.168 234.6 188.226 236.455 188.298 234.321C 188.37 232.188 188.37 228.588 188.299 226.321C 188.227 224.055 188.168 225.8 188.168 230.2M94.52 240C 94.52 241.21 94.595 241.705 94.687 241.1C 94.778 240.495 94.778 239.505 94.687 238.9C 94.595 238.295 94.52 238.79 94.52 240M187.693 240C 187.693 240.77 187.775 241.085 187.876 240.7C 187.976 240.315 187.976 239.685 187.876 239.3C 187.775 238.915 187.693 239.23 187.693 240M187.249 243C 187.216 243.44 187.096 244.25 186.983 244.8L186.983 244.8L186.777 245.8L187.206 244.819C 187.442 244.279 187.561 243.469 187.472 243.019C 187.313 242.221 187.307 242.221 187.249 243M119.735 245.708C 120.212 247.08 123.142 251.019 124.861 252.599L124.861 252.599L126.6 254.197L124.738 252.199C 123.714 251.099 122.114 249.03 121.182 247.6C 120.251 246.17 119.599 245.319 119.735 245.708M186.229 247.429C 186.081 248.015 186.038 248.572 186.132 248.666C 186.227 248.76 186.424 248.358 186.571 247.771C 186.719 247.185 186.762 246.628 186.668 246.534C 186.573 246.44 186.376 246.842 186.229 247.429M160.895 248.223C 160.403 248.974 160 249.723 160 249.887C 160 250.051 160.466 249.5 161.036 248.662C 161.605 247.824 162.008 247.075 161.931 246.998C 161.854 246.92 161.388 247.472 160.895 248.223M96.817 250.8C 96.821 251.13 97.541 252.84 98.417 254.6C 100.297 258.376 100.219 257.874 98.232 253.4C 97.45 251.64 96.813 250.47 96.817 250.8M157.978 251.9L156.6 253.4L158.1 252.022C 159.496 250.738 159.784 250.4 159.478 250.4C 159.412 250.4 158.737 251.075 157.978 251.9M181.814 258.235C 181.441 258.804 181.205 259.338 181.289 259.422C 181.373 259.507 181.758 259.041 182.144 258.388C 183.006 256.928 182.748 256.809 181.814 258.235M135.2 258.405C 135.53 258.616 136.325 258.791 136.967 258.794C 138.514 258.802 138.177 258.571 136.2 258.268C 135.11 258.101 134.791 258.145 135.2 258.405M145.6 258.4C 144.216 258.691 144.214 258.695 145.4 258.741C 146.06 258.767 146.87 258.613 147.2 258.4C 147.866 257.97 147.645 257.97 145.6 258.4M140.3 259.082C 140.795 259.178 141.605 259.178 142.1 259.082C 142.595 258.987 142.19 258.909 141.2 258.909C 140.21 258.909 139.805 258.987 140.3 259.082M101.646 260.796C 102.139 261.673 102.608 262.326 102.687 262.246C 102.859 262.074 101.206 259.2 100.935 259.2C 100.833 259.2 101.152 259.918 101.646 260.796M301.215 261.161C 301.977 261.8 302.674 262.25 302.765 262.163C 302.989 261.946 300.696 260.001 300.215 260C 300.003 260 300.453 260.522 301.215 261.161M178.744 263.1C 177.593 264.489 177.106 265.2 177.304 265.2C 177.414 265.2 177.986 264.57 178.573 263.8C 179.663 262.371 179.795 261.832 178.744 263.1M303.209 262.646C 303.221 263.113 304.78 265.1 304.791 264.663C 304.796 264.478 304.44 263.869 304 263.309C 303.56 262.75 303.204 262.451 303.209 262.646M107.6 268.141C 108.81 269.418 110.34 270.837 111 271.296C 112.372 272.249 112.406 272.284 108.4 268.588C 105.542 265.952 105.504 265.93 107.6 268.141M174.02 268.579L172.24 270.6L174.201 268.714C 175.279 267.677 176.08 266.767 175.981 266.693C 175.881 266.619 174.999 267.467 174.02 268.579M305.675 267.4C 305.686 267.84 305.832 268.74 306 269.4L306 269.4L306.305 270.6L306.325 269.4C 306.335 268.74 306.189 267.84 306 267.4L306 267.4L305.656 266.6L305.675 267.4zM171.022 271.176C 170.635 271.603 168.898 272.886 167.16 274.026C 165.422 275.167 164 276.179 164 276.274C 164 276.5 164.446 276.231 167.8 273.979C 170.275 272.318 172.485 270.4 171.924 270.4C 171.814 270.4 171.408 270.749 171.022 271.176M305.822 272.622C 305.672 273.425 305.638 274.172 305.748 274.282C 305.858 274.392 306.072 273.825 306.222 273.022C 306.373 272.219 306.406 271.473 306.296 271.363C 306.186 271.253 305.973 271.819 305.822 272.622M113.84 273.517C 115.719 274.863 118.761 276.687 118.2 276.132C 117.595 275.533 112.847 272.4 112.545 272.4C 112.399 272.4 112.982 272.903 113.84 273.517M235.6 274.711C 235.6 274.986 235.825 275.613 236.1 276.104C 236.78 277.319 238.4 279.332 238.4 278.962C 238.4 278.798 238.15 278.379 237.844 278.031C 237.538 277.684 236.908 276.683 236.444 275.806C 235.98 274.929 235.6 274.437 235.6 274.711M303.837 277.4C 303.476 277.95 303.337 278.4 303.527 278.4C 303.716 278.4 304.077 277.95 304.327 277.4C 304.578 276.85 304.717 276.4 304.637 276.4C 304.557 276.4 304.197 276.85 303.837 277.4M126.4 280C 126.73 280.213 127.27 280.388 127.6 280.388C 128.133 280.388 128.133 280.345 127.6 280C 127.27 279.787 126.73 279.612 126.4 279.612C 125.867 279.612 125.867 279.655 126.4 280M132.8 281.6C 133.35 281.776 134.25 281.92 134.8 281.92L134.8 281.92L135.8 281.92L134.8 281.6C 134.25 281.424 133.35 281.28 132.8 281.28L132.8 281.28L131.8 281.28L132.8 281.6zM147.6 281.6L146.6 281.92L147.6 281.932C 148.15 281.938 148.96 281.789 149.4 281.6L149.4 281.6L150.2 281.256L149.4 281.268C 148.96 281.274 148.15 281.424 147.6 281.6M139.911 282.293C 140.851 282.378 142.291 282.377 143.111 282.291C 143.93 282.205 143.16 282.136 141.4 282.137C 139.64 282.139 138.97 282.209 139.911 282.293M245.515 282.872C 245.892 283.021 257.18 283.144 270.6 283.144C 284.02 283.144 295.308 283.021 295.685 282.872C 296.062 282.722 284.774 282.6 270.6 282.6C 256.426 282.6 245.138 282.722 245.515 282.872" stroke="none" fill="#E4E4F4" fill-rule="nonzero" />
</g>
</svg>