<svg id="svg" version="1.1" xmlns="http://www.w3.org/2000/svg" xmlns:xlink="http://www.w3.org/1999/xlink" width="400" height="400" viewBox="0, 0, 400,400"><g id="svgg"><path id="path0" d="M200.000 200.001 L 200.000 400.110 210.857 399.886 C 216.829 399.762,221.824 399.507,221.957 399.317 C 222.219 398.947,222.667 398.899,227.100 398.768 C 228.695 398.721,230.000 398.529,230.000 398.341 C 230.000 398.154,231.091 398.000,232.424 398.000 C 233.937 398.000,234.754 397.850,234.600 397.600 C 234.389 397.258,236.574 396.957,237.742 397.167 C 237.930 397.200,238.290 397.074,238.542 396.885 C 238.794 396.696,239.540 396.505,240.200 396.461 C 240.860 396.417,241.670 396.318,242.000 396.241 C 242.330 396.165,243.185 395.967,243.900 395.801 C 244.615 395.635,245.200 395.342,245.200 395.150 C 245.200 394.957,245.470 394.800,245.800 394.800 C 246.130 394.800,246.403 395.025,246.406 395.300 C 246.411 395.695,246.478 395.696,246.726 395.306 C 246.899 395.034,247.705 394.764,248.519 394.706 C 249.333 394.648,249.999 394.465,249.999 394.300 C 250.000 394.135,250.551 394.000,251.224 394.000 C 251.897 394.000,252.364 393.865,252.263 393.700 C 252.161 393.535,252.555 393.356,253.139 393.302 C 255.230 393.108,257.200 392.415,257.200 391.873 C 257.200 391.575,257.341 391.581,257.654 391.894 C 257.993 392.233,258.250 392.207,258.666 391.791 C 258.972 391.485,259.488 391.336,259.812 391.460 C 260.135 391.584,260.400 391.486,260.400 391.243 C 260.400 390.999,260.850 390.800,261.400 390.800 C 261.950 390.800,262.400 390.620,262.400 390.400 C 262.400 390.180,262.591 390.000,262.824 390.000 C 263.057 390.000,263.122 390.203,262.968 390.452 C 262.792 390.737,262.894 390.811,263.244 390.652 C 263.550 390.514,264.115 390.289,264.500 390.154 C 264.885 390.018,265.200 389.728,265.200 389.511 C 265.200 389.293,265.457 389.213,265.771 389.333 C 266.085 389.454,266.546 389.306,266.797 389.004 C 267.047 388.703,267.636 388.530,268.106 388.620 C 268.575 388.711,269.565 388.428,270.304 387.992 C 271.043 387.556,271.518 387.424,271.360 387.699 C 271.201 387.975,271.550 387.764,272.135 387.230 C 272.873 386.558,273.202 386.435,273.206 386.830 C 273.210 387.170,273.331 387.238,273.506 387.000 C 273.668 386.780,274.234 386.539,274.765 386.464 C 275.295 386.389,275.983 386.074,276.293 385.764 C 276.603 385.454,277.024 385.178,277.229 385.150 C 277.433 385.123,277.780 385.055,278.000 385.000 C 278.220 384.945,278.591 384.878,278.824 384.850 C 279.057 384.822,279.148 384.639,279.026 384.442 C 278.904 384.245,279.083 383.977,279.423 383.846 C 279.763 383.716,279.942 383.770,279.820 383.967 C 279.699 384.164,280.034 384.120,280.565 383.869 C 281.097 383.618,281.448 383.277,281.345 383.111 C 281.242 382.945,281.456 382.923,281.820 383.063 C 282.183 383.202,282.608 383.111,282.763 382.860 C 282.918 382.609,283.517 382.365,284.094 382.317 C 284.670 382.269,285.055 382.088,284.948 381.915 C 284.782 381.648,285.333 381.524,286.230 381.626 C 286.357 381.641,286.783 381.281,287.177 380.826 C 287.588 380.352,288.386 379.997,289.047 379.994 C 289.938 379.989,290.064 379.900,289.600 379.600 C 289.090 379.270,289.107 379.211,289.714 379.206 C 290.107 379.203,290.872 378.909,291.414 378.554 C 291.956 378.199,292.400 378.026,292.400 378.170 C 292.400 378.314,292.651 378.199,292.958 377.916 C 293.265 377.632,293.410 377.220,293.281 377.000 C 293.152 376.780,293.327 376.827,293.670 377.105 C 294.326 377.636,295.511 376.844,294.930 376.263 C 294.785 376.118,294.973 376.000,295.347 376.000 C 295.722 376.000,296.494 375.695,297.063 375.322 C 297.632 374.949,298.443 374.619,298.865 374.588 C 299.287 374.557,299.906 374.142,300.239 373.666 C 300.573 373.190,301.206 372.800,301.646 372.800 C 302.112 372.800,302.337 372.621,302.183 372.373 C 302.038 372.139,302.163 371.994,302.460 372.052 C 303.379 372.231,304.800 371.576,304.800 370.973 C 304.800 370.658,304.935 370.429,305.100 370.465 C 305.722 370.599,307.630 369.588,307.853 369.006 C 307.981 368.673,308.314 368.400,308.594 368.400 C 308.873 368.400,309.323 368.134,309.593 367.808 C 310.176 367.107,312.298 366.000,313.061 366.000 C 313.358 366.000,313.600 365.809,313.600 365.576 C 313.600 365.343,313.392 365.281,313.138 365.438 C 312.867 365.606,312.784 365.549,312.939 365.299 C 313.083 365.066,313.571 364.972,314.024 365.090 C 314.611 365.244,314.905 365.083,315.050 364.531 C 315.161 364.104,315.736 363.547,316.326 363.292 C 317.751 362.678,318.845 361.954,319.641 361.100 C 320.000 360.715,320.453 360.392,320.647 360.383 C 320.841 360.374,321.442 359.834,321.981 359.183 C 322.521 358.532,323.156 358.000,323.392 358.000 C 323.629 358.000,324.126 357.685,324.497 357.300 C 326.074 355.665,326.849 355.040,327.402 354.959 C 328.112 354.854,330.400 352.630,330.400 352.043 C 330.400 351.813,330.700 351.740,331.066 351.881 C 331.445 352.026,331.630 351.971,331.494 351.753 C 331.364 351.542,331.740 351.156,332.329 350.895 C 332.919 350.634,333.588 350.011,333.815 349.510 C 334.043 349.010,334.457 348.648,334.736 348.707 C 335.327 348.832,336.400 347.863,336.400 347.205 C 336.400 346.956,336.611 346.883,336.868 347.042 C 337.185 347.238,337.251 347.111,337.073 346.645 C 336.921 346.250,336.972 346.059,337.191 346.195 C 337.402 346.325,337.803 346.064,338.083 345.616 C 338.363 345.167,338.830 344.800,339.120 344.800 C 339.410 344.800,339.546 344.636,339.423 344.436 C 339.299 344.237,339.728 343.627,340.377 343.081 C 341.025 342.535,341.446 341.979,341.311 341.844 C 341.177 341.710,341.285 341.600,341.552 341.600 C 342.088 341.600,343.999 339.821,344.003 339.318 C 344.004 339.143,344.556 338.687,345.228 338.304 C 345.901 337.921,346.341 337.428,346.205 337.208 C 346.062 336.977,346.221 336.910,346.584 337.049 C 347.052 337.229,347.142 337.114,346.941 336.590 C 346.751 336.095,346.837 335.947,347.236 336.083 C 347.546 336.188,348.115 335.915,348.500 335.476 C 349.324 334.536,349.394 334.242,348.700 334.637 C 348.425 334.794,349.055 334.088,350.100 333.068 C 351.145 332.048,352.000 331.073,352.000 330.902 C 352.000 330.730,352.450 330.252,353.000 329.839 C 353.550 329.426,354.003 328.708,354.006 328.244 C 354.011 327.552,354.082 327.508,354.400 328.000 C 354.670 328.418,354.805 328.448,354.844 328.100 C 354.875 327.825,354.923 327.405,354.950 327.168 C 354.978 326.930,355.312 326.507,355.694 326.228 C 356.075 325.949,356.270 325.604,356.127 325.460 C 355.984 325.317,356.146 325.200,356.488 325.200 C 356.829 325.200,357.389 324.615,357.732 323.900 C 358.075 323.185,358.816 322.260,359.378 321.844 C 359.940 321.428,360.400 320.833,360.400 320.520 C 360.400 320.208,360.580 320.064,360.800 320.200 C 361.020 320.336,361.200 320.182,361.200 319.857 C 361.200 319.532,361.425 319.176,361.700 319.065 C 362.047 318.925,362.020 318.854,361.611 318.832 C 361.205 318.810,361.299 318.606,361.911 318.177 C 362.400 317.835,362.800 317.260,362.800 316.901 C 362.800 316.541,363.492 315.602,364.337 314.814 C 365.182 314.025,365.828 313.070,365.772 312.690 C 365.716 312.311,365.925 312.000,366.235 312.000 C 366.546 312.000,366.800 311.719,366.800 311.376 C 366.800 311.033,366.978 310.863,367.195 310.997 C 367.422 311.137,367.489 310.977,367.354 310.624 C 367.215 310.261,367.380 309.906,367.756 309.761 C 368.108 309.627,368.296 309.355,368.174 309.158 C 368.052 308.961,368.233 308.800,368.576 308.800 C 368.919 308.800,369.200 308.564,369.200 308.275 C 369.200 307.987,369.569 307.355,370.020 306.870 C 370.472 306.386,370.743 305.831,370.623 305.637 C 370.503 305.443,370.685 305.176,371.028 305.045 C 371.370 304.913,371.539 304.624,371.402 304.403 C 371.265 304.181,371.388 303.997,371.676 303.994 C 372.057 303.989,372.036 303.882,371.600 303.600 C 371.087 303.269,371.102 303.211,371.700 303.206 C 372.085 303.203,372.400 302.930,372.400 302.600 C 372.400 302.270,372.599 302.000,372.843 302.000 C 373.086 302.000,373.182 301.730,373.055 301.400 C 372.911 301.023,373.059 300.800,373.455 300.800 C 373.887 300.800,374.002 300.583,373.822 300.112 C 373.676 299.734,373.684 299.551,373.839 299.706 C 374.251 300.117,375.172 298.748,375.187 297.703 C 375.194 297.210,375.560 296.582,376.000 296.307 C 376.440 296.032,376.800 295.660,376.800 295.480 C 376.800 295.300,376.620 295.264,376.400 295.400 C 376.180 295.536,376.000 295.457,376.000 295.224 C 376.000 294.991,376.300 294.800,376.667 294.800 C 377.033 294.800,377.224 294.691,377.091 294.557 C 376.957 294.424,377.197 293.940,377.624 293.482 C 378.051 293.024,378.400 292.323,378.400 291.925 C 378.400 291.526,378.580 291.200,378.800 291.200 C 379.020 291.200,379.200 290.750,379.200 290.200 C 379.200 289.650,379.380 289.200,379.600 289.200 C 379.820 289.200,380.000 288.930,380.000 288.600 C 380.000 288.270,380.191 288.000,380.424 288.000 C 380.657 288.000,380.735 287.819,380.598 287.597 C 380.461 287.376,380.630 287.087,380.972 286.955 C 381.315 286.824,381.506 286.571,381.396 286.394 C 381.118 285.944,381.617 284.764,381.989 284.993 C 382.157 285.097,382.293 284.871,382.292 284.491 C 382.288 283.131,382.405 282.756,382.765 282.978 C 382.966 283.102,383.081 282.758,383.021 282.213 C 382.955 281.614,383.075 281.323,383.324 281.477 C 383.575 281.632,383.636 281.471,383.481 281.066 C 383.340 280.700,383.410 280.400,383.636 280.400 C 383.862 280.400,383.951 280.244,383.833 280.053 C 383.715 279.863,383.962 279.396,384.382 279.016 C 384.820 278.620,385.043 278.057,384.905 277.697 C 384.733 277.248,384.816 277.162,385.194 277.396 C 385.556 277.620,385.628 277.570,385.423 277.237 C 385.253 276.961,385.443 276.383,385.861 275.906 C 386.324 275.378,386.378 275.193,386.007 275.412 C 385.681 275.604,385.822 275.244,386.319 274.612 C 386.928 273.838,387.078 273.372,386.778 273.187 C 386.484 273.005,386.556 272.826,386.992 272.658 C 387.354 272.519,387.539 272.224,387.402 272.003 C 387.265 271.781,387.298 271.600,387.476 271.600 C 387.654 271.600,387.827 271.126,387.861 270.547 C 387.894 269.969,388.092 269.384,388.299 269.248 C 388.930 268.834,389.329 266.683,388.716 267.001 C 388.432 267.149,388.650 266.878,389.200 266.400 C 389.750 265.922,389.975 265.647,389.700 265.789 C 389.403 265.942,389.200 265.794,389.200 265.424 C 389.200 265.081,389.481 264.800,389.824 264.800 C 390.167 264.800,390.344 264.632,390.217 264.428 C 390.091 264.223,390.170 263.942,390.393 263.804 C 390.617 263.666,390.800 263.373,390.800 263.153 C 390.800 262.933,390.620 262.864,390.400 263.000 C 390.180 263.136,390.000 263.057,390.000 262.824 C 390.000 262.591,390.281 262.400,390.624 262.400 C 390.967 262.400,391.131 262.212,390.989 261.982 C 390.847 261.753,390.972 261.274,391.266 260.917 C 391.685 260.409,391.693 260.234,391.300 260.102 C 391.025 260.009,390.800 259.738,390.800 259.500 C 390.800 259.262,390.923 259.190,391.073 259.340 C 391.401 259.668,392.400 257.420,392.400 256.354 C 392.400 255.939,392.580 255.600,392.800 255.600 C 393.020 255.600,393.200 255.071,393.200 254.424 C 393.200 253.777,393.380 253.136,393.600 253.000 C 393.820 252.864,394.000 252.133,394.000 251.376 C 394.000 250.619,394.192 250.000,394.427 250.000 C 394.662 250.000,394.754 249.685,394.632 249.300 C 394.510 248.915,394.641 248.150,394.922 247.600 C 395.204 247.050,395.480 245.880,395.535 245.000 C 395.590 244.120,395.807 243.340,396.018 243.267 C 396.570 243.074,396.488 242.102,395.900 241.865 C 395.500 241.704,395.500 241.657,395.900 241.632 C 396.175 241.614,396.400 241.251,396.400 240.824 C 396.400 240.397,396.581 239.935,396.802 239.799 C 397.024 239.662,397.209 238.796,397.215 237.875 C 397.231 235.241,397.347 234.444,397.686 234.653 C 397.859 234.760,398.000 233.746,398.000 232.400 C 398.000 231.054,398.157 230.050,398.350 230.169 C 398.542 230.288,398.711 229.353,398.727 228.092 C 398.755 225.696,398.850 225.121,399.431 223.800 C 400.229 221.988,399.850 177.605,399.037 177.594 C 398.750 177.590,398.762 177.485,399.071 177.288 C 399.597 176.954,399.588 175.537,399.058 175.150 C 398.869 175.013,398.706 173.971,398.694 172.835 C 398.683 171.698,398.522 170.675,398.337 170.561 C 398.151 170.446,397.997 169.148,397.994 167.676 C 397.990 165.801,397.872 165.180,397.600 165.600 C 397.367 165.961,397.210 166.010,397.206 165.724 C 397.203 165.462,397.399 165.124,397.643 164.974 C 397.963 164.776,397.957 164.621,397.623 164.414 C 397.368 164.257,397.131 163.739,397.095 163.264 C 397.059 162.789,396.888 162.400,396.715 162.400 C 396.542 162.400,396.400 162.029,396.400 161.576 C 396.400 161.123,396.580 160.864,396.800 161.000 C 397.020 161.136,397.200 161.072,397.200 160.857 C 397.200 160.642,397.029 160.407,396.820 160.333 C 396.611 160.260,396.396 159.435,396.342 158.500 C 396.288 157.565,396.099 156.800,395.922 156.800 C 395.745 156.800,395.600 156.249,395.600 155.576 C 395.600 154.863,395.433 154.456,395.200 154.600 C 394.980 154.736,394.800 154.672,394.800 154.457 C 394.800 154.242,395.025 153.962,395.300 153.833 C 395.700 153.647,395.700 153.553,395.300 153.367 C 395.025 153.238,394.800 152.524,394.800 151.779 C 394.800 151.034,394.440 149.783,394.000 149.000 C 393.560 148.217,393.200 146.851,393.200 145.964 C 393.200 144.992,393.041 144.451,392.800 144.600 C 392.568 144.743,392.400 144.353,392.400 143.669 C 392.400 143.021,392.139 141.989,391.820 141.374 C 391.502 140.760,391.332 140.109,391.444 139.929 C 391.556 139.748,391.481 139.600,391.278 139.600 C 391.076 139.600,390.907 139.195,390.903 138.700 C 390.889 136.707,390.829 136.543,390.356 137.200 C 390.000 137.695,389.967 137.669,390.169 137.049 C 390.304 136.636,390.242 136.092,390.033 135.839 C 389.823 135.587,389.573 134.935,389.478 134.390 C 389.085 132.151,388.683 130.800,388.411 130.800 C 388.252 130.800,388.105 130.219,388.085 129.508 C 388.065 128.797,387.857 128.152,387.624 128.075 C 387.391 127.997,387.200 127.520,387.200 127.016 C 387.200 126.511,386.936 125.879,386.613 125.611 C 386.290 125.343,386.049 125.006,386.077 124.862 C 386.106 124.718,385.891 124.060,385.600 123.400 C 385.309 122.740,385.100 122.065,385.135 121.900 C 385.171 121.735,384.908 121.600,384.551 121.600 C 384.038 121.600,384.000 121.482,384.370 121.036 C 384.691 120.650,384.706 120.389,384.419 120.212 C 384.189 120.069,384.000 119.593,384.000 119.153 C 384.000 118.713,383.820 118.464,383.600 118.600 C 383.373 118.740,383.200 118.404,383.200 117.824 C 383.200 117.261,383.020 116.800,382.800 116.800 C 382.580 116.800,382.400 116.497,382.400 116.126 C 382.400 115.755,381.995 115.006,381.500 114.461 C 381.005 113.917,380.838 113.609,381.130 113.777 C 381.568 114.031,381.569 113.939,381.133 113.242 C 380.844 112.779,380.471 112.400,380.304 112.400 C 380.137 112.400,380.000 111.903,380.000 111.296 C 380.000 110.626,379.686 109.996,379.200 109.693 C 378.748 109.410,378.400 108.760,378.400 108.197 C 378.400 107.648,378.220 107.200,378.000 107.200 C 377.780 107.200,377.600 106.834,377.600 106.387 C 377.600 105.941,377.341 105.476,377.024 105.354 C 376.708 105.233,376.337 104.623,376.200 104.000 C 376.063 103.377,375.681 102.763,375.350 102.636 C 375.020 102.509,374.861 102.224,374.998 102.003 C 375.135 101.781,375.093 101.600,374.904 101.600 C 374.715 101.600,374.332 100.967,374.052 100.194 C 373.773 99.420,373.364 98.898,373.145 99.034 C 372.926 99.169,372.780 99.037,372.821 98.740 C 372.964 97.693,372.796 97.156,372.400 97.400 C 372.180 97.536,372.000 97.366,372.000 97.022 C 372.000 96.149,370.568 93.566,370.256 93.877 C 370.115 94.018,370.000 93.833,370.000 93.467 C 370.000 93.100,369.809 92.800,369.576 92.800 C 369.343 92.800,369.264 92.620,369.400 92.400 C 369.536 92.180,369.446 92.000,369.200 92.000 C 368.954 92.000,368.864 91.820,369.000 91.600 C 369.136 91.380,369.008 91.200,368.715 91.200 C 368.078 91.200,366.547 88.495,366.727 87.688 C 366.798 87.368,366.667 87.235,366.427 87.383 C 366.192 87.529,366.000 87.476,366.000 87.266 C 366.000 87.056,365.478 86.326,364.840 85.642 C 364.201 84.959,363.855 84.400,364.070 84.400 C 364.285 84.400,363.908 83.934,363.231 83.364 C 362.554 82.795,362.000 82.090,362.000 81.798 C 362.000 81.507,361.460 80.758,360.800 80.135 C 360.140 79.512,359.600 78.766,359.600 78.478 C 359.600 78.183,359.398 78.078,359.138 78.238 C 358.856 78.412,358.785 78.348,358.955 78.073 C 359.108 77.826,358.775 77.226,358.216 76.739 C 357.657 76.253,357.200 75.618,357.200 75.328 C 357.200 75.038,356.974 74.800,356.698 74.800 C 356.421 74.800,355.956 74.260,355.664 73.600 C 355.372 72.940,354.833 72.386,354.466 72.368 C 354.035 72.348,353.980 72.265,354.310 72.132 C 354.646 71.997,354.280 71.401,353.244 70.396 C 352.377 69.555,351.756 68.778,351.864 68.670 C 351.972 68.561,351.703 68.360,351.267 68.221 C 350.530 67.987,349.929 67.146,349.825 66.200 C 349.801 65.980,349.484 65.823,349.122 65.850 C 348.717 65.881,348.545 65.689,348.674 65.350 C 348.802 65.019,348.620 64.800,348.219 64.800 C 347.853 64.800,347.665 64.618,347.802 64.397 C 347.939 64.175,347.635 63.826,347.126 63.622 C 346.617 63.418,346.431 63.239,346.714 63.225 C 346.997 63.211,346.553 62.615,345.728 61.900 C 344.036 60.433,341.171 57.796,340.665 57.240 C 340.480 57.037,339.914 56.416,339.407 55.860 C 338.900 55.304,338.586 54.748,338.709 54.624 C 338.832 54.501,338.704 54.400,338.424 54.400 C 338.144 54.400,337.570 53.961,337.147 53.424 C 336.725 52.887,336.024 52.335,335.590 52.197 C 335.155 52.059,334.800 51.671,334.800 51.336 C 334.800 51.000,334.440 50.631,334.000 50.516 C 333.560 50.401,333.200 50.177,333.200 50.018 C 333.200 49.859,332.727 49.513,332.148 49.249 C 331.570 48.986,331.201 48.665,331.329 48.537 C 331.687 48.179,330.547 47.204,329.729 47.168 C 329.262 47.148,329.190 47.061,329.528 46.926 C 329.913 46.772,329.831 46.557,329.227 46.134 C 328.772 45.815,328.219 45.665,327.999 45.800 C 327.780 45.936,327.600 45.770,327.600 45.431 C 327.600 45.092,327.113 44.693,326.518 44.544 C 325.322 44.244,323.916 43.002,323.477 41.857 C 323.307 41.413,322.955 41.208,322.597 41.346 C 322.268 41.472,322.000 41.376,322.000 41.134 C 322.000 40.609,319.977 38.801,319.388 38.800 C 319.162 38.800,318.724 38.450,318.415 38.021 C 318.107 37.593,317.707 37.334,317.527 37.445 C 317.347 37.556,317.200 37.469,317.200 37.251 C 317.200 37.032,316.837 36.739,316.394 36.598 C 315.951 36.457,315.692 36.175,315.818 35.971 C 316.025 35.636,315.476 35.430,314.700 35.553 C 314.535 35.579,314.400 35.405,314.400 35.167 C 314.400 34.928,314.182 34.806,313.915 34.895 C 313.648 34.984,313.063 34.674,312.615 34.207 C 311.443 32.984,309.370 31.600,308.710 31.600 C 308.399 31.600,307.753 31.150,307.275 30.600 C 306.797 30.050,306.087 29.600,305.699 29.600 C 305.310 29.600,304.781 29.262,304.523 28.849 C 304.043 28.080,300.464 26.133,299.870 26.317 C 299.689 26.374,299.655 26.235,299.794 26.010 C 299.933 25.784,299.767 25.600,299.424 25.600 C 299.081 25.600,298.800 25.459,298.800 25.287 C 298.800 25.115,298.305 24.934,297.700 24.884 C 297.095 24.834,296.540 24.615,296.467 24.397 C 296.393 24.178,295.988 24.000,295.567 24.000 C 295.145 24.000,294.845 23.798,294.900 23.552 C 295.015 23.037,292.919 21.673,291.946 21.629 C 290.862 21.581,289.072 20.514,289.672 20.274 C 289.962 20.158,289.649 20.049,288.975 20.032 C 288.302 20.014,287.378 19.653,286.923 19.228 C 286.467 18.804,285.758 18.399,285.347 18.328 C 284.936 18.258,284.510 18.110,284.400 18.000 C 284.112 17.712,281.074 16.241,280.600 16.160 C 280.380 16.123,279.964 16.072,279.676 16.046 C 279.387 16.021,279.280 15.794,279.438 15.538 C 279.619 15.246,279.548 15.185,279.244 15.373 C 278.981 15.536,278.482 15.434,278.136 15.147 C 277.390 14.527,274.890 13.541,273.900 13.475 C 273.515 13.449,273.200 13.277,273.200 13.091 C 273.200 12.905,273.035 12.855,272.832 12.980 C 272.630 13.105,272.180 12.923,271.832 12.575 C 271.460 12.203,271.200 12.131,271.200 12.400 C 271.200 12.661,270.918 12.575,270.542 12.199 C 270.063 11.720,269.805 11.669,269.593 12.011 C 269.394 12.333,269.097 12.189,268.651 11.552 C 268.293 11.040,268.000 10.757,268.000 10.921 C 268.000 11.086,267.469 10.946,266.820 10.610 C 265.427 9.890,265.055 9.842,265.418 10.430 C 265.718 10.915,263.937 9.988,263.550 9.457 C 263.413 9.269,263.165 9.333,263.000 9.600 C 262.791 9.938,262.619 9.954,262.433 9.653 C 262.286 9.415,261.813 9.165,261.383 9.099 C 260.952 9.032,260.420 8.875,260.200 8.750 C 259.980 8.625,258.940 8.291,257.890 8.007 C 256.839 7.723,255.883 7.335,255.766 7.145 C 255.649 6.955,254.854 6.800,254.000 6.800 C 253.146 6.800,252.351 6.644,252.233 6.454 C 252.116 6.264,251.321 6.014,250.466 5.900 C 249.612 5.785,248.303 5.416,247.557 5.079 C 246.237 4.484,245.073 4.217,241.822 3.764 C 240.954 3.643,239.897 3.359,239.473 3.132 C 238.923 2.838,238.781 2.846,238.975 3.160 C 239.130 3.411,238.969 3.600,238.600 3.600 C 238.244 3.600,238.064 3.420,238.200 3.200 C 238.349 2.958,237.804 2.800,236.824 2.800 C 235.931 2.800,235.200 2.665,235.199 2.500 C 235.199 2.335,234.090 2.164,232.735 2.120 C 231.380 2.076,230.165 1.877,230.036 1.679 C 229.906 1.481,228.732 1.286,227.426 1.247 C 226.120 1.207,224.833 0.993,224.565 0.771 C 224.228 0.491,224.014 0.526,223.870 0.883 C 223.712 1.279,223.656 1.283,223.632 0.900 C 223.614 0.625,223.409 0.400,223.176 0.400 C 222.943 0.400,222.864 0.579,222.999 0.799 C 223.162 1.062,222.900 1.066,222.227 0.810 C 221.667 0.597,216.436 0.303,210.604 0.157 L 200.000 -0.108 200.000 200.001 M249.888 117.540 C 252.244 118.056,254.971 119.747,256.286 121.509 C 256.899 122.329,257.535 123.060,257.700 123.133 C 257.865 123.207,258.000 123.601,258.000 124.010 C 258.000 124.418,258.160 124.852,258.356 124.973 C 259.233 125.515,259.336 131.876,259.467 193.300 L 259.605 258.400 278.179 258.400 C 290.130 258.400,296.841 258.543,297.000 258.800 C 297.136 259.020,297.591 259.200,298.011 259.200 C 299.164 259.200,301.598 260.698,303.111 262.339 C 309.660 269.438,306.031 280.087,296.154 282.755 C 293.859 283.375,247.341 283.375,245.046 282.755 C 242.344 282.025,239.971 280.708,238.316 279.019 C 236.869 277.543,236.490 276.907,235.256 273.881 C 234.652 272.400,234.597 126.973,235.200 126.600 C 235.420 126.464,235.600 126.031,235.600 125.638 C 235.600 121.913,243.666 116.128,247.600 117.032 C 247.930 117.108,248.959 117.337,249.888 117.540 M136.600 117.569 C 135.236 117.703,137.048 117.803,140.800 117.802 C 144.839 117.801,146.546 117.699,145.200 117.540 C 142.619 117.234,139.931 117.243,136.600 117.569 M131.400 118.400 L 130.600 118.744 131.400 118.732 C 131.840 118.726,132.650 118.576,133.200 118.400 L 134.200 118.080 133.200 118.068 C 132.650 118.062,131.840 118.211,131.400 118.400 M149.200 118.400 C 149.750 118.576,150.560 118.720,151.000 118.720 C 151.633 118.720,151.592 118.654,150.800 118.400 C 150.250 118.224,149.440 118.080,149.000 118.080 C 148.367 118.080,148.408 118.146,149.200 118.400 M128.200 119.192 C 127.540 119.363,126.550 119.710,126.000 119.963 L 125.000 120.423 126.000 120.184 C 128.684 119.545,129.683 119.250,129.898 119.035 C 130.185 118.748,129.768 118.787,128.200 119.192 M154.400 119.590 C 155.610 120.023,156.780 120.375,157.000 120.373 C 157.724 120.365,154.954 119.296,153.562 119.047 C 152.683 118.889,152.980 119.082,154.400 119.590 M122.500 121.189 C 121.565 121.614,120.800 122.050,120.800 122.158 C 120.800 122.340,124.390 120.883,124.767 120.548 C 125.199 120.164,124.033 120.493,122.500 121.189 M160.350 121.782 C 161.972 122.560,163.952 123.573,164.750 124.032 C 165.621 124.535,165.881 124.603,165.400 124.202 C 164.402 123.370,159.743 120.997,158.400 120.637 C 157.850 120.489,158.727 121.005,160.350 121.782 M118.100 123.426 C 115.771 124.822,115.942 125.096,118.300 123.746 C 120.572 122.445,120.635 122.399,120.167 122.404 C 119.965 122.406,119.035 122.866,118.100 123.426 M114.629 125.409 C 114.205 125.729,113.938 126.071,114.035 126.169 C 114.132 126.266,114.659 126.002,115.206 125.582 C 115.753 125.161,116.020 124.820,115.800 124.822 C 115.580 124.824,115.053 125.088,114.629 125.409 M112.200 127.304 C 110.655 128.435,109.866 129.200,110.053 129.386 C 110.134 129.468,111.011 128.834,112.000 127.979 C 113.978 126.270,114.079 125.928,112.200 127.304 M170.400 127.843 C 171.390 128.683,173.630 130.817,175.378 132.585 C 177.126 134.353,178.122 135.260,177.592 134.600 C 176.055 132.687,171.388 128.183,169.933 127.208 C 169.070 126.630,169.234 126.854,170.400 127.843 M106.949 132.100 C 104.622 134.546,102.243 137.600,102.666 137.600 C 102.865 137.600,103.326 137.105,103.691 136.500 C 104.328 135.445,105.091 134.540,107.743 131.700 C 108.411 130.985,108.869 130.400,108.762 130.400 C 108.654 130.400,107.839 131.165,106.949 132.100 M179.697 137.800 C 180.455 138.900,181.496 140.563,182.009 141.496 C 182.522 142.428,183.008 143.126,183.088 143.045 C 183.324 142.809,180.450 138.095,179.340 136.900 C 178.628 136.133,178.736 136.406,179.697 137.800 M101.508 138.900 C 101.187 139.395,100.707 140.250,100.440 140.800 C 99.760 142.203,100.994 140.706,101.841 139.100 C 102.539 137.774,102.323 137.644,101.508 138.900 M139.700 141.491 C 140.525 141.578,141.875 141.578,142.700 141.491 C 143.525 141.405,142.850 141.334,141.200 141.334 C 139.550 141.334,138.875 141.405,139.700 141.491 M135.000 142.000 L 134.200 142.344 135.000 142.366 C 135.440 142.378,136.070 142.213,136.400 142.000 C 137.195 141.486,136.196 141.486,135.000 142.000 M146.000 142.000 C 146.330 142.213,146.960 142.378,147.400 142.366 L 148.200 142.344 147.400 142.000 C 146.204 141.486,145.205 141.486,146.000 142.000 M128.060 145.203 C 127.147 145.864,126.400 146.503,126.400 146.623 C 126.400 146.811,128.654 145.277,129.780 144.322 C 130.727 143.519,129.556 144.118,128.060 145.203 M152.400 144.124 C 152.400 144.217,153.165 144.799,154.100 145.418 C 155.035 146.036,156.493 147.241,157.341 148.097 C 158.188 148.952,158.960 149.574,159.055 149.479 C 159.303 149.230,155.148 145.534,153.658 144.677 C 152.966 144.280,152.400 144.031,152.400 144.124 M124.193 148.407 C 123.337 149.283,122.767 150.000,122.926 150.000 C 123.297 150.000,126.078 147.145,125.890 146.957 C 125.812 146.879,125.048 147.531,124.193 148.407 M160.713 152.349 C 161.531 153.642,162.272 154.634,162.361 154.555 C 162.541 154.394,159.694 150.000,159.409 150.000 C 159.308 150.000,159.895 151.057,160.713 152.349 M186.012 150.800 C 186.012 151.130,186.187 151.670,186.400 152.000 C 186.745 152.533,186.788 152.533,186.788 152.000 C 186.788 151.670,186.613 151.130,186.400 150.800 C 186.055 150.267,186.012 150.267,186.012 150.800 M95.473 152.153 C 95.323 152.545,95.211 153.166,95.225 153.533 C 95.242 153.975,95.381 153.874,95.637 153.234 C 95.849 152.703,95.961 152.082,95.885 151.854 C 95.809 151.627,95.624 151.761,95.473 152.153 M120.181 154.037 C 119.829 154.718,119.612 155.345,119.699 155.432 C 119.786 155.519,120.156 154.962,120.522 154.195 C 121.344 152.470,121.059 152.338,120.181 154.037 M186.834 153.600 C 186.846 153.930,187.011 154.560,187.200 155.000 L 187.544 155.800 187.566 155.000 C 187.578 154.560,187.413 153.930,187.200 153.600 C 186.855 153.067,186.815 153.067,186.834 153.600 M94.649 155.415 C 94.512 155.773,94.418 156.546,94.440 157.133 C 94.473 157.991,94.552 157.895,94.846 156.640 C 95.222 155.039,95.095 154.253,94.649 155.415 M187.857 159.400 C 187.991 160.720,188.168 161.875,188.250 161.967 C 188.569 162.321,188.324 158.556,187.979 157.800 C 187.738 157.272,187.696 157.816,187.857 159.400 M118.249 159.015 C 118.112 159.373,118.016 160.056,118.036 160.533 C 118.062 161.147,118.185 161.008,118.459 160.056 C 118.857 158.672,118.694 157.858,118.249 159.015 M93.850 161.250 C 93.518 162.908,93.605 237.935,93.940 239.124 C 94.083 239.632,94.200 222.037,94.200 200.024 C 94.200 178.011,94.178 160.000,94.150 160.000 C 94.123 160.000,93.988 160.563,93.850 161.250 M164.308 168.000 C 164.376 172.510,164.488 176.650,164.556 177.200 C 164.624 177.750,164.686 174.600,164.693 170.200 C 164.700 165.800,164.588 161.660,164.444 161.000 C 164.301 160.340,164.239 163.490,164.308 168.000 M117.792 200.000 C 117.792 220.570,117.840 228.985,117.900 218.700 C 117.959 208.415,117.959 191.585,117.900 181.300 C 117.840 171.015,117.792 179.430,117.792 200.000 M188.054 178.067 C 188.025 178.434,187.884 179.064,187.741 179.467 C 187.541 180.033,187.595 180.096,187.975 179.746 C 188.246 179.497,188.387 178.867,188.288 178.346 C 188.190 177.826,188.084 177.700,188.054 178.067 M164.800 179.553 C 164.800 180.096,165.925 182.400,166.190 182.400 C 166.361 182.400,165.249 179.540,164.958 179.233 C 164.871 179.142,164.800 179.286,164.800 179.553 M186.126 182.942 C 185.450 183.901,184.201 185.196,183.349 185.820 C 181.102 187.468,180.834 187.775,182.281 187.045 C 183.803 186.278,186.251 183.842,187.050 182.300 C 187.875 180.708,187.532 180.947,186.126 182.942 M166.728 183.400 C 167.129 184.204,168.469 185.511,169.619 186.219 C 169.959 186.429,169.779 186.200,169.219 185.712 C 168.659 185.223,167.779 184.323,167.264 183.712 C 166.711 183.054,166.492 182.927,166.728 183.400 M173.200 187.982 C 173.530 188.205,174.145 188.391,174.567 188.394 C 175.590 188.402,175.271 188.173,173.800 187.844 C 172.924 187.648,172.762 187.685,173.200 187.982 M178.400 188.000 L 177.400 188.320 178.476 188.360 C 179.068 188.382,179.664 188.220,179.800 188.000 C 180.081 187.545,179.820 187.545,178.400 188.000 M173.338 211.906 C 173.083 212.068,174.461 212.200,176.399 212.200 C 178.337 212.200,179.839 212.065,179.738 211.900 C 179.500 211.514,173.947 211.519,173.338 211.906 M169.440 213.902 C 168.361 214.726,167.191 215.846,166.840 216.391 C 166.478 216.951,166.931 216.656,167.879 215.713 C 168.802 214.794,170.107 213.758,170.779 213.411 C 171.957 212.802,172.326 212.398,171.700 212.402 C 171.535 212.403,170.518 213.078,169.440 213.902 M183.766 214.476 C 184.618 215.178,185.829 216.563,186.457 217.555 C 187.086 218.546,187.599 219.186,187.599 218.978 C 187.594 217.852,183.586 213.200,182.621 213.200 C 182.399 213.200,182.914 213.774,183.766 214.476 M165.356 219.043 C 165.024 219.837,164.826 220.559,164.914 220.648 C 165.003 220.736,165.359 220.087,165.705 219.204 C 166.489 217.209,166.182 217.068,165.356 219.043 M187.840 221.066 C 188.208 222.599,188.400 222.744,188.400 221.490 C 188.400 220.917,188.213 220.332,187.984 220.190 C 187.711 220.021,187.662 220.323,187.840 221.066 M164.486 229.400 C 164.434 233.580,164.306 237.720,164.202 238.600 L 164.012 240.200 164.415 238.630 C 164.638 237.756,164.765 233.671,164.699 229.430 L 164.582 221.800 164.486 229.400 M188.070 239.050 C 188.031 239.738,187.905 240.907,187.789 241.650 C 187.596 242.886,187.615 242.917,188.008 242.014 C 188.244 241.472,188.371 240.302,188.289 239.414 C 188.168 238.102,188.127 238.033,188.070 239.050 M118.046 239.600 C 118.027 240.150,118.187 240.870,118.400 241.200 C 118.894 241.964,118.894 241.142,118.400 239.600 L 118.080 238.600 118.046 239.600 M94.406 243.033 C 94.409 243.675,94.596 244.470,94.821 244.800 C 95.114 245.230,95.154 244.946,94.962 243.800 C 94.630 241.816,94.398 241.496,94.406 243.033 M119.600 244.553 C 119.600 244.982,120.790 247.200,121.021 247.200 C 121.131 247.200,120.923 246.615,120.559 245.900 C 119.817 244.440,119.600 244.136,119.600 244.553 M187.000 245.600 C 186.848 246.291,186.814 246.947,186.924 247.057 C 187.034 247.167,187.248 246.691,187.400 246.000 C 187.552 245.309,187.586 244.653,187.476 244.543 C 187.366 244.433,187.152 244.909,187.000 245.600 M160.434 248.148 C 158.638 250.904,156.729 252.842,154.083 254.593 C 152.087 255.914,151.861 256.345,153.700 255.323 C 155.575 254.281,160.441 249.291,161.526 247.300 C 162.886 244.802,162.335 245.229,160.434 248.148 M95.234 246.600 C 95.222 247.040,95.387 247.670,95.600 248.000 C 96.114 248.795,96.114 247.796,95.600 246.600 L 95.256 245.800 95.234 246.600 M186.229 248.629 C 186.081 249.215,186.038 249.772,186.132 249.866 C 186.227 249.960,186.424 249.558,186.571 248.971 C 186.719 248.385,186.762 247.828,186.668 247.734 C 186.573 247.640,186.376 248.042,186.229 248.629 M124.200 251.552 C 126.345 253.866,132.318 257.885,131.397 256.395 C 131.263 256.178,130.971 256.000,130.748 256.000 C 130.141 256.000,126.861 253.669,124.600 251.630 L 122.600 249.827 124.200 251.552 M134.800 258.000 C 136.168 258.438,137.219 258.438,136.200 258.000 C 135.760 257.811,135.040 257.662,134.600 257.668 C 133.957 257.677,133.996 257.743,134.800 258.000 M146.000 258.000 C 145.236 258.494,146.058 258.494,147.600 258.000 L 148.600 257.680 147.600 257.646 C 147.050 257.627,146.330 257.787,146.000 258.000 M100.600 259.600 C 100.941 260.260,101.311 260.800,101.421 260.800 C 101.531 260.800,101.341 260.260,101.000 259.600 C 100.659 258.940,100.289 258.400,100.179 258.400 C 100.069 258.400,100.259 258.940,100.600 259.600 M139.500 258.693 C 140.435 258.777,141.965 258.777,142.900 258.693 C 143.835 258.609,143.070 258.540,141.200 258.540 C 139.330 258.540,138.565 258.609,139.500 258.693 M180.338 261.200 C 179.320 262.740,178.603 263.998,178.744 263.995 C 178.997 263.990,180.224 262.215,181.710 259.700 C 183.055 257.425,182.256 258.300,180.338 261.200 M103.468 263.900 C 104.077 264.725,105.915 266.750,107.550 268.400 L 110.525 271.400 107.470 268.075 C 105.791 266.247,104.104 264.222,103.722 263.575 C 103.340 262.929,102.877 262.400,102.693 262.400 C 102.510 262.400,102.858 263.075,103.468 263.900 M172.800 270.069 C 170.951 271.816,170.567 272.284,171.800 271.289 C 173.713 269.745,176.342 267.181,175.975 267.217 C 175.879 267.227,174.450 268.510,172.800 270.069 M110.800 271.500 C 110.800 271.669,111.160 272.032,111.600 272.307 C 112.040 272.582,112.400 272.669,112.400 272.500 C 112.400 272.331,112.040 271.968,111.600 271.693 C 111.160 271.418,110.800 271.331,110.800 271.500 M114.000 273.885 C 114.000 274.234,115.599 275.338,115.800 275.128 C 115.867 275.057,115.489 274.677,114.961 274.281 C 114.432 273.886,114.000 273.708,114.000 273.885 M167.194 274.418 C 166.647 274.839,166.380 275.180,166.600 275.178 C 167.129 275.173,168.591 274.058,168.365 273.831 C 168.268 273.734,167.741 273.998,167.194 274.418 M117.782 276.371 C 118.148 276.963,123.229 279.259,123.726 279.056 C 124.067 278.917,124.057 278.854,123.689 278.832 C 123.408 278.814,121.916 278.176,120.374 277.414 C 118.832 276.652,117.666 276.183,117.782 276.371 M163.400 276.692 C 162.740 277.054,160.850 277.945,159.200 278.671 C 156.204 279.988,155.752 280.444,158.400 279.477 C 160.161 278.833,164.800 276.454,164.800 276.194 C 164.800 275.929,164.764 275.942,163.400 276.692 M153.600 280.587 C 152.610 280.879,151.107 281.239,150.259 281.385 C 149.412 281.532,148.819 281.753,148.943 281.876 C 149.224 282.157,155.263 280.799,155.780 280.339 C 156.291 279.883,155.793 279.940,153.600 280.587 M128.000 280.800 C 129.368 281.238,130.419 281.238,129.400 280.800 C 128.960 280.611,128.240 280.462,127.800 280.468 C 127.157 280.477,127.196 280.543,128.000 280.800 M131.200 281.600 C 131.750 281.776,132.560 281.920,133.000 281.920 C 133.633 281.920,133.592 281.854,132.800 281.600 C 132.250 281.424,131.440 281.280,131.000 281.280 C 130.367 281.280,130.408 281.346,131.200 281.600 M136.400 282.394 C 139.180 282.728,144.243 282.899,143.967 282.649 C 143.875 282.566,141.550 282.405,138.800 282.290 C 135.404 282.148,134.634 282.181,136.400 282.394 M145.300 282.287 C 145.905 282.378,146.895 282.378,147.500 282.287 C 148.105 282.195,147.610 282.120,146.400 282.120 C 145.190 282.120,144.695 282.195,145.300 282.287 " stroke="none" fill="#ececf4" fill-rule="evenodd"></path><path id="path1" d="M245.900 117.889 C 246.615 117.978,247.785 117.978,248.500 117.889 C 249.215 117.801,248.630 117.728,247.200 117.728 C 245.770 117.728,245.185 117.801,245.900 117.889 M134.400 118.440 C 125.745 120.144,121.566 121.806,115.000 126.156 C 105.504 132.448,98.947 141.954,95.678 154.170 L 94.600 158.200 94.600 199.800 L 94.600 241.400 95.523 245.200 C 106.092 288.706,163.642 295.435,183.283 255.460 C 188.450 244.942,189.942 223.181,185.906 217.192 C 181.976 211.359,173.533 210.493,168.609 215.418 C 165.632 218.394,165.453 219.127,165.146 229.600 C 164.772 242.352,163.590 246.308,158.636 251.391 C 144.362 266.036,121.047 258.765,117.620 238.600 C 116.774 233.621,117.214 161.657,118.108 158.668 C 123.581 140.387,145.376 134.889,158.461 148.490 C 163.579 153.810,164.778 157.745,165.137 170.400 L 165.404 179.800 166.594 181.952 C 171.097 190.096,182.528 189.714,186.841 181.277 C 188.489 178.053,188.253 160.151,186.474 153.400 C 185.221 148.647,181.384 140.019,179.713 138.200 C 179.309 137.760,178.544 136.770,178.013 136.000 C 169.686 123.917,148.961 115.573,134.400 118.440 M242.800 118.400 C 242.267 118.745,242.267 118.788,242.800 118.788 C 243.130 118.788,243.670 118.613,244.000 118.400 C 244.533 118.055,244.533 118.012,244.000 118.012 C 243.670 118.012,243.130 118.187,242.800 118.400 M251.600 118.851 C 254.003 119.911,256.285 122.156,257.444 124.600 L 258.392 126.600 258.396 192.420 C 258.399 243.076,258.511 258.351,258.880 258.720 C 259.239 259.079,263.954 259.200,277.634 259.200 C 300.420 259.200,301.238 259.398,304.373 265.672 C 305.048 267.023,305.600 267.846,305.600 267.502 C 305.600 265.518,302.611 261.849,299.489 260.000 L 297.800 259.000 279.200 258.899 C 268.970 258.844,260.195 258.705,259.700 258.591 L 258.800 258.385 258.770 192.492 C 258.737 121.456,258.868 125.563,256.523 122.248 C 255.275 120.482,251.642 117.981,250.400 118.032 C 250.070 118.045,250.610 118.414,251.600 118.851 M239.449 120.441 C 238.423 121.343,237.382 122.468,237.135 122.941 C 236.888 123.413,237.477 122.981,238.443 121.981 C 239.409 120.981,240.650 119.865,241.200 119.502 C 241.750 119.139,242.000 118.833,241.756 118.821 C 241.512 118.809,240.474 119.538,239.449 120.441 M235.911 125.045 C 235.334 126.349,234.928 271.994,235.497 273.533 C 235.664 273.983,235.800 241.018,235.800 200.276 C 235.800 139.345,235.894 126.034,236.332 125.266 C 236.625 124.752,236.765 124.232,236.644 124.110 C 236.522 123.989,236.192 124.409,235.911 125.045 M305.675 270.600 C 305.670 272.422,305.746 272.743,305.991 271.934 C 306.168 271.347,306.171 270.267,305.997 269.534 C 305.729 268.400,305.681 268.560,305.675 270.600 M305.246 273.467 C 305.221 273.724,305.084 274.264,304.941 274.667 C 304.740 275.236,304.794 275.297,305.179 274.942 C 305.452 274.691,305.589 274.151,305.484 273.742 C 305.379 273.334,305.272 273.210,305.246 273.467 M237.114 277.029 C 238.150 278.987,242.167 282.020,243.684 281.990 C 243.968 281.984,243.300 281.530,242.200 280.980 C 241.100 280.431,239.407 279.130,238.437 278.090 C 237.468 277.051,236.872 276.573,237.114 277.029 M302.378 278.650 C 301.620 279.448,300.100 280.518,299.000 281.027 C 297.900 281.537,297.270 281.963,297.600 281.973 C 298.635 282.006,302.289 279.680,303.191 278.413 C 304.339 276.800,304.059 276.882,302.378 278.650 M245.800 282.423 C 247.887 282.855,293.313 282.855,295.400 282.423 C 296.306 282.236,285.550 282.092,270.600 282.092 C 255.650 282.092,244.894 282.236,245.800 282.423 " stroke="none" fill="#dcdcec" fill-rule="evenodd"></path><path id="path2" d="M181.543 0.190 C 181.439 0.294,179.924 0.405,178.177 0.435 C 176.430 0.465,174.805 0.647,174.567 0.839 C 174.328 1.031,172.929 1.214,171.458 1.245 C 169.987 1.277,168.686 1.460,168.568 1.652 C 168.450 1.843,167.384 2.000,166.200 2.000 C 165.016 2.000,163.936 2.180,163.800 2.400 C 163.664 2.620,162.944 2.800,162.200 2.800 C 161.456 2.800,160.736 2.980,160.600 3.200 C 160.464 3.420,159.373 3.600,158.176 3.600 C 156.979 3.600,156.000 3.780,156.000 4.000 C 156.000 4.220,155.280 4.400,154.400 4.400 C 153.520 4.400,152.800 4.580,152.800 4.800 C 152.800 5.020,152.080 5.200,151.200 5.200 C 150.320 5.200,149.600 5.380,149.600 5.600 C 149.600 5.820,148.880 6.000,148.000 6.000 C 147.120 6.000,146.400 6.180,146.400 6.400 C 146.400 6.620,145.770 6.800,145.000 6.800 C 144.230 6.800,143.600 6.980,143.600 7.200 C 143.600 7.420,143.049 7.600,142.376 7.600 C 141.703 7.600,141.250 7.757,141.369 7.949 C 141.487 8.141,140.508 8.420,139.192 8.569 C 137.876 8.718,136.800 9.011,136.800 9.220 C 136.800 9.429,136.260 9.600,135.600 9.600 C 134.940 9.600,134.400 9.780,134.400 10.000 C 134.400 10.220,133.882 10.400,133.249 10.400 C 132.616 10.400,131.872 10.672,131.596 11.005 C 131.319 11.338,130.887 11.563,130.634 11.505 C 130.213 11.409,127.583 12.374,125.905 13.241 C 125.523 13.438,124.938 13.600,124.605 13.600 C 124.272 13.600,124.000 13.780,124.000 14.000 C 124.000 14.220,123.640 14.400,123.200 14.400 C 122.760 14.400,122.400 14.580,122.400 14.800 C 122.400 15.020,122.265 15.179,122.100 15.153 C 121.011 14.981,120.000 15.286,120.000 15.787 C 120.000 16.130,119.764 16.284,119.432 16.157 C 119.120 16.037,118.400 16.244,117.832 16.616 C 117.265 16.988,116.800 17.150,116.800 16.976 C 116.800 16.803,116.321 17.097,115.735 17.630 C 115.150 18.164,114.801 18.375,114.959 18.100 C 115.463 17.226,114.616 17.563,114.056 18.459 C 113.623 19.152,113.452 19.210,113.166 18.759 C 112.913 18.360,112.810 18.343,112.806 18.700 C 112.803 18.975,112.440 19.200,112.000 19.200 C 111.560 19.200,111.200 19.368,111.200 19.574 C 111.200 19.780,110.570 20.176,109.800 20.454 C 109.030 20.733,108.400 21.105,108.400 21.280 C 108.400 21.456,108.029 21.600,107.576 21.600 C 107.123 21.600,106.864 21.780,107.000 22.000 C 107.141 22.228,106.796 22.400,106.200 22.400 C 105.604 22.400,105.259 22.572,105.400 22.800 C 105.540 23.027,105.204 23.200,104.624 23.200 C 104.061 23.200,103.600 23.358,103.600 23.550 C 103.600 23.743,102.537 24.417,101.237 25.048 C 99.937 25.679,98.975 26.360,99.099 26.560 C 99.222 26.760,99.132 26.805,98.898 26.661 C 98.271 26.273,97.200 26.793,97.200 27.486 C 97.200 27.849,96.968 27.997,96.613 27.860 C 96.290 27.736,95.902 27.835,95.751 28.079 C 95.573 28.367,95.661 28.410,96.000 28.200 C 96.339 27.990,96.427 28.033,96.249 28.321 C 96.098 28.565,95.705 28.662,95.375 28.535 C 95.037 28.405,94.456 28.674,94.041 29.153 C 93.637 29.619,93.056 30.000,92.749 30.000 C 92.443 30.000,91.968 30.360,91.693 30.800 C 91.418 31.240,90.854 31.600,90.439 31.600 C 90.025 31.600,89.582 31.870,89.455 32.200 C 89.329 32.530,88.968 32.800,88.655 32.800 C 88.341 32.800,87.507 33.339,86.802 33.998 C 86.096 34.658,85.329 35.080,85.098 34.937 C 84.851 34.784,84.795 34.868,84.962 35.138 C 85.131 35.412,84.993 35.600,84.624 35.600 C 84.281 35.600,84.000 35.780,84.000 36.000 C 84.000 36.220,83.717 36.400,83.371 36.400 C 82.733 36.400,81.269 37.587,81.871 37.616 C 82.052 37.625,81.660 37.933,81.000 38.300 C 80.340 38.667,79.665 38.930,79.500 38.884 C 79.335 38.838,79.200 39.081,79.200 39.424 C 79.200 39.767,79.053 39.956,78.873 39.845 C 78.693 39.734,78.293 39.993,77.985 40.421 C 77.676 40.850,77.187 41.200,76.899 41.200 C 76.611 41.200,76.271 41.470,76.145 41.800 C 76.018 42.130,75.729 42.400,75.503 42.400 C 75.277 42.400,74.711 42.811,74.246 43.313 C 73.781 43.815,73.220 44.273,73.000 44.332 C 72.215 44.540,70.851 45.760,71.048 46.077 C 71.157 46.255,70.967 46.400,70.624 46.400 C 70.281 46.400,70.000 46.538,70.000 46.706 C 70.000 46.874,69.278 47.458,68.395 48.003 C 67.512 48.549,66.874 49.216,66.977 49.485 C 67.081 49.754,66.993 50.081,66.783 50.211 C 66.572 50.341,66.400 50.249,66.400 50.008 C 66.400 49.725,66.201 49.752,65.842 50.084 C 65.535 50.368,65.366 50.735,65.466 50.900 C 65.565 51.065,65.367 51.200,65.024 51.200 C 64.653 51.200,64.387 51.565,64.368 52.100 C 64.351 52.595,64.251 52.791,64.147 52.536 C 64.024 52.234,63.641 52.374,63.053 52.936 C 62.555 53.411,62.216 53.935,62.298 54.100 C 62.380 54.265,62.156 54.400,61.800 54.400 C 61.444 54.400,61.264 54.580,61.400 54.800 C 61.536 55.020,61.439 55.200,61.184 55.200 C 60.929 55.200,60.199 55.785,59.562 56.500 C 58.135 58.100,58.100 58.135,56.500 59.562 C 55.785 60.199,55.200 60.929,55.200 61.184 C 55.200 61.439,55.020 61.536,54.800 61.400 C 54.580 61.264,54.400 61.444,54.400 61.800 C 54.400 62.156,54.220 62.336,54.000 62.200 C 53.780 62.064,53.600 62.233,53.600 62.576 C 53.600 62.919,53.448 63.200,53.261 63.200 C 52.740 63.200,51.375 64.517,51.085 65.300 C 50.942 65.685,50.627 66.000,50.384 66.000 C 49.841 66.000,49.259 66.587,48.006 68.400 C 47.473 69.170,46.718 70.088,46.326 70.441 C 45.935 70.793,45.731 71.198,45.874 71.341 C 46.017 71.483,45.853 71.600,45.509 71.600 C 44.965 71.600,44.479 72.186,44.513 72.800 C 44.519 72.910,43.776 73.802,42.862 74.782 C 41.948 75.763,41.200 76.725,41.200 76.922 C 41.200 77.118,40.705 77.756,40.100 78.340 C 39.495 78.923,38.745 79.895,38.432 80.500 C 38.120 81.105,37.705 81.600,37.509 81.600 C 37.313 81.600,37.264 81.780,37.400 82.000 C 37.536 82.220,37.367 82.400,37.024 82.400 C 36.681 82.400,36.400 82.720,36.400 83.112 C 36.400 83.503,36.040 84.083,35.600 84.400 C 35.160 84.717,34.800 85.215,34.800 85.506 C 34.800 85.798,34.350 86.486,33.800 87.036 C 33.250 87.586,32.800 88.304,32.800 88.631 C 32.800 88.958,32.530 89.329,32.200 89.455 C 31.870 89.582,31.600 89.902,31.600 90.167 C 31.600 90.432,31.284 90.998,30.897 91.425 C 30.511 91.851,29.974 92.695,29.706 93.300 C 29.437 93.905,29.023 94.400,28.785 94.400 C 28.547 94.400,28.476 94.600,28.628 94.845 C 28.779 95.089,28.656 95.442,28.355 95.628 C 28.053 95.814,27.805 96.242,27.803 96.579 C 27.802 96.916,27.650 97.148,27.468 97.096 C 27.051 96.976,26.003 98.882,26.259 99.295 C 26.362 99.463,26.246 99.600,26.000 99.600 C 25.754 99.600,25.664 99.780,25.800 100.000 C 25.936 100.220,25.899 100.400,25.718 100.400 C 25.393 100.400,24.679 101.552,24.171 102.900 C 24.026 103.285,23.748 103.600,23.553 103.600 C 23.359 103.600,23.200 104.061,23.200 104.624 C 23.200 105.204,23.027 105.540,22.800 105.400 C 22.580 105.264,22.400 105.398,22.400 105.697 C 22.400 106.451,21.465 108.393,21.100 108.397 C 20.935 108.399,20.800 108.670,20.800 109.000 C 20.800 109.330,20.601 109.600,20.357 109.600 C 20.114 109.600,20.021 109.877,20.150 110.215 C 20.285 110.565,20.131 110.928,19.796 111.057 C 19.471 111.182,19.295 111.430,19.406 111.610 C 19.517 111.789,19.336 112.207,19.004 112.539 C 18.672 112.871,18.400 113.526,18.400 113.995 C 18.400 114.464,18.220 114.736,18.000 114.600 C 17.780 114.464,17.600 114.636,17.600 114.982 C 17.600 115.328,17.392 116.013,17.138 116.505 C 16.167 118.382,16.000 118.807,16.000 119.395 C 16.000 119.728,15.820 120.000,15.600 120.000 C 15.380 120.000,15.221 120.135,15.247 120.300 C 15.390 121.204,15.148 122.015,14.800 121.800 C 14.574 121.660,14.400 121.988,14.400 122.553 C 14.400 123.103,14.220 123.664,14.000 123.800 C 13.780 123.936,13.600 124.497,13.600 125.047 C 13.600 125.612,13.426 125.940,13.200 125.800 C 12.973 125.660,12.800 125.996,12.800 126.576 C 12.800 127.139,12.620 127.600,12.400 127.600 C 12.180 127.600,12.000 127.949,12.000 128.376 C 12.000 128.803,11.820 129.264,11.600 129.400 C 11.380 129.536,11.200 130.076,11.200 130.600 C 11.200 131.124,11.020 131.664,10.800 131.800 C 10.580 131.936,10.400 132.476,10.400 133.000 C 10.400 133.524,10.242 134.050,10.050 134.169 C 9.857 134.288,9.700 134.876,9.700 135.476 C 9.700 136.076,9.505 136.632,9.267 136.711 C 9.028 136.791,8.713 137.920,8.566 139.220 C 8.419 140.520,8.141 141.487,7.949 141.369 C 7.757 141.250,7.600 141.703,7.600 142.376 C 7.600 143.049,7.420 143.600,7.200 143.600 C 6.980 143.600,6.800 143.791,6.800 144.024 C 6.800 144.257,7.025 144.320,7.300 144.165 C 7.700 143.939,7.700 143.990,7.300 144.421 C 7.025 144.718,6.800 145.284,6.800 145.680 C 6.800 146.076,6.575 146.403,6.300 146.406 C 5.932 146.411,5.943 146.503,6.343 146.756 C 6.721 146.996,6.751 147.183,6.443 147.374 C 6.199 147.524,6.000 148.087,6.000 148.624 C 6.000 149.161,5.838 149.600,5.640 149.600 C 5.442 149.600,5.181 150.365,5.059 151.300 C 4.647 154.458,4.314 156.000,4.043 156.000 C 3.895 156.000,3.733 156.945,3.683 158.100 C 3.633 159.255,3.414 160.260,3.196 160.333 C 2.978 160.407,2.800 161.161,2.800 162.010 C 2.800 162.858,2.620 163.664,2.400 163.800 C 2.180 163.936,2.000 165.016,2.000 166.200 C 2.000 167.384,1.843 168.450,1.652 168.568 C 1.460 168.686,1.277 169.987,1.245 171.458 C 1.214 172.929,0.965 174.401,0.694 174.728 C 0.100 175.443,-0.030 221.692,0.555 224.000 C 0.750 224.770,0.989 226.660,1.086 228.200 C 1.183 229.740,1.428 231.171,1.631 231.380 C 1.834 231.589,2.000 232.429,2.000 233.247 C 2.000 234.064,2.225 234.825,2.500 234.936 C 2.889 235.094,2.879 235.224,2.457 235.520 C 2.078 235.785,2.048 235.982,2.357 236.174 C 2.601 236.324,2.800 237.031,2.800 237.744 C 2.800 238.457,2.982 239.222,3.206 239.446 C 3.429 239.669,3.632 240.785,3.658 241.926 C 3.683 243.066,3.841 244.000,4.008 244.000 C 4.295 244.000,4.529 245.003,5.058 248.503 C 5.182 249.329,5.445 250.105,5.642 250.226 C 5.839 250.348,6.000 250.977,6.000 251.624 C 6.000 252.295,6.215 252.803,6.500 252.806 C 6.833 252.810,6.800 252.942,6.400 253.200 C 6.000 253.458,5.967 253.590,6.300 253.594 C 6.604 253.598,6.800 254.150,6.800 255.000 C 6.800 255.770,6.980 256.400,7.200 256.400 C 7.420 256.400,7.600 256.940,7.600 257.600 C 7.600 258.260,7.759 258.800,7.954 258.800 C 8.149 258.800,8.431 259.787,8.582 260.994 C 8.733 262.200,9.023 263.291,9.228 263.417 C 9.433 263.544,9.600 264.067,9.600 264.581 C 9.600 265.094,9.848 265.609,10.151 265.726 C 10.499 265.860,10.629 266.313,10.505 266.963 C 10.375 267.645,10.511 268.068,10.910 268.221 C 11.292 268.367,11.432 268.757,11.293 269.288 C 11.172 269.749,11.237 270.024,11.437 269.902 C 11.637 269.779,11.841 270.244,11.892 270.936 C 11.942 271.628,12.167 272.256,12.392 272.331 C 12.616 272.405,12.800 272.932,12.800 273.500 C 12.800 274.068,12.923 274.410,13.073 274.260 C 13.396 273.937,14.400 276.172,14.400 277.213 C 14.400 277.609,14.588 277.996,14.818 278.073 C 15.048 278.149,15.266 278.614,15.303 279.106 C 15.340 279.598,15.483 280.000,15.621 280.000 C 15.759 280.000,16.112 280.765,16.406 281.700 C 16.699 282.635,17.088 283.571,17.270 283.780 C 17.451 283.989,17.600 284.444,17.600 284.792 C 17.600 285.139,17.956 285.680,18.391 285.994 C 18.973 286.413,19.052 286.646,18.691 286.876 C 18.306 287.121,18.308 287.189,18.700 287.194 C 18.975 287.197,19.200 287.560,19.200 288.000 C 19.200 288.440,19.346 288.800,19.525 288.800 C 19.704 288.800,20.095 289.423,20.393 290.183 C 20.692 290.944,21.173 291.657,21.461 291.768 C 21.773 291.888,21.882 292.260,21.730 292.685 C 21.588 293.078,21.618 293.268,21.797 293.106 C 22.187 292.752,23.200 294.585,23.200 295.646 C 23.200 296.061,23.361 296.400,23.557 296.400 C 23.754 296.400,24.502 297.653,25.221 299.184 C 25.944 300.727,26.707 301.857,26.931 301.719 C 27.170 301.571,27.236 301.728,27.093 302.101 C 26.951 302.472,27.099 302.829,27.451 302.964 C 27.781 303.091,27.939 303.376,27.802 303.597 C 27.665 303.819,27.743 304.000,27.976 304.000 C 28.209 304.000,28.400 304.360,28.400 304.800 C 28.400 305.280,28.667 305.600,29.067 305.600 C 29.433 305.600,29.613 305.720,29.466 305.868 C 29.319 306.015,29.497 306.465,29.861 306.868 C 30.226 307.270,30.366 307.600,30.173 307.600 C 29.980 307.600,30.222 307.880,30.711 308.223 C 31.200 308.565,31.600 309.176,31.600 309.580 C 31.600 309.984,31.870 310.418,32.200 310.545 C 32.530 310.671,32.800 311.019,32.800 311.318 C 32.800 311.616,33.250 312.283,33.800 312.800 C 34.350 313.317,34.800 314.028,34.800 314.381 C 34.800 314.735,35.160 315.283,35.600 315.600 C 36.040 315.917,36.400 316.497,36.400 316.888 C 36.400 317.280,36.674 317.600,37.010 317.600 C 37.345 317.600,37.777 318.012,37.968 318.516 C 38.160 319.020,38.605 319.673,38.958 319.965 C 39.311 320.258,39.600 320.706,39.600 320.961 C 39.600 321.215,39.960 321.683,40.400 322.000 C 40.840 322.317,41.200 322.801,41.200 323.074 C 41.200 323.348,41.575 323.773,42.034 324.018 C 42.493 324.264,42.766 324.567,42.642 324.692 C 42.517 324.817,42.728 325.207,43.110 325.559 C 43.493 325.912,44.061 326.698,44.374 327.308 C 44.783 328.102,45.034 328.272,45.266 327.908 C 45.484 327.564,45.590 327.690,45.594 328.300 C 45.597 328.795,45.735 329.155,45.900 329.100 C 46.065 329.045,46.282 329.180,46.382 329.400 C 46.482 329.620,46.963 330.199,47.451 330.687 C 47.939 331.175,48.440 331.897,48.565 332.291 C 48.690 332.685,49.199 333.192,49.696 333.418 C 50.193 333.644,50.551 334.061,50.490 334.344 C 50.430 334.628,50.556 334.751,50.770 334.619 C 50.984 334.486,51.372 334.774,51.631 335.258 C 52.139 336.207,54.000 338.196,54.000 337.790 C 54.000 337.654,54.270 337.813,54.600 338.143 C 54.930 338.473,55.200 338.863,55.200 339.011 C 55.200 339.158,55.785 339.801,56.500 340.438 C 57.215 341.076,57.932 341.733,58.094 341.899 C 58.255 342.064,59.428 343.280,60.699 344.600 C 61.971 345.920,63.144 347.045,63.306 347.100 C 63.468 347.155,63.626 347.335,63.659 347.500 C 63.691 347.665,64.231 348.112,64.859 348.494 C 65.486 348.876,66.000 349.395,66.000 349.647 C 66.000 350.224,67.558 351.600,68.210 351.600 C 68.479 351.600,69.275 352.275,69.979 353.100 C 70.684 353.925,71.382 354.573,71.530 354.540 C 71.679 354.507,71.764 354.616,71.719 354.783 C 71.675 354.949,72.120 355.336,72.710 355.643 C 73.299 355.949,74.408 356.785,75.174 357.500 C 75.940 358.215,76.799 358.800,77.083 358.800 C 77.368 358.800,77.600 358.980,77.600 359.200 C 77.600 359.420,77.881 359.600,78.224 359.600 C 78.567 359.600,78.765 359.735,78.666 359.900 C 78.452 360.253,79.199 360.949,79.977 361.121 C 80.640 361.267,82.308 362.400,81.860 362.400 C 81.686 362.400,81.813 362.670,82.143 363.000 C 82.473 363.330,82.986 363.600,83.283 363.600 C 83.580 363.600,84.076 363.950,84.385 364.379 C 84.693 364.807,85.072 365.079,85.225 364.984 C 85.379 364.889,86.111 365.347,86.852 366.002 C 87.594 366.657,88.515 367.296,88.900 367.423 C 89.285 367.550,89.600 367.822,89.600 368.027 C 89.600 368.232,89.950 368.400,90.377 368.400 C 90.805 368.400,91.406 368.759,91.713 369.197 C 92.020 369.636,92.362 369.904,92.473 369.793 C 92.584 369.683,93.133 370.017,93.694 370.536 C 94.716 371.484,95.690 372.019,96.789 372.238 C 97.113 372.303,97.606 372.667,97.885 373.048 C 98.164 373.430,98.510 373.623,98.655 373.478 C 98.800 373.333,99.243 373.588,99.638 374.044 C 100.034 374.500,100.547 374.756,100.779 374.613 C 101.010 374.470,101.200 374.543,101.200 374.776 C 101.200 375.009,101.436 375.200,101.725 375.200 C 102.013 375.200,102.655 375.578,103.151 376.040 C 103.647 376.502,104.161 376.772,104.294 376.639 C 104.427 376.507,104.896 376.714,105.336 377.099 C 105.929 377.618,106.060 377.644,105.838 377.200 C 105.674 376.870,105.868 376.960,106.270 377.400 C 106.671 377.840,107.360 378.261,107.800 378.335 C 108.240 378.409,108.972 378.814,109.426 379.235 C 109.880 379.656,110.450 380.000,110.692 380.000 C 110.935 380.000,111.224 380.225,111.335 380.500 C 111.481 380.862,111.546 380.845,111.568 380.439 C 111.592 380.025,111.784 380.077,112.300 380.639 C 112.685 381.057,113.268 381.459,113.596 381.532 C 113.924 381.605,114.326 381.875,114.490 382.132 C 114.709 382.475,114.789 382.463,114.794 382.084 C 114.798 381.753,115.113 381.860,115.675 382.384 C 116.157 382.833,116.866 383.200,117.252 383.200 C 117.637 383.200,118.064 383.380,118.200 383.600 C 118.336 383.820,118.797 384.000,119.224 384.000 C 119.651 384.000,120.000 384.191,120.000 384.424 C 120.000 384.657,120.165 384.745,120.368 384.620 C 120.570 384.495,121.006 384.663,121.336 384.993 C 121.790 385.447,121.984 385.472,122.136 385.096 C 122.295 384.704,122.343 384.704,122.368 385.100 C 122.386 385.375,122.760 385.600,123.200 385.600 C 123.640 385.600,124.000 385.799,124.000 386.043 C 124.000 386.286,124.277 386.379,124.615 386.250 C 124.965 386.115,125.328 386.269,125.458 386.607 C 125.583 386.933,126.074 387.200,126.549 387.200 C 127.023 387.200,128.070 387.552,128.873 387.983 C 129.677 388.414,130.714 388.694,131.178 388.604 C 131.643 388.515,131.916 388.612,131.787 388.821 C 131.658 389.029,131.788 389.227,132.076 389.261 C 132.364 389.294,132.780 389.344,133.000 389.371 C 133.220 389.399,133.670 389.592,134.000 389.800 C 134.330 390.009,135.047 390.241,135.593 390.316 C 136.138 390.391,136.705 390.647,136.852 390.884 C 136.999 391.122,137.402 391.208,137.747 391.076 C 138.092 390.943,138.481 391.007,138.611 391.217 C 138.741 391.428,139.377 391.600,140.024 391.600 C 140.671 391.600,141.200 391.780,141.200 392.000 C 141.200 392.220,141.729 392.400,142.376 392.400 C 143.023 392.400,143.664 392.580,143.800 392.800 C 143.936 393.020,144.577 393.200,145.224 393.200 C 145.871 393.200,146.400 393.375,146.400 393.588 C 146.400 393.801,147.065 393.951,147.877 393.920 C 148.696 393.889,149.424 394.073,149.511 394.332 C 149.603 394.608,150.517 394.803,151.733 394.806 C 153.215 394.811,153.630 394.922,153.200 395.200 C 152.761 395.484,153.055 395.589,154.300 395.594 C 155.235 395.597,156.000 395.780,156.000 396.000 C 156.000 396.220,156.900 396.400,158.000 396.400 C 159.100 396.400,160.000 396.580,160.000 396.800 C 160.000 397.020,160.900 397.200,162.000 397.200 C 163.100 397.200,164.000 397.380,164.000 397.600 C 164.000 397.822,165.059 398.000,166.376 398.000 C 167.683 398.000,168.848 398.154,168.964 398.342 C 169.080 398.530,170.389 398.717,171.874 398.758 C 173.358 398.798,174.669 398.960,174.786 399.116 C 175.126 399.568,175.950 399.614,188.300 399.872 L 200.000 400.116 200.000 200.058 L 200.000 0.000 190.867 0.000 C 185.843 0.000,181.648 0.085,181.543 0.190 M216.305 0.283 C 216.802 0.379,217.522 0.375,217.905 0.275 C 218.287 0.175,217.880 0.096,217.000 0.101 C 216.120 0.105,215.807 0.187,216.305 0.283 M230.000 1.685 C 230.000 1.858,230.360 2.000,230.800 2.000 C 231.240 2.000,231.600 1.831,231.600 1.625 C 231.600 1.419,231.240 1.277,230.800 1.310 C 230.360 1.343,230.000 1.512,230.000 1.685 M249.000 5.600 C 250.093 6.069,250.400 6.069,250.400 5.600 C 250.400 5.380,249.905 5.213,249.300 5.228 C 248.325 5.253,248.291 5.295,249.000 5.600 M262.084 9.358 C 262.616 9.934,263.200 9.839,263.200 9.176 C 263.200 8.969,262.833 8.800,262.384 8.800 C 261.707 8.800,261.656 8.894,262.084 9.358 M278.000 14.761 C 278.000 14.991,278.535 15.456,279.189 15.794 C 280.239 16.337,280.351 16.339,280.147 15.807 C 280.020 15.476,279.770 15.295,279.590 15.406 C 279.411 15.517,278.980 15.323,278.632 14.975 C 278.285 14.627,278.000 14.531,278.000 14.761 M281.600 16.327 C 281.600 16.516,282.058 16.880,282.619 17.136 C 283.885 17.713,284.000 17.713,284.000 17.133 C 284.000 16.877,283.879 16.787,283.732 16.935 C 283.584 17.082,283.044 16.928,282.532 16.592 C 282.019 16.256,281.600 16.137,281.600 16.327 M296.400 24.353 C 296.400 24.548,296.834 24.790,297.363 24.891 C 298.054 25.023,298.268 24.923,298.121 24.538 C 297.894 23.947,296.400 23.787,296.400 24.353 M304.281 28.587 C 304.699 29.161,305.409 29.580,305.976 29.587 C 306.915 29.600,306.923 29.578,306.181 29.035 C 305.756 28.725,305.271 28.556,305.102 28.661 C 304.933 28.765,304.686 28.569,304.554 28.225 C 304.422 27.881,304.145 27.600,303.939 27.600 C 303.732 27.600,303.886 28.044,304.281 28.587 M307.290 30.471 C 307.377 30.731,307.707 31.063,308.024 31.209 C 308.341 31.356,309.005 31.685,309.500 31.941 C 310.047 32.224,310.400 32.251,310.400 32.011 C 310.400 31.793,309.963 31.506,309.429 31.372 C 308.895 31.237,308.361 30.874,308.241 30.564 C 307.981 29.886,307.066 29.797,307.290 30.471 M312.040 33.719 C 312.788 34.445,313.625 34.966,313.900 34.877 C 314.175 34.787,314.400 34.924,314.400 35.181 C 314.400 35.437,314.607 35.519,314.860 35.363 C 315.146 35.186,314.796 34.810,313.931 34.367 C 313.168 33.975,312.309 33.372,312.023 33.027 C 311.736 32.682,311.317 32.400,311.091 32.400 C 310.864 32.400,311.291 32.994,312.040 33.719 M322.959 41.666 C 322.785 41.948,322.854 42.014,323.138 41.838 C 323.392 41.681,323.600 41.752,323.600 41.995 C 323.600 42.718,325.355 44.252,326.518 44.544 C 327.157 44.704,327.600 45.090,327.600 45.488 C 327.600 46.004,327.710 46.050,328.071 45.689 C 328.656 45.104,326.953 43.456,326.103 43.782 C 325.803 43.897,325.668 43.813,325.803 43.595 C 325.937 43.378,325.756 43.200,325.400 43.200 C 325.044 43.200,324.852 43.040,324.973 42.844 C 325.094 42.648,324.754 42.200,324.217 41.848 C 323.514 41.387,323.163 41.337,322.959 41.666 M331.478 48.256 C 331.158 48.575,331.519 49.200,332.024 49.200 C 332.231 49.200,332.400 48.930,332.400 48.600 C 332.400 47.981,331.928 47.805,331.478 48.256 M334.800 51.557 C 334.800 51.754,335.085 52.024,335.433 52.157 C 336.411 52.533,336.508 52.451,335.857 51.800 C 335.177 51.120,334.800 51.033,334.800 51.557 M350.088 67.192 C 350.563 67.953,351.564 68.570,351.853 68.280 C 352.070 68.063,350.414 66.400,349.981 66.400 C 349.767 66.400,349.814 66.754,350.088 67.192 M354.365 72.030 C 353.902 72.323,353.920 72.389,354.466 72.394 C 354.833 72.397,355.366 72.927,355.651 73.571 C 355.936 74.215,356.312 74.654,356.486 74.547 C 356.823 74.339,356.186 72.929,355.402 72.145 C 355.105 71.848,354.720 71.806,354.365 72.030 M359.600 78.720 C 359.600 79.134,360.466 80.000,360.880 80.000 C 361.056 80.000,361.200 79.820,361.200 79.600 C 361.200 79.380,360.975 79.245,360.700 79.300 C 360.425 79.355,360.245 79.175,360.300 78.900 C 360.355 78.625,360.220 78.400,360.000 78.400 C 359.780 78.400,359.600 78.544,359.600 78.720 M362.000 81.938 C 362.000 82.124,362.330 82.575,362.733 82.940 C 363.335 83.484,363.467 83.499,363.467 83.024 C 363.467 82.705,363.272 82.479,363.033 82.522 C 362.795 82.565,362.645 82.375,362.700 82.100 C 362.755 81.825,362.620 81.600,362.400 81.600 C 362.180 81.600,362.000 81.752,362.000 81.938 M364.108 84.837 C 364.498 85.064,364.697 85.463,364.550 85.725 C 364.380 86.027,364.485 86.012,364.838 85.683 C 365.412 85.149,364.801 84.403,363.800 84.418 C 363.580 84.422,363.719 84.610,364.108 84.837 M367.288 89.597 C 367.790 90.475,368.335 91.195,368.500 91.197 C 368.950 91.202,368.861 90.485,368.375 90.185 C 368.142 90.040,367.786 89.490,367.585 88.961 C 367.384 88.433,367.030 88.000,366.798 88.000 C 366.566 88.000,366.786 88.719,367.288 89.597 M372.908 98.429 C 372.875 98.863,373.002 99.122,373.190 99.006 C 373.378 98.890,373.623 99.021,373.734 99.298 C 373.864 99.620,373.948 99.567,373.968 99.149 C 374.017 98.144,372.982 97.441,372.908 98.429 M374.284 100.800 C 374.399 101.240,374.635 101.600,374.809 101.600 C 374.983 101.600,375.031 101.240,374.916 100.800 C 374.801 100.360,374.565 100.000,374.391 100.000 C 374.217 100.000,374.169 100.360,374.284 100.800 M378.400 108.681 C 378.400 109.143,379.535 110.209,379.758 109.957 C 379.834 109.871,379.560 109.454,379.148 109.030 C 378.737 108.607,378.400 108.449,378.400 108.681 M145.610 117.608 C 153.760 118.589,164.769 122.474,167.200 125.226 C 167.310 125.351,168.300 126.064,169.400 126.811 C 177.959 132.623,185.255 144.190,187.685 155.800 C 188.238 158.442,188.555 178.732,188.060 179.791 C 187.851 180.236,187.466 181.172,187.204 181.871 C 186.575 183.548,183.567 186.565,181.914 187.179 C 181.191 187.447,180.287 187.832,179.905 188.033 C 176.099 190.043,168.879 187.026,166.039 182.240 L 164.643 179.886 164.375 169.517 C 164.199 162.650,163.955 158.995,163.654 158.694 C 163.404 158.444,163.200 157.950,163.200 157.595 C 163.200 156.733,161.777 153.820,160.271 151.600 C 157.206 147.080,152.063 143.423,147.000 142.161 C 145.444 141.774,136.956 141.774,135.400 142.161 C 127.469 144.137,120.550 151.239,118.600 159.405 C 117.751 162.962,117.751 237.038,118.600 240.595 C 120.640 249.141,127.251 255.744,136.016 257.991 C 137.865 258.465,144.741 258.361,147.000 257.825 C 150.233 257.057,154.219 254.854,157.149 252.215 C 158.735 250.787,162.400 245.500,162.400 244.642 C 162.400 244.315,162.580 243.936,162.800 243.800 C 163.020 243.664,163.200 243.149,163.200 242.656 C 163.200 242.163,163.411 241.549,163.669 241.291 C 163.987 240.973,164.223 237.579,164.405 230.711 C 164.682 220.296,164.778 219.687,166.601 216.798 C 169.079 212.872,176.508 210.174,179.905 211.966 C 180.287 212.168,181.238 212.609,182.017 212.946 C 183.810 213.721,186.602 216.518,187.213 218.151 C 187.470 218.838,187.851 219.764,188.060 220.209 C 188.548 221.253,188.248 241.454,187.701 244.400 C 186.549 250.596,182.304 259.805,178.418 264.534 C 176.296 267.118,172.807 270.602,170.863 272.079 C 169.619 273.024,168.510 273.913,168.400 274.053 C 167.883 274.711,160.035 278.923,158.200 279.526 C 157.320 279.816,156.240 280.209,155.800 280.401 C 152.435 281.864,143.791 282.953,138.400 282.594 C 133.534 282.269,125.753 280.543,124.620 279.537 C 124.411 279.352,124.004 279.200,123.716 279.200 C 122.939 279.200,119.640 277.617,117.728 276.328 C 116.808 275.707,115.897 275.200,115.703 275.200 C 115.509 275.200,115.002 274.880,114.575 274.489 C 114.149 274.098,113.170 273.348,112.400 272.822 C 106.954 269.102,96.829 255.386,96.803 251.695 C 96.802 251.417,96.638 250.877,96.439 250.495 C 96.104 249.851,95.656 248.304,94.787 244.800 C 93.929 241.341,93.822 236.345,93.822 200.000 C 93.822 163.328,93.926 158.627,94.820 155.100 C 95.860 150.997,96.106 150.147,96.439 149.505 C 96.638 149.123,96.802 148.583,96.803 148.305 C 96.829 144.626,106.923 130.968,112.400 127.201 C 113.170 126.672,113.890 126.116,114.000 125.966 C 114.549 125.217,122.102 121.267,124.800 120.318 C 132.293 117.683,138.989 116.811,145.610 117.608 M388.806 131.900 C 388.824 132.777,389.588 133.359,389.594 132.500 C 389.597 132.005,389.420 131.600,389.200 131.600 C 388.980 131.600,388.803 131.735,388.806 131.900 M389.508 134.632 C 389.609 135.159,389.851 135.492,390.046 135.372 C 390.583 135.040,390.469 134.112,389.862 133.879 C 389.478 133.732,389.377 133.946,389.508 134.632 M390.184 136.827 C 390.039 137.061,390.028 137.361,390.160 137.493 C 390.292 137.625,390.403 137.478,390.406 137.167 C 390.411 136.700,390.481 136.706,390.800 137.200 C 391.131 137.713,391.189 137.698,391.194 137.100 C 391.201 136.325,390.595 136.161,390.184 136.827 M393.200 147.176 C 393.200 147.603,393.379 148.063,393.597 148.198 C 393.828 148.341,393.959 148.014,393.910 147.422 C 393.812 146.235,393.200 146.024,393.200 147.176 M396.400 161.533 C 396.400 162.010,396.564 162.400,396.765 162.400 C 397.171 162.400,397.111 161.377,396.678 160.945 C 396.525 160.792,396.400 161.057,396.400 161.533 M398.000 169.310 C 398.000 169.883,398.188 170.469,398.418 170.611 C 398.679 170.772,398.785 170.485,398.700 169.850 C 398.511 168.434,398.000 168.040,398.000 169.310 M398.000 230.800 C 398.000 231.547,398.107 231.653,398.480 231.280 C 398.853 230.907,398.853 230.693,398.480 230.320 C 398.107 229.947,398.000 230.053,398.000 230.800 M397.342 235.436 C 397.311 235.963,397.446 236.295,397.642 236.174 C 398.077 235.905,398.115 234.918,397.700 234.662 C 397.535 234.560,397.374 234.908,397.342 235.436 M390.000 262.824 C 390.000 263.057,390.165 263.145,390.366 263.021 C 390.567 262.897,390.823 263.021,390.934 263.298 C 391.056 263.601,391.149 263.522,391.168 263.100 C 391.186 262.715,390.930 262.400,390.600 262.400 C 390.270 262.400,390.000 262.591,390.000 262.824 M389.200 265.333 C 389.200 265.627,389.470 265.867,389.800 265.867 C 390.130 265.867,390.400 265.627,390.400 265.333 C 390.400 265.040,390.130 264.800,389.800 264.800 C 389.470 264.800,389.200 265.040,389.200 265.333 M388.135 269.774 C 388.256 270.090,388.181 270.436,387.968 270.544 C 387.754 270.652,387.810 270.694,388.090 270.637 C 388.744 270.505,389.013 269.200,388.387 269.200 C 388.127 269.200,388.014 269.458,388.135 269.774 M385.195 276.809 C 384.832 277.488,384.838 277.789,385.222 278.143 C 385.599 278.491,385.647 278.476,385.424 278.082 C 385.263 277.798,385.352 277.298,385.623 276.973 C 385.893 276.647,386.013 276.280,385.889 276.156 C 385.766 276.033,385.454 276.326,385.195 276.809 M384.000 279.400 C 383.592 279.891,383.620 280.000,384.151 280.000 C 384.508 280.000,384.800 279.730,384.800 279.400 C 384.800 279.070,384.732 278.800,384.649 278.800 C 384.566 278.800,384.274 279.070,384.000 279.400 M383.481 281.066 C 383.666 281.549,383.591 281.642,383.206 281.404 C 382.851 281.184,382.772 281.231,382.966 281.545 C 383.125 281.802,383.423 281.909,383.628 281.783 C 384.119 281.479,384.108 280.400,383.613 280.400 C 383.399 280.400,383.340 280.700,383.481 281.066 M382.400 283.200 C 382.062 283.832,382.096 284.000,382.561 284.000 C 382.904 284.000,383.125 283.665,383.090 283.200 C 383.057 282.760,382.984 282.400,382.929 282.400 C 382.874 282.400,382.635 282.760,382.400 283.200 M379.200 289.800 C 379.200 290.130,379.380 290.400,379.600 290.400 C 379.820 290.400,380.000 290.130,380.000 289.800 C 380.000 289.470,379.820 289.200,379.600 289.200 C 379.380 289.200,379.200 289.470,379.200 289.800 M368.100 309.033 C 368.228 309.162,367.988 309.612,367.567 310.033 C 367.145 310.455,366.800 311.070,366.800 311.400 C 366.800 311.730,366.560 312.000,366.267 312.000 C 365.973 312.000,365.733 312.270,365.733 312.600 C 365.733 312.930,365.786 313.200,365.851 313.200 C 366.190 313.200,367.546 311.437,367.396 311.193 C 367.298 311.036,367.575 310.585,368.009 310.191 C 368.897 309.388,369.034 308.800,368.333 308.800 C 368.077 308.800,367.972 308.905,368.100 309.033 M363.280 315.680 C 362.698 316.262,362.658 317.065,363.195 317.397 C 363.425 317.539,363.488 317.373,363.345 317.002 C 363.199 316.620,363.403 316.132,363.850 315.794 C 364.262 315.481,364.411 315.220,364.180 315.213 C 363.949 315.206,363.544 315.416,363.280 315.680 M357.829 323.661 C 357.056 325.212,357.042 325.429,357.756 324.837 C 358.228 324.445,358.915 322.400,358.574 322.400 C 358.510 322.400,358.175 322.968,357.829 323.661 M355.149 326.677 C 354.847 327.049,354.810 327.228,355.066 327.074 C 355.322 326.921,355.623 327.021,355.734 327.298 C 355.846 327.574,355.951 327.395,355.968 326.900 C 356.006 325.822,355.872 325.786,355.149 326.677 M350.830 332.164 C 350.572 332.475,350.514 332.823,350.701 332.939 C 350.887 333.054,351.257 332.800,351.523 332.374 C 352.079 331.484,351.531 331.319,350.830 332.164 M348.749 334.265 C 348.247 334.874,348.285 334.887,349.200 334.411 C 350.541 333.714,350.642 333.600,349.916 333.600 C 349.576 333.600,349.051 333.899,348.749 334.265 M344.412 338.784 C 344.088 338.989,343.944 339.278,344.093 339.426 C 344.241 339.574,344.653 339.404,345.010 339.048 C 345.713 338.344,345.357 338.187,344.412 338.784 M334.011 348.987 C 333.743 349.309,333.617 349.804,333.731 350.087 C 333.857 350.400,333.949 350.319,333.968 349.876 C 333.986 349.478,334.150 349.245,334.333 349.359 C 334.517 349.472,334.667 349.303,334.667 348.982 C 334.667 348.259,334.615 348.259,334.011 348.987 M326.400 355.400 C 325.981 355.905,326.052 355.995,326.851 355.968 C 327.373 355.951,327.574 355.846,327.298 355.734 C 327.021 355.623,326.897 355.367,327.021 355.166 C 327.384 354.579,326.944 354.745,326.400 355.400 M324.507 357.200 C 324.130 357.640,323.603 358.000,323.335 358.000 C 323.067 358.000,322.746 358.163,322.623 358.363 C 322.500 358.562,322.804 358.628,323.299 358.510 C 324.259 358.281,326.320 356.400,325.612 356.400 C 325.381 356.400,324.884 356.760,324.507 357.200 M311.303 366.575 C 310.809 366.848,310.075 367.370,309.671 367.736 C 309.267 368.101,308.769 368.400,308.565 368.400 C 308.360 368.400,307.972 368.753,307.702 369.185 C 307.292 369.842,307.309 369.933,307.806 369.742 C 308.133 369.617,308.400 369.354,308.400 369.157 C 308.400 368.961,308.642 368.800,308.938 368.800 C 309.234 368.800,309.798 368.444,310.191 368.009 C 310.585 367.575,311.064 367.316,311.256 367.435 C 311.448 367.554,311.713 367.370,311.845 367.028 C 311.976 366.685,312.245 366.504,312.442 366.626 C 312.639 366.748,312.800 366.657,312.800 366.424 C 312.800 365.901,312.459 365.935,311.303 366.575 M305.796 370.407 C 305.658 370.630,305.377 370.709,305.172 370.583 C 304.968 370.456,304.800 370.633,304.800 370.976 C 304.800 371.319,304.935 371.594,305.100 371.587 C 305.519 371.570,306.800 370.566,306.800 370.256 C 306.800 369.850,306.073 369.959,305.796 370.407 M302.200 372.400 C 302.336 372.620,302.113 372.800,301.704 372.800 C 300.883 372.800,299.993 373.526,300.013 374.180 C 300.020 374.411,300.290 374.251,300.613 373.824 C 300.936 373.396,301.200 373.266,301.200 373.533 C 301.200 373.869,301.507 373.817,302.197 373.365 C 303.139 372.748,303.225 372.000,302.353 372.000 C 302.133 372.000,302.064 372.180,302.200 372.400 M297.189 375.222 C 296.538 375.722,296.405 375.981,296.800 375.978 C 297.587 375.973,298.944 374.936,298.513 374.670 C 298.328 374.556,297.733 374.804,297.189 375.222 M282.800 382.800 C 282.800 383.020,283.070 383.200,283.400 383.200 C 283.730 383.200,284.000 383.020,284.000 382.800 C 284.000 382.580,283.730 382.400,283.400 382.400 C 283.070 382.400,282.800 382.580,282.800 382.800 M276.800 385.442 C 276.133 385.851,276.066 385.964,276.600 385.780 C 277.040 385.629,277.617 385.496,277.882 385.486 C 278.148 385.475,278.272 385.317,278.159 385.133 C 277.907 384.725,278.005 384.703,276.800 385.442 M270.200 388.027 C 269.440 388.514,269.239 388.797,269.651 388.798 C 270.009 388.799,270.524 388.532,270.796 388.204 C 271.068 387.877,271.478 387.725,271.707 387.866 C 271.949 388.016,272.004 387.930,271.838 387.662 C 271.681 387.408,271.518 387.213,271.476 387.229 C 271.434 387.245,270.860 387.604,270.200 388.027 M266.780 389.024 C 266.441 389.432,266.433 389.600,266.751 389.600 C 266.998 389.600,267.200 389.398,267.200 389.151 C 267.200 388.841,267.385 388.856,267.800 389.200 C 268.146 389.487,268.400 389.526,268.400 389.292 C 268.400 388.601,267.284 388.416,266.780 389.024 M264.884 389.815 C 264.453 390.304,264.492 390.400,265.118 390.400 C 265.530 390.400,265.867 390.130,265.867 389.800 C 265.867 389.053,265.552 389.058,264.884 389.815 M262.084 390.615 C 261.646 391.112,261.736 391.195,262.684 391.168 C 263.298 391.151,263.574 391.046,263.298 390.934 C 263.021 390.823,262.897 390.567,263.021 390.366 C 263.384 389.779,262.649 389.974,262.084 390.615 M245.200 395.200 C 245.200 395.420,245.470 395.600,245.800 395.600 C 246.130 395.600,246.400 395.420,246.400 395.200 C 246.400 394.980,246.130 394.800,245.800 394.800 C 245.470 394.800,245.200 394.980,245.200 395.200 M234.578 397.564 C 234.826 397.966,235.818 397.915,236.255 397.478 C 236.408 397.325,236.043 397.200,235.443 397.200 C 234.843 397.200,234.454 397.364,234.578 397.564 M222.000 399.280 C 222.000 399.690,223.646 399.685,224.294 399.274 C 224.588 399.088,224.222 398.960,223.394 398.960 C 222.627 398.960,222.000 399.104,222.000 399.280 " stroke="none" fill="#f3f3fc" fill-rule="evenodd"></path><path id="path3" d="M243.397 118.548 C 241.335 119.323,239.277 120.786,238.087 122.323 C 235.635 125.488,235.800 119.876,235.800 200.228 L 235.800 273.856 236.745 275.693 C 237.950 278.037,239.662 279.676,242.258 280.972 L 244.316 282.000 270.525 282.000 C 296.090 282.000,296.781 281.980,298.667 281.177 C 306.377 277.892,307.964 267.340,301.571 261.868 C 298.524 259.260,297.986 259.200,277.634 259.200 C 263.954 259.200,259.239 259.079,258.880 258.720 C 258.511 258.351,258.399 243.076,258.396 192.420 L 258.392 126.600 257.444 124.600 C 254.980 119.404,248.521 116.621,243.397 118.548 " stroke="none" fill="#cccce4" fill-rule="evenodd"></path><path id="path4" d="M245.200 117.271 C 240.820 118.161,235.570 122.588,235.606 125.361 C 235.609 125.603,236.014 125.012,236.506 124.049 C 238.458 120.226,242.858 117.600,247.313 117.600 C 248.424 117.600,249.258 117.535,249.167 117.456 C 248.681 117.037,246.787 116.949,245.200 117.271 M139.900 117.889 C 140.615 117.978,141.785 117.978,142.500 117.889 C 143.215 117.801,142.630 117.728,141.200 117.728 C 139.770 117.728,139.185 117.801,139.900 117.889 M250.403 117.974 C 251.938 118.441,253.764 119.456,255.252 120.671 C 256.365 121.580,256.461 121.610,255.800 120.840 C 254.753 119.619,251.219 117.599,250.200 117.638 C 249.551 117.663,249.590 117.726,250.403 117.974 M133.200 118.400 C 131.856 118.831,133.308 118.831,135.000 118.400 C 136.078 118.126,136.098 118.094,135.200 118.087 C 134.650 118.083,133.750 118.224,133.200 118.400 M146.033 118.149 C 146.125 118.231,147.100 118.401,148.200 118.528 C 149.549 118.684,149.874 118.649,149.200 118.420 C 148.201 118.080,145.718 117.868,146.033 118.149 M151.800 119.200 C 152.240 119.389,152.870 119.544,153.200 119.544 C 153.578 119.544,153.504 119.417,153.000 119.200 C 152.560 119.011,151.930 118.856,151.600 118.856 C 151.222 118.856,151.296 118.983,151.800 119.200 M114.895 125.811 C 113.743 126.586,112.800 127.308,112.800 127.415 C 112.800 127.521,113.790 126.951,115.000 126.147 C 116.922 124.871,117.487 124.400,117.095 124.400 C 117.037 124.400,116.047 125.035,114.895 125.811 M165.200 124.521 C 165.200 124.612,166.235 125.351,167.500 126.163 C 168.765 126.975,169.308 127.221,168.706 126.710 C 167.518 125.700,165.200 124.253,165.200 124.521 M235.067 126.667 C 234.700 127.033,234.740 272.886,235.106 273.462 C 235.268 273.716,235.400 240.731,235.400 200.162 C 235.400 159.593,235.385 126.400,235.367 126.400 C 235.348 126.400,235.213 126.520,235.067 126.667 M171.087 128.809 C 171.795 129.551,172.442 130.078,172.525 129.979 C 172.608 129.881,172.029 129.273,171.238 128.629 L 169.800 127.458 171.087 128.809 M258.806 192.892 L 258.800 258.385 259.700 258.595 C 261.136 258.931,297.144 259.032,296.938 258.700 C 296.836 258.535,288.393 258.400,278.176 258.400 L 259.600 258.400 259.594 193.500 C 259.590 152.290,259.446 128.381,259.200 128.000 C 258.949 127.611,258.810 150.462,258.806 192.892 M107.983 131.500 L 106.200 133.400 108.193 131.600 C 109.288 130.610,110.263 129.755,110.359 129.700 C 110.455 129.645,110.361 129.600,110.150 129.600 C 109.939 129.600,108.964 130.455,107.983 131.500 M174.034 131.447 C 174.565 132.133,175.080 132.623,175.179 132.535 C 175.277 132.447,174.843 131.886,174.213 131.288 L 173.069 130.200 174.034 131.447 M104.826 134.922 L 103.851 136.200 105.126 135.025 C 106.451 133.803,106.603 133.585,106.100 133.622 C 105.935 133.634,105.362 134.219,104.826 134.922 M178.037 136.000 C 179.196 137.796,179.200 137.801,179.198 137.367 C 179.197 137.165,178.732 136.460,178.165 135.800 L 177.134 134.600 178.037 136.000 M102.073 138.600 C 101.822 139.150,101.683 139.600,101.763 139.600 C 101.843 139.600,102.203 139.150,102.563 138.600 C 102.924 138.050,103.063 137.600,102.873 137.600 C 102.684 137.600,102.323 138.050,102.073 138.600 M140.305 141.083 C 140.802 141.179,141.522 141.175,141.905 141.075 C 142.287 140.975,141.880 140.896,141.000 140.901 C 140.120 140.905,139.807 140.987,140.305 141.083 M99.380 143.240 C 98.811 144.362,98.413 145.347,98.495 145.429 C 98.577 145.511,99.127 144.593,99.718 143.389 C 100.308 142.185,100.706 141.200,100.602 141.200 C 100.498 141.200,99.948 142.118,99.380 143.240 M136.500 141.476 C 136.885 141.576,137.515 141.576,137.900 141.476 C 138.285 141.375,137.970 141.293,137.200 141.293 C 136.430 141.293,136.115 141.375,136.500 141.476 M144.500 141.476 C 144.885 141.576,145.515 141.576,145.900 141.476 C 146.285 141.375,145.970 141.293,145.200 141.293 C 144.430 141.293,144.115 141.375,144.500 141.476 M182.678 143.395 C 183.044 144.162,183.414 144.719,183.501 144.632 C 183.684 144.449,182.470 142.000,182.196 142.000 C 182.095 142.000,182.312 142.628,182.678 143.395 M124.919 147.437 L 122.600 149.674 125.100 147.548 C 126.475 146.379,127.600 145.372,127.600 145.311 C 127.600 144.954,126.993 145.435,124.919 147.437 M159.200 149.349 C 159.200 149.516,159.685 150.316,160.278 151.127 C 161.689 153.056,162.198 153.592,161.678 152.600 C 161.072 151.446,159.200 148.990,159.200 149.349 M96.249 150.615 C 96.112 150.973,96.015 151.566,96.034 151.933 C 96.053 152.300,96.227 152.069,96.421 151.420 C 96.798 150.158,96.665 149.533,96.249 150.615 M121.693 151.100 C 120.657 152.596,120.321 153.200,120.523 153.200 C 120.617 153.200,121.170 152.480,121.753 151.600 C 122.936 149.812,122.884 149.379,121.693 151.100 M186.244 152.600 C 186.573 154.071,186.802 154.390,186.794 153.367 C 186.791 152.945,186.605 152.330,186.382 152.000 C 186.085 151.562,186.048 151.724,186.244 152.600 M162.446 154.600 C 162.453 154.820,162.806 155.720,163.229 156.600 C 163.652 157.480,163.886 157.750,163.749 157.200 C 163.467 156.067,162.425 153.988,162.446 154.600 M187.062 155.800 C 187.196 156.680,187.372 157.475,187.453 157.567 C 187.756 157.910,187.529 155.768,187.181 155.000 C 186.929 154.442,186.893 154.685,187.062 155.800 M94.520 160.000 C 94.520 161.210,94.595 161.705,94.687 161.100 C 94.778 160.495,94.778 159.505,94.687 158.900 C 94.595 158.295,94.520 158.790,94.520 160.000 M117.457 161.900 C 117.132 163.865,117.218 237.045,117.547 238.577 C 117.686 239.225,117.800 221.900,117.800 200.077 C 117.800 178.255,117.779 160.400,117.752 160.400 C 117.726 160.400,117.593 161.075,117.457 161.900 M188.168 169.800 C 188.168 174.200,188.226 176.055,188.298 173.921 C 188.370 171.788,188.370 168.188,188.299 165.921 C 188.227 163.655,188.168 165.400,188.168 169.800 M94.192 200.000 C 94.192 220.790,94.241 229.295,94.300 218.900 C 94.359 208.505,94.359 191.495,94.300 181.100 C 94.241 170.705,94.192 179.210,94.192 200.000 M164.880 171.400 C 164.843 175.580,164.944 179.209,165.106 179.464 C 165.268 179.719,165.352 177.199,165.294 173.864 C 165.124 164.197,164.954 163.182,164.880 171.400 M186.686 181.510 L 185.973 183.000 186.777 182.000 C 187.220 181.450,187.586 180.775,187.591 180.500 C 187.605 179.733,187.460 179.895,186.686 181.510 M165.604 180.622 C 165.592 181.977,169.844 186.800,171.052 186.800 C 171.220 186.800,170.593 186.238,169.659 185.551 C 168.724 184.863,167.430 183.378,166.784 182.251 C 166.137 181.123,165.606 180.390,165.604 180.622 M184.378 184.700 L 183.000 186.200 184.500 184.822 C 185.325 184.063,186.000 183.388,186.000 183.322 C 186.000 183.016,185.662 183.304,184.378 184.700 M181.206 186.823 C 180.440 187.250,180.080 187.596,180.406 187.591 C 180.733 187.586,181.450 187.230,182.000 186.800 C 183.256 185.817,182.996 185.825,181.206 186.823 M175.700 188.276 C 176.085 188.376,176.715 188.376,177.100 188.276 C 177.485 188.175,177.170 188.093,176.400 188.093 C 175.630 188.093,175.315 188.175,175.700 188.276 M181.055 213.169 C 181.965 213.582,183.495 214.608,184.455 215.449 C 185.664 216.508,185.893 216.626,185.200 215.832 C 183.995 214.453,180.885 212.397,180.022 212.409 C 179.680 212.414,180.145 212.756,181.055 213.169 M167.471 216.100 C 166.174 217.837,165.483 219.217,165.768 219.501 C 165.895 219.629,166.000 219.544,166.000 219.312 C 166.000 219.080,166.633 217.970,167.407 216.845 C 168.959 214.588,169.006 214.043,167.471 216.100 M186.730 218.782 C 187.098 219.651,187.456 220.204,187.524 220.009 C 187.650 219.649,186.513 217.200,186.219 217.200 C 186.131 217.200,186.361 217.912,186.730 218.782 M165.049 220.615 C 164.912 220.973,164.838 224.626,164.883 228.733 L 164.967 236.200 165.183 228.200 C 165.417 219.565,165.419 219.653,165.049 220.615 M188.168 230.200 C 188.168 234.600,188.226 236.455,188.298 234.321 C 188.370 232.188,188.370 228.588,188.299 226.321 C 188.227 224.055,188.168 225.800,188.168 230.200 M94.520 240.000 C 94.520 241.210,94.595 241.705,94.687 241.100 C 94.778 240.495,94.778 239.505,94.687 238.900 C 94.595 238.295,94.520 238.790,94.520 240.000 M187.693 240.000 C 187.693 240.770,187.775 241.085,187.876 240.700 C 187.976 240.315,187.976 239.685,187.876 239.300 C 187.775 238.915,187.693 239.230,187.693 240.000 M187.249 243.000 C 187.216 243.440,187.096 244.250,186.983 244.800 L 186.777 245.800 187.206 244.819 C 187.442 244.279,187.561 243.469,187.472 243.019 C 187.313 242.221,187.307 242.221,187.249 243.000 M119.735 245.708 C 120.212 247.080,123.142 251.019,124.861 252.599 L 126.600 254.197 124.738 252.199 C 123.714 251.099,122.114 249.030,121.182 247.600 C 120.251 246.170,119.599 245.319,119.735 245.708 M186.229 247.429 C 186.081 248.015,186.038 248.572,186.132 248.666 C 186.227 248.760,186.424 248.358,186.571 247.771 C 186.719 247.185,186.762 246.628,186.668 246.534 C 186.573 246.440,186.376 246.842,186.229 247.429 M160.895 248.223 C 160.403 248.974,160.000 249.723,160.000 249.887 C 160.000 250.051,160.466 249.500,161.036 248.662 C 161.605 247.824,162.008 247.075,161.931 246.998 C 161.854 246.920,161.388 247.472,160.895 248.223 M96.817 250.800 C 96.821 251.130,97.541 252.840,98.417 254.600 C 100.297 258.376,100.219 257.874,98.232 253.400 C 97.450 251.640,96.813 250.470,96.817 250.800 M157.978 251.900 L 156.600 253.400 158.100 252.022 C 159.496 250.738,159.784 250.400,159.478 250.400 C 159.412 250.400,158.737 251.075,157.978 251.900 M181.814 258.235 C 181.441 258.804,181.205 259.338,181.289 259.422 C 181.373 259.507,181.758 259.041,182.144 258.388 C 183.006 256.928,182.748 256.809,181.814 258.235 M135.200 258.405 C 135.530 258.616,136.325 258.791,136.967 258.794 C 138.514 258.802,138.177 258.571,136.200 258.268 C 135.110 258.101,134.791 258.145,135.200 258.405 M145.600 258.400 C 144.216 258.691,144.214 258.695,145.400 258.741 C 146.060 258.767,146.870 258.613,147.200 258.400 C 147.866 257.970,147.645 257.970,145.600 258.400 M140.300 259.082 C 140.795 259.178,141.605 259.178,142.100 259.082 C 142.595 258.987,142.190 258.909,141.200 258.909 C 140.210 258.909,139.805 258.987,140.300 259.082 M101.646 260.796 C 102.139 261.673,102.608 262.326,102.687 262.246 C 102.859 262.074,101.206 259.200,100.935 259.200 C 100.833 259.200,101.152 259.918,101.646 260.796 M301.215 261.161 C 301.977 261.800,302.674 262.250,302.765 262.163 C 302.989 261.946,300.696 260.001,300.215 260.000 C 300.003 260.000,300.453 260.522,301.215 261.161 M178.744 263.100 C 177.593 264.489,177.106 265.200,177.304 265.200 C 177.414 265.200,177.986 264.570,178.573 263.800 C 179.663 262.371,179.795 261.832,178.744 263.100 M303.209 262.646 C 303.221 263.113,304.780 265.100,304.791 264.663 C 304.796 264.478,304.440 263.869,304.000 263.309 C 303.560 262.750,303.204 262.451,303.209 262.646 M107.600 268.141 C 108.810 269.418,110.340 270.837,111.000 271.296 C 112.372 272.249,112.406 272.284,108.400 268.588 C 105.542 265.952,105.504 265.930,107.600 268.141 M174.020 268.579 L 172.240 270.600 174.201 268.714 C 175.279 267.677,176.080 266.767,175.981 266.693 C 175.881 266.619,174.999 267.467,174.020 268.579 M305.675 267.400 C 305.686 267.840,305.832 268.740,306.000 269.400 L 306.305 270.600 306.325 269.400 C 306.335 268.740,306.189 267.840,306.000 267.400 L 305.656 266.600 305.675 267.400 M171.022 271.176 C 170.635 271.603,168.898 272.886,167.160 274.026 C 165.422 275.167,164.000 276.179,164.000 276.274 C 164.000 276.500,164.446 276.231,167.800 273.979 C 170.275 272.318,172.485 270.400,171.924 270.400 C 171.814 270.400,171.408 270.749,171.022 271.176 M305.822 272.622 C 305.672 273.425,305.638 274.172,305.748 274.282 C 305.858 274.392,306.072 273.825,306.222 273.022 C 306.373 272.219,306.406 271.473,306.296 271.363 C 306.186 271.253,305.973 271.819,305.822 272.622 M113.840 273.517 C 115.719 274.863,118.761 276.687,118.200 276.132 C 117.595 275.533,112.847 272.400,112.545 272.400 C 112.399 272.400,112.982 272.903,113.840 273.517 M235.600 274.711 C 235.600 274.986,235.825 275.613,236.100 276.104 C 236.780 277.319,238.400 279.332,238.400 278.962 C 238.400 278.798,238.150 278.379,237.844 278.031 C 237.538 277.684,236.908 276.683,236.444 275.806 C 235.980 274.929,235.600 274.437,235.600 274.711 M303.837 277.400 C 303.476 277.950,303.337 278.400,303.527 278.400 C 303.716 278.400,304.077 277.950,304.327 277.400 C 304.578 276.850,304.717 276.400,304.637 276.400 C 304.557 276.400,304.197 276.850,303.837 277.400 M126.400 280.000 C 126.730 280.213,127.270 280.388,127.600 280.388 C 128.133 280.388,128.133 280.345,127.600 280.000 C 127.270 279.787,126.730 279.612,126.400 279.612 C 125.867 279.612,125.867 279.655,126.400 280.000 M132.800 281.600 C 133.350 281.776,134.250 281.920,134.800 281.920 L 135.800 281.920 134.800 281.600 C 134.250 281.424,133.350 281.280,132.800 281.280 L 131.800 281.280 132.800 281.600 M147.600 281.600 L 146.600 281.920 147.600 281.932 C 148.150 281.938,148.960 281.789,149.400 281.600 L 150.200 281.256 149.400 281.268 C 148.960 281.274,148.150 281.424,147.600 281.600 M139.911 282.293 C 140.851 282.378,142.291 282.377,143.111 282.291 C 143.930 282.205,143.160 282.136,141.400 282.137 C 139.640 282.139,138.970 282.209,139.911 282.293 M245.515 282.872 C 245.892 283.021,257.180 283.144,270.600 283.144 C 284.020 283.144,295.308 283.021,295.685 282.872 C 296.062 282.722,284.774 282.600,270.600 282.600 C 256.426 282.600,245.138 282.722,245.515 282.872 " stroke="none" fill="#e4e4f4" fill-rule="evenodd"></path></g></svg>